<?xml version="1.0" encoding="utf-8"?>
<!-- Generator: Adobe Illustrator 22.0.1, SVG Export Plug-In . SVG Version: 6.00 Build 0)  -->
<svg version="1.1" id="Layer_1" xmlns="http://www.w3.org/2000/svg" xmlns:xlink="http://www.w3.org/1999/xlink" x="0px" y="0px"
	 viewBox="0 0 400 400" style="enable-background:new 0 0 400 400;" xml:space="preserve">
<style type="text/css">
	.st0{fill:#FFFFFF;}
	.st1{fill:#90B193;}
</style>
<g>
	<circle class="st0" cx="200" cy="200" r="189.5"/>
	<path class="st1" d="M200,11c25.5,0,50.3,5,73.6,14.9c22.5,9.5,42.7,23.1,60.1,40.5c17.4,17.4,31,37.6,40.5,60.1
		C384,149.7,389,174.5,389,200s-5,50.3-14.9,73.6c-9.5,22.5-23.1,42.7-40.5,60.1c-17.4,17.4-37.6,31-60.1,40.5
		C250.3,384,225.5,389,200,389s-50.3-5-73.6-14.9c-22.5-9.5-42.7-23.1-60.1-40.5c-17.4-17.4-31-37.6-40.5-60.1
		C16,250.3,11,225.5,11,200s5-50.3,14.9-73.6c9.5-22.5,23.1-42.7,40.5-60.1s37.6-31,60.1-40.5C149.7,16,174.5,11,200,11 M200,10
		C95.1,10,10,95.1,10,200s85.1,190,190,190s190-85.1,190-190S304.9,10,200,10L200,10z"/>
</g>
</svg>
