<?xml version="1.0" encoding="utf-8"?>
<!-- Generator: Adobe Illustrator 21.1.0, SVG Export Plug-In . SVG Version: 6.00 Build 0)  -->
<svg version="1.1" id="Layer_1" xmlns="http://www.w3.org/2000/svg" xmlns:xlink="http://www.w3.org/1999/xlink" x="0px" y="0px"
	 viewBox="0 0 400 400" style="enable-background:new 0 0 400 400;" xml:space="preserve">
<g>
	<g>
		<path d="M15.4,246.4c15.2-27.6,30.4-55.3,45.6-82.9c2.2-3.9,4.3-7.9,6.5-11.8c2.3-4.2-4.1-8-6.5-3.8
			c-15.2,27.6-30.4,55.3-45.6,82.9c-2.2,3.9-4.3,7.9-6.5,11.8C6.6,246.8,13.1,250.6,15.4,246.4L15.4,246.4z"/>
	</g>
</g>
<g>
	<g>
		<path d="M60.6,150.7c11.6,38.3,23.1,76.7,34.7,115c1.6,5.3,3.2,10.7,4.8,16c1.4,4.6,8.6,2.6,7.2-2c-11.6-38.3-23.1-76.7-34.7-115
			c-1.6-5.3-3.2-10.7-4.8-16C66.4,144.1,59.2,146.1,60.6,150.7L60.6,150.7z"/>
	</g>
</g>
<g>
	<g>
		<path d="M66.6,151.3c32.9-22.9,65.7-45.7,98.6-68.6c4.6-3.2,9.2-6.4,13.7-9.6c3.9-2.7,0.2-9.2-3.8-6.5
			c-32.9,22.9-65.7,45.7-98.6,68.6c-4.6,3.2-9.2,6.4-13.7,9.6C58.9,147.5,62.7,154,66.6,151.3L66.6,151.3z"/>
	</g>
</g>
<g>
	<g>
		<path d="M176.8,68.8c8.1,26.7,16.1,53.5,24.2,80.2c1.4,4.6,8.6,2.6,7.2-2c-8.1-26.7-16.1-53.5-24.2-80.2
			C182.7,62.2,175.4,64.2,176.8,68.8L176.8,68.8z"/>
	</g>
</g>
<g>
	<g>
		<path d="M126.6,210.5c23.4-16.3,46.9-32.6,70.3-48.9c3.4-2.4,6.8-4.7,10.2-7.1c3.9-2.7,0.2-9.2-3.8-6.5
			c-23.4,16.3-46.9,32.6-70.3,48.9c-3.4,2.4-6.8,4.7-10.2,7.1C118.9,206.7,122.7,213.3,126.6,210.5L126.6,210.5z"/>
	</g>
</g>
<g>
	<g>
		<path d="M204.3,154.9c20.5,7.9,41,15.8,61.6,23.7c32.9,12.7,65.8,25.3,98.7,38c7.5,2.9,15,5.8,22.5,8.7c4.5,1.7,6.5-5.5,2-7.2
			c-20.5-7.9-41-15.8-61.6-23.7c-32.9-12.7-65.8-25.3-98.7-38c-7.5-2.9-15-5.8-22.5-8.7C201.7,145.9,199.8,153.2,204.3,154.9
			L204.3,154.9z"/>
	</g>
</g>
<g>
	<g>
		<path d="M231.8,335.3c17.9-12.4,35.8-24.8,53.6-37.3c28.3-19.7,56.6-39.4,85-59.1c6.5-4.5,13-9.1,19.6-13.6
			c3.9-2.7,0.2-9.2-3.8-6.5c-17.9,12.4-35.8,24.8-53.6,37.3c-28.3,19.7-56.6,39.4-85,59.1c-6.5,4.5-13,9.1-19.6,13.6
			C224,331.5,227.8,338,231.8,335.3L231.8,335.3z"/>
	</g>
</g>
<g>
	<g>
		<path d="M123.1,211.7c26.2,10.1,52.4,20.2,78.5,30.2c3.7,1.4,7.5,2.9,11.2,4.3c4.5,1.7,6.5-5.5,2-7.2
			c-26.2-10.1-52.4-20.2-78.5-30.2c-3.7-1.4-7.5-2.9-11.2-4.3C120.6,202.7,118.7,210,123.1,211.7L123.1,211.7z"/>
	</g>
</g>
<g>
	<g>
		<path d="M141.2,299.6c22.1-15.3,44.1-30.6,66.2-46c3.2-2.2,6.4-4.5,9.6-6.7c3.9-2.7,0.2-9.2-3.8-6.5c-22.1,15.3-44.1,30.6-66.2,46
			c-3.2,2.2-6.4,4.5-9.6,6.7C133.5,295.9,137.2,302.4,141.2,299.6L141.2,299.6z"/>
	</g>
</g>
<g>
	<g>
		<path d="M137.7,300.9c26.1,10,52.2,20.1,78.2,30.1c3.8,1.5,7.5,2.9,11.3,4.4c4.5,1.7,6.5-5.5,2-7.2c-26.1-10-52.2-20.1-78.2-30.1
			c-3.8-1.5-7.5-2.9-11.3-4.4C135.2,292,133.3,299.2,137.7,300.9L137.7,300.9z"/>
	</g>
</g>
</svg>
