<svg id="Layer_1" data-name="Layer 1" xmlns="http://www.w3.org/2000/svg" viewBox="0 0 52.33 52.05"><defs><style>.cls-1{fill:none;stroke:#fff;stroke-linecap:round;stroke-miterlimit:10;stroke-width:2px;}</style></defs><title>bell</title><path class="cls-1" d="M15.87,29.57V19.82A10.22,10.22,0,0,1,26.15,9.71h0a10.22,10.22,0,0,1,10.28,10.1v9.76"/><path class="cls-1" d="M23.24,30.36H36.87a3.27,3.27,0,0,1,3.29,3.24h0a3.27,3.27,0,0,1-3.29,3.24H15.46a3.27,3.27,0,0,1-3.29-3.24h0a3.27,3.27,0,0,1,3.29-3.24h1.65"/><line class="cls-1" x1="26.58" y1="6.07" x2="26.58" y2="9.31"/><path class="cls-1" d="M29.17,37.18a3,3,0,0,1-6,0"/></svg>