<svg id="Layer_1" data-name="Layer 1" xmlns="http://www.w3.org/2000/svg" viewBox="0 0 54.3 54"><defs><style>.cls-1{fill:none;stroke:#fff;stroke-linecap:round;stroke-miterlimit:10;stroke-width:2px;}</style></defs><title>phone-ringing</title><path class="cls-1" d="M36.2,36.79c-.08-.63-2.16-3.28-3.57-5a2,2,0,0,0-2.51-.57l-2.13,1a.67.67,0,0,1-.68,0A5.21,5.21,0,0,1,26,31c-1-1.19-4.44-9.26-4.49-9.5a3.16,3.16,0,0,1,1.72-3.43l.49-.24A1.87,1.87,0,0,0,24.8,16c-.34-2.46-1-8.2-4.3-7.8-2,.24-2.63.73-4.43,1.59-.48.23-3.69,2-1.94,9.26a52.09,52.09,0,0,0,2.94,9.84,38.28,38.28,0,0,0,3,5.47,26.13,26.13,0,0,0,5.57,6.17C31.37,45.33,36.37,38.21,36.2,36.79Z"/><path class="cls-1" d="M33.21,11s10.32,2.05,8,16"/><path class="cls-1" d="M30.25,15s7.74,1.54,6,12"/></svg>