<svg id="Layer_1" data-name="Layer 1" xmlns="http://www.w3.org/2000/svg" viewBox="0 0 51.34 51.05"><defs><style>.cls-1{fill:none;stroke:#fff;stroke-linecap:round;stroke-miterlimit:10;stroke-width:2px;}</style></defs><title>tag</title><path class="cls-1" d="M37,31,30.72,15.44c-.43-1.06-8.92-5-8.92-5A1.53,1.53,0,0,0,20,11.3s-3.24,9.2-2.81,10.27l6.24,15.56A2,2,0,0,0,26,38.24l9.91-4.48A2.16,2.16,0,0,0,37,31Z"/><path class="cls-1" d="M25.54,17.75A1.94,1.94,0,0,0,23,16.7a2,2,0,0,0-1,2.62,1.94,1.94,0,0,0,2.57,1.06A2,2,0,0,0,25.54,17.75Z"/><path class="cls-1" d="M24.87,17s6-9.79,1.5-12.59c-3.31-2-4.89,2.52-4.89,2.52"/></svg>