<svg id="Layer_1" data-name="Layer 1" xmlns="http://www.w3.org/2000/svg" viewBox="0 0 174.39 193.91"><title>photo-icon</title><path d="M17.52,64.88l69.2-48.79L96.75,9c3.13-2.21.14-7.41-3-5.18L24.52,52.63l-10,7.07c-3.13,2.21-.14,7.41,3,5.18Z" transform="translate(-13.17 -3.26)"/><path d="M95.34,9,169.93,65,180.67,73c3.09,2.32,6.08-2.89,3-5.18L109.11,11.89l-10.74-8c-3.09-2.32-6.08,2.89-3,5.18Z" transform="translate(-13.17 -3.26)"/><path d="M14.87,65.64l74.59,55.94,10.74,8c3.09,2.32,6.08-2.88,3-5.18L28.64,68.52,17.9,60.46c-3.09-2.31-6.09,2.89-3,5.18Z" transform="translate(-13.17 -3.26)"/><path d="M104.47,128.87l69.2-48.79,10-7.07c3.13-2.21.14-7.41-3-5.18l-69.2,48.79-10,7.07c-3.13,2.21-.14,7.41,3,5.18Z" transform="translate(-13.17 -3.26)"/><path d="M16.49,100.94l74.59,55.94,10.74,8.05c3.09,2.32,6.08-2.89,3-5.18L30.26,103.81l-10.74-8c-3.09-2.32-6.09,2.89-3,5.18Z" transform="translate(-13.17 -3.26)"/><path d="M105.79,164.6,175,115.81l10-7.08c3.13-2.21.14-7.41-3-5.18l-69.2,48.79-10,7.07c-3.13,2.21-.14,7.42,3,5.19Z" transform="translate(-13.17 -3.26)"/><path d="M17.19,132.6l74.59,55.94,10.74,8.05c3.09,2.32,6.09-2.89,3-5.18L31,135.47l-10.74-8c-3.09-2.32-6.08,2.89-3,5.18Z" transform="translate(-13.17 -3.26)"/><path d="M107,196.59l69.2-48.79,10-7.07c3.13-2.21.14-7.41-3-5.18L114,184.34l-10,7.07c-3.13,2.21-.14,7.41,3,5.18Z" transform="translate(-13.17 -3.26)"/></svg>