<?xml version="1.0" encoding="utf-8"?>
<!-- Generator: Adobe Illustrator 21.1.0, SVG Export Plug-In . SVG Version: 6.00 Build 0)  -->
<svg version="1.1" id="Layer_1" xmlns="http://www.w3.org/2000/svg" xmlns:xlink="http://www.w3.org/1999/xlink" x="0px" y="0px"
	 viewBox="0 0 1600 1600" style="enable-background:new 0 0 1600 1600;" xml:space="preserve">
<style type="text/css">
	.st0{fill:#FFFFFF;}
	.st1{fill:#FBB03B;}
</style>
<g>
	<g>
		<path class="st0" d="M1506.7,898.7c4.5-23.1-17.4-42.7-38.5-53.2c-86.4-42.7-191-22.6-279.7,15.1c-24,10.2-47.9,21.9-66.9,39.8
			c-22.3,21.1-36.2,49.4-47.2,78.1c-20.6,53.6-32.5,111.7-24.1,168.5c8.4,56.8,39.3,111.8,88.9,140.6
			c33.3,19.3,72.3,25.7,110.4,30.7c16.4,2.1,33.2,4,49.4,0.9c37.3-7.1,64.3-38.5,88.2-67.9c43.3-53.2,86.5-106.5,129.8-159.7
			c13.3-16.4,27-33.7,30.9-54.4c9.5-51.4-44.4-96.3-41.9-148.5"/>
		<g>
			<path d="M1509.6,899.5c4-23.5-14.6-42-33.3-53c-21.9-12.8-47.6-20.4-72.5-24.4c-52.8-8.5-107.1-0.7-157.9,14.5
				c-25.5,7.7-50.7,17.2-74.8,28.5c-24.2,11.3-47,25.7-64,46.7c-16.6,20.5-27.7,44.8-36.9,69.4c-10.2,27.2-18.1,55.4-22.3,84.2
				c-7.5,51.7-2.4,105.4,22.1,152.1c10.8,20.6,25.1,39.5,42.7,54.8c19.1,16.5,41.6,27.9,65.6,35.2c26.8,8.2,54.9,12.2,82.7,15.2
				c13.9,1.5,28.1,2,41.8-1.2c11.5-2.6,22.4-7.7,32.2-14.2c20.2-13.3,36.2-31.8,51.3-50.3c19.7-24.1,39.3-48.4,59-72.6
				c19.9-24.6,39.9-49.1,59.8-73.7c16.4-20.2,36.6-40.7,44-66.3c13-44.8-22.5-83.9-35.5-124.1c-3.3-10.3-5.2-20.8-4.8-31.6
				c0.1-3.9-5.9-3.9-6,0c-1.6,43.3,30.9,76.9,40.7,117.3c2.5,10.5,3.3,21.4,1,32c-2.6,12.3-8.8,23.3-15.9,33.4
				c-8,11.4-17.1,21.9-25.9,32.7c-9.4,11.6-18.9,23.3-28.3,34.9c-18.9,23.3-37.8,46.5-56.7,69.8c-17.1,21.1-33.7,42.8-51.9,62.9
				c-15.4,17-33.2,33.4-55.3,41.2c-26,9.2-54.7,3.6-81.1-0.5c-26.1-4-52.5-9.6-76.5-21c-21.3-10-39.9-24.6-55-42.6
				c-31.2-37-46.3-85.2-47.5-133.1c-1.3-54.8,13.5-111.1,36.8-160.5c10.9-23.1,25.2-44.7,45.4-60.7c20.5-16.1,45-26.7,69-36.3
				c48-19.1,99.1-32.7,151-33.7c25.4-0.5,50.8,2.1,75.3,8.9c23,6.4,48.3,15.7,64.8,33.7c7.7,8.4,12.8,19.1,10.8,30.7
				C1503.1,901.7,1508.9,903.3,1509.6,899.5L1509.6,899.5z"/>
		</g>
	</g>
	<g>
		<path class="st1" d="M1318,1056.4c3.7-21.2-19-36.6-38.4-46c-3.9-1.9-8.5-3.8-12.5-2c-2.2,1-3.8,3-5.2,5
			c-15.3,21.1-24.9,52.2-7.7,71.8c12,2.3,24.8,3.3,36.1-1.4C1301.6,1079.2,1319.7,1068.5,1318,1056.4"/>
		<g>
			<path d="M1320.9,1057.2c2.5-17.2-9.1-30.2-22.4-39.4c-7-4.8-15.3-10.2-23.5-12.5c-9.4-2.6-14.4,4.2-18.9,11.4
				c-9.4,14.7-16.2,33.1-13.3,50.7c1,6.2,4.4,17.6,10.7,20.6c3.8,1.8,10.6,1.7,14.7,1.9c5.2,0.3,10.4,0,15.5-1
				c9.2-1.9,18.2-6.7,25.6-12.4c6.3-4.8,12.5-11.6,11.7-20.2c-0.4-3.8-6.4-3.8-6,0c1.1,12.2-16,20.7-25.4,24.6
				c-7.9,3.2-16.5,3.6-24.9,2.8c-4.9-0.5-8.5-0.3-11.2-4.6c-1.8-2.9-3.2-6-4-9.3c-3.7-13.7,0.5-28.7,6.7-41c1.6-3.1,3.3-6.2,5.2-9.1
				c2.1-3.3,4.7-8.5,9-9.1c3.8-0.5,8.3,2.5,11.6,4.2c3,1.5,5.9,3.2,8.8,4.9c12.4,7.6,26.9,19.5,24.5,35.8
				C1314.5,1059.4,1320.3,1061,1320.9,1057.2L1320.9,1057.2z"/>
		</g>
	</g>
	<g>
		<g>
			<path d="M67.4,379.8c-15.1-14.8-16.3-34.8-10-54.1c3-9.1,7.3-17.8,12-26.1c5.3-9.3,10.3-18,22.2-17.4c3.9,0.2,3.8-5.8,0-6
				c-11.3-0.6-18.3,5.4-24,14.6c-6.2,10-11.6,20.6-15.5,31.6c-7.5,21.8-6.1,44.8,11,61.6C65.9,386.7,70.2,382.5,67.4,379.8
				L67.4,379.8z"/>
		</g>
	</g>
	<g>
		<g>
			<path d="M1040.1,864.8c3.9,0,3.9-6,0-6C1036.2,858.8,1036.2,864.8,1040.1,864.8L1040.1,864.8z"/>
		</g>
	</g>
	<g>
		<g>
			<path d="M99.3,317.2c-3.2-3.1-2.3-7.9-2.8-12c-0.4-3.3-1.2-6.4-2.1-9.6c-1.6-5.7-2.3-10.1,0.1-15.7c1.5-3.6-4.3-5.1-5.8-1.6
				c-2.8,6.6-2,12.2-0.1,18.9c1.2,4.2,2,8.4,2.3,12.7c0.3,4.6,0.7,8.1,4.1,11.5C97.8,324.2,102.1,319.9,99.3,317.2L99.3,317.2z"/>
		</g>
	</g>
	<g>
		<path class="st1" d="M90.6,280c-5.7-0.9-13.5,3.7-17.1,8.2c-6.6,8.5-6.2,9.5-11.3,19.8c-1.5,3-3.9,9.9-5,13
			c-0.9,2.5-2.8,5.5-3.3,8.1c-1.2,7-3.2,17.8-2,24.7c1.6,9.1,3.9,16.1,10,23c0.3,0.4,3.1,2.2,3.5,2.3c1.2,0.4,0.6-0.9,1.2-2
			c3.7-6.4,5.8-10.2,9.5-16.6c1.7-3,5.4-9.5,6.9-12.6c3.3-6.4,4-7,6.5-13.7c1.3-3.6,5.6-10.4,5.8-14.2c0.1-2.6-1.3-7.3-1.9-9.9
			c-3.4-14-5.6-20.5-3.9-31.2c-0.6,0,0.7,0.3,0.5,0.8"/>
	</g>
	<g>
		<path class="st0" d="M1506.4,885.1c-4.1-17.1-21.4-31.2-38.2-39.5c-86.4-42.7-191-22.6-279.7,15.1c-24,10.2-47.9,21.9-66.9,39.8
			c-22.3,21.1-36.2,49.4-47.2,78.1c-20.6,53.6-32.5,111.7-24.1,168.5c8.4,56.8,39.3,111.8,88.9,140.6
			c-58.9-24.8-131.7-72.9-156-132.1c-23.7-57.7-6.5-123.2,10.9-183c14.1-48.7,29.7-99.7,66.5-134.6c27.2-25.7,63.2-39.7,99.2-50.1
			c60.4-17.3,124.3-25.9,186.1-15.1c61.9,10.8,119,49,155.2,100.3"/>
		<g>
			<path d="M1509.2,884.3c-6.7-25.7-33.8-39.8-56.5-48.8c-26.4-10.5-54.7-15.7-83.1-16.7c-58.9-2.1-117.6,12.9-171.8,34.8
				c-26.8,10.8-54.1,22.9-75.9,42.5c-21.1,18.9-35,44.2-45.8,70.1c-24,57.3-38.2,121.2-28.5,183.3c7.8,50.2,33,99.1,73.9,130.1
				c5.2,3.9,10.6,7.5,16.2,10.8c1-1.7,2-3.5,3-5.2c-27.4-11.6-53.7-26.1-78-43.4c-24.7-17.6-48.1-38.7-64.7-64.3
				c-39.8-61.6-20.5-137.1-1.6-202.3c9-31.2,18.2-62.7,33.7-91.4c16-29.6,38.8-53.1,68.5-69c31-16.6,66.1-26.2,100.3-33.5
				c37.2-8,75.3-11.9,113.3-9.3c33.8,2.3,66.6,10.1,96.9,25.6c28.2,14.5,53.5,34.4,74.4,58.2c5.3,6.1,10.3,12.4,15,19
				c2.2,3.1,7.4,0.1,5.2-3c-37.6-52.8-95.5-91.5-159.8-102.2c-38.4-6.4-77.5-5.4-115.8,0.3c-36.9,5.5-74.3,14.6-108.9,28.8
				c-31.5,12.9-59.7,31.6-79.9,59.3c-19.6,26.8-31.2,58.5-40.9,89.9c-10.8,34.9-21.4,70.3-26.7,106.5c-5.1,35.3-4.4,72.1,10.1,105.3
				c12.2,27.9,33.5,51.3,56.6,70.7c24.1,20.3,51.2,37.2,79.5,51c6.5,3.2,13.2,6.2,19.9,9c3.4,1.5,6.5-3.2,3-5.2
				c-43.7-25.6-72.1-71-83.8-119.5c-13.9-57.8-3.7-118.8,15.8-174c9.4-26.5,20.7-53.4,38.5-75.4c17.8-22,42-36.4,67.5-47.9
				c51.4-23.2,107.3-40.2,164-43.1c30.4-1.6,61.1,1.2,90.3,9.9c25.9,7.8,62.8,21.6,70.5,51C1504.4,889.6,1510.2,888,1509.2,884.3
				L1509.2,884.3z"/>
		</g>
	</g>
	<g>
		<path class="st0" d="M1159.8,787.9c60.4-17.3,124.3-25.9,186.1-15.1c61.9,10.8,119,49,155.2,100.3"/>
		<g>
			<path d="M1160.6,790.8c51-14.6,104.3-23,157.4-18.6c46.7,3.9,90.3,19.8,127.8,48.1c20.2,15.3,38.1,33.7,52.8,54.3
				c2.2,3.1,7.4,0.1,5.2-3c-26.4-37.1-62.6-67.1-104.2-85.5c-46.6-20.6-98.9-24.1-149.1-19.2c-31,3.1-61.5,9.5-91.4,18
				C1155.3,786,1156.9,791.8,1160.6,790.8L1160.6,790.8z"/>
		</g>
	</g>
	<g>
		<path class="st0" d="M91.6,279.1c4.2,0.3,8.5,1.5,12.5,2.7C249,325.2,389.6,381.6,529.8,438c27.1,10.9,54.3,21.9,79.1,37.3
			c28,17.4,52.4,40,77.4,61.5c32.7,28,66.9,54.3,101,80.5c62.5,48,125,96,187.6,144.1c32.1,24.7,58.7,50.7,95.3,68.1l-3.6,2.9
			c-3.3,2.6-3,2.5-6.1,5.5c-24.6,23.3-39.6,54.8-51.1,87.1l-0.1-1c-22.5-17-42.7-33.8-65.2-50.7C835,790.8,725.9,708.4,616.7,626
			c-34.8-26.3-69.8-52.7-108.4-72.8c-32.1-16.8-66.3-29-100.4-41.3C308,476.1,208,440.3,108.1,404.5c-15.2-5.4-31.5-11.8-42.9-22.6
			l0.8-1.6c8.2-11.3,12.7-23.5,19.2-34.8c6.5-11.3,6.3-13.7,11.9-26.2"/>
		<g>
			<path d="M91.6,282.1c9.4,1,18.6,4.6,27.5,7.4c9,2.8,18,5.6,26.9,8.4c17.9,5.7,35.8,11.6,53.6,17.6c35.3,12,70.4,24.6,105.4,37.6
				c70,26,139.3,53.8,208.5,81.6c33.8,13.6,68.5,26.5,99.1,46.6c30,19.6,55.9,44.8,83.3,67.7c58.1,48.7,119.4,93.7,179.5,139.9
				c30.5,23.4,60.9,46.8,91.4,70.2c26.4,20.3,51.2,43.1,79.5,60.8c7.2,4.5,14.6,8.5,22.2,12.2c-0.2-1.6-0.4-3.1-0.6-4.7
				c-30.7,25-48.4,60.1-61.5,96.7c2,0.3,3.9,0.5,5.9,0.8c-0.2-2.2-0.7-2.9-2.4-4.2c-4.1-3.3-8.3-6.4-12.5-9.6c-7-5.5-14-11-21-16.5
				c-13.7-10.8-27.5-21.4-41.4-31.9c-29.5-22.3-59.1-44.6-88.6-66.9c-59.1-44.6-118.2-89.2-177.3-133.9
				c-28.7-21.7-57.2-43.7-86.3-64.8c-28.1-20.4-57.1-39.4-88.5-54.2c-31.8-15-65-26.5-98-38.3c-34.9-12.5-69.8-25-104.6-37.5
				s-69.8-25-104.6-37.5c-17.6-6.3-35.2-12.6-52.8-18.9c-15.9-5.7-32.4-10.7-47.6-18.1c-7-3.4-13.6-7.5-19.4-12.9
				c0.2,1.2,0.3,2.4,0.5,3.6c2.6-5.2,6.3-9.8,9-15c3.2-6,6-12.3,9.3-18.3c5.2-9.6,9.2-19.3,13.7-29.3c1.6-3.5-3.6-6.6-5.2-3
				c-4.4,10-8.4,19.7-13.7,29.3c-3.1,5.7-5.8,11.7-8.9,17.5c-2.8,5.4-6.6,10.3-9.4,15.8c-0.6,1.2-0.5,2.7,0.5,3.6
				c10.6,9.8,23.9,15.8,37.3,20.9c16.6,6.3,33.5,12.1,50.3,18.1c34.9,12.5,69.8,25,104.6,37.5c34.6,12.4,69.1,24.8,103.7,37.1
				c33.7,12.1,67.6,23.6,100.8,36.8c32.6,13,63.4,29.1,92.6,48.6c29.3,19.5,57.1,41.2,85.2,62.4c58.6,44.2,117.1,88.4,175.7,132.7
				c58.2,44,116.7,87.6,174.1,132.6c6.8,5.3,13.6,10.6,20.5,15.8c-0.5-0.9-1-1.7-1.5-2.6c0,0.3,0.1,0.7,0.1,1
				c0.4,3.3,4.7,4.1,5.9,0.8c12.9-35.7,30.1-69.7,60-94.1c1.4-1.2,1-3.9-0.6-4.7c-30.5-14.7-56-36.7-82.2-57.8
				c-29.3-23.6-59.6-46-89.4-68.9c-61.2-47-123.2-93.1-183.1-141.7c-28.1-22.8-54.4-47.9-83.3-69.7c-28.6-21.6-60.6-36.5-93.6-49.9
				c-69.6-28.2-139.4-56.2-209.7-82.7C260,329.6,189,304.5,117,282.6c-8.3-2.5-16.7-5.6-25.4-6.5C87.8,275.7,87.8,281.7,91.6,282.1
				L91.6,282.1z"/>
		</g>
	</g>
	<g>
		<path class="st0" d="M1506.4,885.1c-4.1-17.1-21.4-31.2-38.2-39.5c-86.4-42.7-191-22.6-279.7,15.1c-24,10.2-47.9,21.9-66.9,39.8
			c-22.3,21.1-36.2,49.4-47.2,78.1c-20.6,53.6-32.5,111.7-24.1,168.5c8.4,56.8,39.3,111.8,88.9,140.6
			c-58.9-24.8-131.7-72.9-156-132.1c-23.7-57.7-6.5-123.2,10.9-183c4.7-16.1,9.5-32.6,15.3-48.6"/>
		<g>
			<path d="M1509.2,884.3c-6.7-25.7-33.8-39.8-56.5-48.8c-26.4-10.5-54.7-15.7-83.1-16.7c-58.9-2.1-117.6,12.9-171.8,34.8
				c-26.8,10.8-54.1,22.9-75.9,42.5c-21.1,18.9-35,44.2-45.8,70.1c-24,57.3-38.2,121.2-28.5,183.3c7.8,50.2,33,99.1,73.9,130.1
				c5.2,3.9,10.6,7.5,16.2,10.8c1-1.7,2-3.5,3-5.2c-47.8-20.2-95-49.3-128.8-89.2c-17.9-21.2-30.2-45.6-34.9-73.1
				c-5.3-31-1.4-63,5.3-93.5c7.7-35.2,17.9-70.5,29.9-104.5c1.3-3.6-4.5-5.2-5.8-1.6c-11.1,31.2-20.3,63.4-27.9,95.6
				c-7.3,31-12.3,63.4-8.7,95.3c3.2,27.9,13.2,53.8,30.1,76.3c16.2,21.6,36.7,39.8,58.6,55.6c24.6,17.7,51.3,32.5,79.2,44.3
				c3.4,1.5,6.5-3.2,3-5.2c-43.7-25.6-72.1-71-83.8-119.5c-13.9-57.8-3.7-118.8,15.8-174c9.4-26.5,20.7-53.4,38.5-75.4
				c17.8-22,42-36.4,67.5-47.9c51.4-23.2,107.3-40.2,164-43.1c30.4-1.6,61.1,1.2,90.3,9.9c25.9,7.8,62.8,21.6,70.5,51
				C1504.4,889.6,1510.2,888,1509.2,884.3L1509.2,884.3z"/>
		</g>
	</g>
	<g>
		<g>
			<path d="M1043.5,858.6c-47.2-49.4-102.4-90-158.5-128.6c-56.9-39.1-115.3-76.4-168.9-119.9c-29.1-23.6-55.6-50-84.3-73.9
				c-27.9-23.3-58.4-43.1-90.3-60.5c-32.2-17.6-65.6-32.7-99.4-47c-35.3-15-71-29-107.1-42c-36.4-13.2-73.2-25.3-110.3-36.5
				c-18.5-5.6-37.2-10.9-55.9-16c-16.5-4.5-33.1-9.7-50.1-11.8c-6.2-0.8-14.4-1.1-19.5-5.2c-3-2.4-7.3,1.9-4.2,4.2
				c10.1,7.9,25.3,6.4,37.2,9.4c18.8,4.7,37.5,9.8,56.1,15c37.3,10.5,74.3,22.1,110.9,34.6c72.1,24.7,143.8,52.4,212.1,86.3
				c32.6,16.2,64.4,34.5,93.8,56.1c31,22.8,58.1,50.2,87.3,75.3c51.9,44.7,109.2,82.5,165.8,120.9c56.9,38.6,113.7,78.1,163.2,125.9
				c6.1,5.9,12,11.8,17.8,17.9C1042,865.7,1046.2,861.4,1043.5,858.6L1043.5,858.6z"/>
		</g>
	</g>
</g>
</svg>
