<?xml version="1.0" encoding="utf-8"?>
<!-- Generator: Adobe Illustrator 21.1.0, SVG Export Plug-In . SVG Version: 6.00 Build 0)  -->
<svg version="1.1" id="Layer_1" xmlns="http://www.w3.org/2000/svg" xmlns:xlink="http://www.w3.org/1999/xlink" x="0px" y="0px"
	 viewBox="0 0 1600 1600" style="enable-background:new 0 0 1600 1600;" xml:space="preserve">
<style type="text/css">
	.st0{fill:#EA590C;}
	.st1{fill:#FFFFFF;}
</style>
<g>
	<g>
		<path class="st0" d="M335.7,60c-48.1-12.3-80.9-6.6-132.1-0.2C150,66.6,96.9,92.9,68.1,138.6c63.7,38.5,142.6,38.2,217,36.7
			c29-0.6,59.3-1.5,84.8-15.3s44-45.1,33.7-72.2c-12.3-13.5-61.1-25.9-78.4-30.2"/>
		<g>
			<path d="M336.4,57.1c-19.7-5-39.9-7.6-60.2-7.4c-20.5,0.3-40.9,3-61.3,5.6c-19.4,2.5-38.4,5.6-57,12
				c-17.6,6.1-34.5,14.4-49.7,25.2c-17,12-31.6,27-42.8,44.5c-0.9,1.4-0.3,3.3,1.1,4.1c63.2,37.8,139.4,38.5,210.8,37.3
				c34.7-0.6,74.6,0,103.5-22.2c11.8-9,21.3-21.5,25.8-35.8c2.2-7,3.2-14.6,2.4-21.9c-0.6-5.9-1.6-11.8-6.4-15.6
				c-10.5-8.4-24.4-12.9-37-17.1c-13.1-4.3-26.4-7.9-39.8-11.2c-3.7-0.9-5.3,4.9-1.6,5.8c22.4,5.6,46.1,11.2,66.6,22.1
				c3.7,2,9.2,4.5,10.6,8.7c2.2,7,2.4,14.5,1,21.6c-2.9,14.5-11.7,27.5-23,36.9c-26.8,22.5-65.7,22-98.8,22.7
				c-34.1,0.6-68.4,0.9-102.4-2.8c-38.1-4.1-75.8-13.8-108.8-33.6c0.4,1.4,0.7,2.7,1.1,4.1c19.7-30.8,50.5-52.8,84.5-65.4
				c17.5-6.5,35.6-10.3,54.1-12.6c19.6-2.5,39.3-5.3,59.1-6.1c22.5-0.9,44.6,1.4,66.4,6.9C338.6,63.8,340.2,58,336.4,57.1
				L336.4,57.1z"/>
		</g>
	</g>
	<g>
		<path class="st0" d="M339.3,60.9c-1.2-0.3-2.4-0.7-3.6-1"/>
		<g>
			<path d="M340.1,58c-1.2-0.3-2.4-0.6-3.6-1c-1.5-0.4-3.3,0.5-3.7,2.1c-0.4,1.6,0.5,3.3,2.1,3.7c1.2,0.3,2.4,0.6,3.6,1
				c1.5,0.4,3.3-0.5,3.7-2.1C342.5,60.1,341.7,58.5,340.1,58L340.1,58z"/>
		</g>
	</g>
	<g>
		<path class="st0" d="M342.5,61.8c-1.1-0.3-2.1-0.6-3.2-0.9"/>
		<g>
			<path d="M343.3,58.9c-1.1-0.3-2.1-0.6-3.2-0.9c-1.5-0.4-3.3,0.5-3.7,2.1c-0.4,1.6,0.5,3.3,2.1,3.7c1.1,0.3,2.1,0.6,3.2,0.9
				c1.5,0.4,3.3-0.5,3.7-2.1C345.7,61,344.9,59.4,343.3,58.9L343.3,58.9z"/>
		</g>
	</g>
	<g>
		<path class="st0" d="M1530.4,506.4c0.7-8.1,0.3-16.1-2.1-23.8c-7.6-23.6-32.2-36.8-55.1-46.4c-142.4-59.7-303.6-73.3-454-38.4
			c-31.1,7.2-68.9,26.4-64.8,58.2c3.3,25.7,32.3,38.3,56.9,46.1c172.8,54.5,380.1,103.2,520-12"/>
		<g>
			<path d="M1533.4,506.4c1.7-21.9-6.4-40.1-23.7-53.5c-16.2-12.6-36-20-54.9-27.3c-45.5-17.5-92.7-30.5-140.8-38.8
				c-94.9-16.3-192.8-14.5-286.9,6.1c-18.6,4.1-37.2,9.5-53,20.6c-13.1,9.2-24,23-23,39.8c2.3,38.5,51.9,49.3,81.4,58.3
				c80.9,24.7,164,46.2,248.8,50.8c79.3,4.3,161.4-8,228.5-52.9c8.1-5.4,16-11.3,23.6-17.5c3-2.4-1.3-6.7-4.2-4.2
				c-60.5,49.5-137.3,69-214.3,69.5c-81,0.5-161.3-17.1-238.8-39c-19.2-5.4-38.3-11.2-57.4-17.1c-16.8-5.3-35-10.8-48.4-22.8
				c-13-11.6-17.5-29.7-7.8-44.9c9.2-14.4,26.4-22.9,42-28.3c20.2-7,42-10.4,63-13.8c23.1-3.7,46.3-6.4,69.6-7.9
				c46.3-3,92.8-1.7,138.9,3.8c46.1,5.6,91.6,15.5,135.8,29.5c21.8,6.9,43.5,14.8,64.5,24c16.8,7.4,34.9,16.9,44.7,33.1
				c6,9.9,7.2,21.1,6.4,32.5C1527.1,510.3,1533.1,510.3,1533.4,506.4L1533.4,506.4z"/>
		</g>
	</g>
	<g>
		<path class="st0" d="M460.6,576.2c17.4,4.1,20.7,13.8,39.6,17.3"/>
		<g>
			<path d="M459.8,579.1c7.3,1.8,13.2,5.3,19.5,9.2c6.3,3.9,12.8,6.6,20.1,8.1c3.8,0.7,5.4-5,1.6-5.8c-14.6-2.9-25.3-13.7-39.6-17.3
				C457.7,572.3,456.1,578.1,459.8,579.1L459.8,579.1z"/>
		</g>
	</g>
	<g>
		<path class="st0" d="M459.3,576.2c73.5,44.8,226.4,71.8,308.9,47.4c17.7-5.2,36.7-13.6,44-30.6c8.1-18.8-2.1-41.5-18.4-54
			s-37.2-16.8-57.4-20.2c-96.2-16.3-198.9-17.2-286.9,24.9c-2.5,11.1,0.7,23.4,8.3,31.9c1,0.2,2,0.4,2.9,0.6"/>
		<g>
			<path d="M457.8,578.8c41.8,25.3,91.1,38.9,138.8,47.7c49.4,9.1,101.8,13.7,151.6,4.8c22.3-4,49.8-10.8,63.3-30.7
				c15.8-23.3,0.9-53.2-20.2-67.1c-12.7-8.4-27.7-12.6-42.5-15.6c-15.6-3.1-31.4-5.4-47.1-7.3c-32.7-4.1-65.7-6.1-98.6-4.9
				c-32.2,1.1-64.4,5.3-95.6,13.6c-15.4,4.1-30.5,9.2-45.1,15.4c-3.8,1.6-7.5,3.2-11.2,4.9c-3.6,1.7-4.5,2.3-5.1,6.3
				c-1,6.7-0.1,13.6,2.3,19.9c1.2,3.1,2.8,6.1,4.8,8.8c2.1,2.8,3.2,3.6,6.6,4.4c3.8,0.8,5.4-4.9,1.6-5.8c-6.4-1.4-9.2-13.2-9.6-18.8
				c-0.2-2.3-0.8-7.2,0.8-9c0.9-1,3.5-1.6,4.8-2.2c1.9-0.8,3.7-1.7,5.6-2.5c14.1-6.1,28.7-11,43.6-15.1c29.2-8,59.3-12.3,89.5-13.7
				c30.2-1.5,60.6-0.2,90.7,2.9c15.2,1.6,30.4,3.7,45.5,6.2c14,2.3,28.2,4.8,41.4,10.1c13.4,5.4,25.4,13.8,32.6,26.6
				c6.4,11.5,8.4,25.7,1.6,37.5c-11.5,20-39.5,26.4-60.6,30.2c-46.2,8.3-95,4.5-141-3.3c-45.4-7.7-91.7-19.9-132.7-41.4
				c-4.3-2.2-8.5-4.6-12.6-7.1C457.5,571.6,454.5,576.8,457.8,578.8L457.8,578.8z"/>
		</g>
	</g>
	<g>
		<path class="st0" d="M1530.4,506.4c0.4-5,0.5-9.9-0.2-14.7"/>
		<g>
			<path d="M1533.4,506.4c0.4-4.9,0.4-9.8-0.2-14.7c-0.4-3.8-6.4-3.8-6,0c0.6,4.9,0.6,9.8,0.2,14.7
				C1527.1,510.3,1533.1,510.3,1533.4,506.4L1533.4,506.4z"/>
		</g>
	</g>
	<g>
		<path class="st1" d="M1530.4,506.4c-0.7,8.1-2.5,16.2-4.2,24.1c-61.3,274.5-122.6,549-183.9,823.5c-6.3,28.4-13,57.6-29.5,81.6
			c-34.8,50.5-102,64.4-162.6,74c-293.1,46.1-617.2,78.6-864.5-85.3C255.2,877.5,237.3,667.5,68.1,138.6
			c63.7,38.5,142.6,38.2,217,36.7c29-0.6,59.3-1.5,84.8-15.3s44-45.1,33.7-72.2c45.1,161,82.2,285.9,129.6,427.7l-1.3,1.4
			c-28.4,5.6-56,14.4-82.3,27c-2.5,11.1,0.7,23.4,8.3,31.9c1,0.2,2,0.4,2.9,0.6h-1.3c73.5,44.8,226.4,71.8,308.9,47.4
			c17.7-5.2,36.7-13.6,44-30.6c1.8-4.2,2.7-8.6,2.8-13l0,0c16.5,106.4,51.8,227,94.3,325.9c16.2-153.6,38.3-301.5,44.7-455.8
			l0.3,5.9c3.3,25.7,32.3,38.3,56.9,46.1c172.8,54.5,377.8,103.7,517.7-11.5"/>
		<g>
			<path d="M1527.4,506.4c-1.9,18.9-7.3,37.6-11.4,56c-4,18-8.1,36.1-12.1,54.1c-8.2,36.6-16.3,73.1-24.5,109.7
				c-16.2,72.7-32.4,145.3-48.7,218s-32.4,145.3-48.7,218c-8.1,36.1-16.1,72.2-24.2,108.3c-7.9,35.3-15,70.8-23.9,105.8
				c-7.8,30.4-19.8,59.2-44,80.1c-20.8,18-46.8,28.8-73,36.3c-27.2,7.7-55.1,12-83,16.3c-31.1,4.8-62.3,9.4-93.5,13.6
				C918.3,1539,794.3,1549.6,671,1541c-120.1-8.3-240-36.1-345.4-95.8c-13.1-7.4-25.8-15.3-38.4-23.5c0.5,0.9,1,1.7,1.5,2.6
				c-5.3-95.7-10.8-191.4-17.7-287.1c-5.8-79.9-12.7-159.7-22.1-239.2c-8.8-73.6-19.8-146.9-33.7-219.7
				c-14.8-77.8-32.8-155-52.9-231.6c-23.9-90.8-50.8-180.9-79-270.4c-4.1-12.9-8.1-25.7-12.2-38.6c-1.5,1.1-2.9,2.3-4.4,3.4
				c48,28.6,104.1,36.1,159,37.3c28.5,0.7,57.3,0.7,85.7-1.2c25.5-1.7,52.6-6.6,72.7-23.6c19-16,31.1-42.4,22.4-66.9
				c-1.3-3.6-6.8-2.2-5.8,1.6c31.5,112.5,64.1,224.8,99.7,336.1c9.8,30.6,19.8,61.1,30,91.5c0.3-1,0.5-1.9,0.8-2.9
				c-1.7,1.7-5.7,1.7-8,2.3c-3.5,0.8-7,1.6-10.6,2.5c-6.1,1.5-12.2,3.2-18.3,5.1c-12.4,3.8-24.5,8.3-36.4,13.5
				c-3.4,1.5-9.6,2.8-11.3,6.3c-1.9,4.1-1.1,10.9-0.4,15.2c1.3,7.8,5.2,19.1,13.6,21c0.3-2,0.5-3.9,0.8-5.9c-0.4,0-0.9,0-1.3,0
				c-3,0-4,4.1-1.5,5.6c43.7,26.4,95.5,40.3,145.5,48.9c49.9,8.6,103.3,12.9,153.2,2c26.7-5.8,59.5-18,61.6-49.7
				c-1.3,1-2.5,1.9-3.8,2.9c0,0,0,0,0,0c-0.7-0.7-1.4-1.4-2.1-2.1c13.8,88.3,37.3,175.3,67.9,259.2c8.3,22.7,17.2,45.2,26.7,67.5
				c1.3,3.1,5.3,1,5.6-1.5c12.5-118,28.8-235.6,38.4-353.9c2.7-33.9,4.9-67.9,6.4-101.9c-2,0-4,0-6,0c2,37.9,41.8,49.4,72.3,58.9
				c42.6,13.2,85.6,25.5,129.2,35.1c83.1,18.4,171.6,28.9,255.4,8.9c45.1-10.8,87.2-31,123.1-60.4c3-2.4-1.3-6.7-4.2-4.2
				c-63.3,51.7-143.8,70.5-224.3,69.2c-84.4-1.4-167.6-21.6-248.1-45.5c-21.4-6.3-43.9-11.8-64.2-21.2
				c-17.8-8.3-32.1-20.3-33.2-40.8c-0.2-3.9-5.8-3.9-6,0c-5,118.6-19.5,236.5-33.3,354.3c-4,33.8-7.8,67.7-11.4,101.5
				c1.9-0.5,3.7-1,5.6-1.5C877,822.9,850.3,737.6,831.4,651c-5.2-23.8-9.7-47.7-13.5-71.8c-0.1-0.9-1.2-2-2.1-2.1c0,0,0,0,0,0
				c-2-0.3-3.7,0.8-3.8,2.9c-1.9,29.7-36,39.6-60.4,44.6c-22.7,4.6-46.1,5.6-69.1,5.1c-51.3-1.2-102.9-10.1-151.8-25.7
				c-24.2-7.7-48-17.2-69.8-30.4c-0.5,1.9-1,3.7-1.5,5.6c0.4,0,0.9,0,1.3,0c3.3,0,4.2-5.1,0.8-5.9c-7.5-1.7-12.5-20.5-8.8-26.6
				c2.4-3.9,11-6.1,15.1-7.8c5-2,10.1-4,15.2-5.8c9.4-3.3,18.9-6.2,28.5-8.7c5.2-1.4,10.5-2.6,15.8-3.7c3.3-0.7,5.6-0.8,8-3.2
				c0.7-0.7,1.1-1.9,0.8-2.9c-36.1-108-69.4-216.8-100.9-326.2c-9.7-33.8-19.3-67.6-28.7-101.4c-1.9,0.5-3.9,1.1-5.8,1.6
				c8,22.6-3.4,46.3-20.9,61c-20.5,17.2-48.9,20.9-74.7,22.1c-51.1,2.4-104.2,3.3-154.7-6.2c-28.4-5.3-55.9-14.6-80.8-29.5
				c-2.2-1.3-5.2,0.9-4.4,3.4c34.3,107.2,66.9,215,95.1,324c23.1,89.3,43.1,179.4,58.7,270.3c15.2,88.3,26.2,177.3,34.6,266.5
				c9.7,103,16.3,206.2,22.4,309.4c1.7,29.5,3.4,59,5.1,88.6c0.4,7.8,0.8,15.6,1.3,23.5c0.4,6,3.7,6.7,8.6,9.9
				c11.3,7.3,22.8,14.2,34.5,20.7c45.7,25.6,94.4,45.5,144.6,60.3c102.6,30.3,210.5,39.2,317.1,37.3c109.2-2,217.9-15.1,325.8-31.4
				c48.5-7.3,99.3-12.9,144.1-33.9c20.8-9.7,39.9-23.3,54-41.6c16.5-21.4,24.5-47.5,30.7-73.4c30.3-128,57.4-256.7,86.1-385.1
				c28.8-129.2,57.7-258.3,86.5-387.5c3.4-15.2,6.8-30.4,10.2-45.6c3.3-14.8,7.3-29.7,8.8-44.8
				C1533.8,502.6,1527.8,502.6,1527.4,506.4L1527.4,506.4z"/>
		</g>
	</g>
	<g>
		<g>
			<path d="M445.6,552.8c0.6,57.2,7.2,114.4,12.1,171.3c5.6,64.2,11.7,128.6,12.3,193.1c0.2,25.4,0.3,51.7-5.3,76.5
				c-0.9,3.8,4.9,5.4,5.8,1.6c4.9-21.6,5.4-44.1,5.5-66.1c0.2-30.2-1.3-60.4-3.3-90.6c-4.2-66.4-11-132.7-16.3-199
				c-2.3-28.9-4.6-57.9-4.9-86.9C451.6,548.9,445.6,548.9,445.6,552.8L445.6,552.8z"/>
		</g>
	</g>
</g>
</svg>
