<?xml version="1.0" encoding="utf-8"?>
<!-- Generator: Adobe Illustrator 21.1.0, SVG Export Plug-In . SVG Version: 6.00 Build 0)  -->
<svg version="1.1" id="Layer_1" xmlns="http://www.w3.org/2000/svg" xmlns:xlink="http://www.w3.org/1999/xlink" x="0px" y="0px"
	 viewBox="0 0 1600 1600" style="enable-background:new 0 0 1600 1600;" xml:space="preserve">
<style type="text/css">
	.st0{fill:#E04649;}
	.st1{fill:#FFFFFF;}
</style>
<g>
	<g>
		<g>
			<path class="st0" d="M1040.9,695.4c-272.3,31.2-472.8,97.1-713.3,194.3c-40.3,16.3-88.1,44.6-82.8,87.7
				c5.4,44,60.9,59.3,105.2,61.9c327.6,19.3,647.8-88.7,958.1-195.3c14.5-5,29.8-10.5,39.3-22.6c14.9-19,9.3-48.2-6.5-66.4
				c-15.9-18.2-39.3-27.6-62.3-34.9C1202.1,695.8,1120.7,687.3,1040.9,695.4"/>
			<g>
				<path d="M1040.9,692.4c-82.2,9.5-163.9,22.8-244.6,40.8C721.2,750,647,770.9,573.9,795c-75.4,24.8-149.7,52.9-223.4,82.3
					c-30.8,12.3-63.7,24.2-87.8,48.1c-10.2,10.1-18.4,22.7-20.6,37.1c-2.1,13.5,0.9,27.8,8.6,39.1c16.1,23.7,46.9,33.4,73.8,37.9
					c17.4,2.9,35.1,3.5,52.7,4.2c22.2,0.8,44.5,1.1,66.7,0.8c87.7-1.1,175.1-10.5,261.4-25.5c87.8-15.3,174.4-36.6,260.1-61
					c85.8-24.5,170.6-52.2,255.1-80.8c21.2-7.2,42.4-14.4,63.6-21.7c17.8-6.1,37.8-10.8,53.6-21.3c29.6-19.7,25.5-60.1,2.9-83.8
					c-12.4-13-28.7-21.3-45.3-27.6c-19.8-7.5-40.4-13.1-60.9-17.9c-42.3-9.9-85.8-15.1-129.2-15.4
					C1083.6,689.3,1062.2,690.3,1040.9,692.4c-3.8,0.4-3.8,6.4,0,6c83.3-8.4,170.5,0.2,249.4,28.9c17.3,6.3,34.6,14.7,47.2,28.6
					c11.5,12.6,18.2,31.2,14.6,48.2c-4,18.9-20.8,28.3-37.6,34.5c-19.5,7.1-39.3,13.5-58.9,20.2c-81.4,27.8-163,55-245.4,79.7
					C928,963.1,845,985.1,761,1002.2c-83.7,17.1-168.5,29.3-253.8,34c-42.6,2.4-85.4,3-128,1.4c-32.2-1.2-66-2.3-95.5-16.7
					c-12.3-6-23.8-14.5-30.4-26.7c-6.9-12.6-7.6-28-2.4-41.3c11.3-28.8,44-45.8,70.7-57.4c35.8-15.5,72.6-29.2,109.1-43.1
					c35.2-13.4,70.5-26.3,106.1-38.6c70-24.1,140.9-45.6,212.8-63.4c75.6-18.7,152.1-33.3,229.2-44.1c20.7-2.9,41.4-5.5,62.2-7.9
					C1044.7,698,1044.7,692,1040.9,692.4L1040.9,692.4z"/>
			</g>
		</g>
		<g>
			<path class="st0" d="M1040.9,695.4c-272.3,31.2-472.8,97.1-713.3,194.3c-40.3,16.3-88.1,44.6-82.8,87.7c2.9,23.4,20,38.8,42,48.3
				"/>
			<g>
				<path d="M1040.9,692.4c-67.9,7.8-135.5,18.2-202.5,31.8c-62.8,12.8-125,28.3-186.5,46.4c-60.8,17.9-120.9,38.2-180.4,60.1
					c-30.8,11.3-61.5,23.1-92.1,35.1c-28.3,11.1-57.7,21.1-84.3,36c-21.1,11.8-43.2,28.4-51.1,52.3c-8,24.6,2.9,49.5,23.2,64.1
					c5.6,4,11.7,7.3,18,10.1c3.5,1.5,6.6-3.6,3-5.2c-24.1-10.6-44.9-31.2-40.4-59.6c4-25.1,26.5-42.7,47.1-54.7
					c25.9-15.1,54.9-24.9,82.7-35.8c29.6-11.6,59.2-23,89-34.1c57.5-21.2,115.4-41.1,174.1-58.7c59.1-17.7,118.8-33.1,179.1-46
					c64.4-13.7,129.5-24.5,194.8-32.7c8.7-1.1,17.4-2.1,26.1-3.1C1044.7,698,1044.7,692,1040.9,692.4L1040.9,692.4z"/>
			</g>
		</g>
		<g>
			<path class="st1" d="M1326.9,837.7C1214.8,959,993.6,1048,817.3,1097.5c-181.1,50.9-380.5,33.5-533-73.1l2.4,1.3
				c19.3,8.4,42.5,12.4,63.2,13.6c327.6,19.3,647.8-88.7,958.1-195.3c7.3-2.5,14.7-5.1,21.5-8.6"/>
			<g>
				<path d="M1324.8,835.6c-45.8,49.4-102.6,87.9-161.1,120.7c-65.1,36.5-133.8,66.4-203.8,92.1c-33.8,12.4-68,23.9-102.5,34.4
					c-35.1,10.7-70.5,20.6-106.6,27.3c-75.4,14-153.3,16.3-229.1,4.5c-74.9-11.6-147.6-37-212.1-77.1c-8-5-15.9-10.2-23.6-15.6
					c-1,1.7-2,3.5-3,5.2c12.6,6.8,27.4,10.1,41.4,12.4c16.4,2.7,32.9,3.4,49.5,4.1c35.3,1.4,70.6,1.4,105.8,0.1
					c70.3-2.6,140.4-10.4,209.8-22c70.2-11.7,139.8-27.3,208.7-45.3c69.3-18.2,138-38.8,206.2-60.8c68.1-21.9,135.9-45,203.6-68.3
					c7.9-2.7,15.7-5.5,23.2-9.3c3.5-1.7,0.4-6.9-3-5.2c-15.8,7.9-33.4,12.6-50,18.3c-16.7,5.7-33.3,11.4-50,17.1
					c-33.5,11.4-67,22.6-100.5,33.5c-67.2,21.9-134.8,42.7-203,61.3c-67.8,18.5-136.3,34.7-205.4,47.3
					c-69.1,12.6-138.8,21.7-208.9,25.7c-34.9,2-69.8,2.8-104.7,2.3c-33.5-0.5-68.5-0.1-101-9.6c-6.3-1.8-12.8-3.9-18.6-7
					c-3.4-1.9-6.2,3-3,5.2c62.8,43.7,134.6,73.2,209.5,88.4c75.1,15.2,152.6,16.2,228.3,5.6c73.8-10.4,145.6-33.2,215.8-57.8
					c70.7-24.8,140.2-53.7,206.5-88.7c60.8-32.1,120.1-69.7,169.6-117.7c5.6-5.5,11.1-11.1,16.5-16.8
					C1331.7,837,1327.4,832.7,1324.8,835.6L1324.8,835.6z"/>
			</g>
		</g>
	</g>
	<g>
		<g>
			<path class="st0" d="M1040.9,477.6c-272.3,31.2-472.8,97.1-713.3,194.3c-40.3,16.3-88.1,44.6-82.8,87.7
				c5.4,44,60.9,59.3,105.2,61.9c327.6,19.3,647.8-88.7,958.1-195.3c14.5-5,29.8-10.5,39.3-22.6c14.9-19,9.3-48.2-6.5-66.4
				c-15.9-18.2-39.3-27.6-62.3-34.9C1202.1,478,1120.7,469.5,1040.9,477.6"/>
			<g>
				<path d="M1040.9,474.6c-82.2,9.5-163.9,22.8-244.6,40.8c-75.1,16.8-149.3,37.7-222.4,61.7c-75.4,24.8-149.7,52.9-223.4,82.3
					c-30.8,12.3-63.7,24.2-87.8,48.1c-10.2,10.1-18.4,22.7-20.6,37.1c-2.1,13.5,0.9,27.8,8.6,39.1c16.1,23.7,46.9,33.4,73.8,37.9
					c17.4,2.9,35.1,3.5,52.7,4.2c22.2,0.8,44.5,1.1,66.7,0.8c87.7-1.1,175.1-10.5,261.4-25.5c87.8-15.3,174.4-36.6,260.1-61
					c85.8-24.5,170.6-52.2,255.1-80.8c21.2-7.2,42.4-14.4,63.6-21.7c17.8-6.1,37.8-10.8,53.6-21.3c29.6-19.7,25.5-60.1,2.9-83.8
					c-12.4-13-28.7-21.3-45.3-27.6c-19.8-7.5-40.4-13.1-60.9-17.9c-42.3-9.9-85.8-15.1-129.2-15.4
					C1083.6,471.5,1062.2,472.5,1040.9,474.6c-3.8,0.4-3.8,6.4,0,6c83.3-8.4,170.5,0.2,249.4,28.9c17.3,6.3,34.6,14.7,47.2,28.6
					c11.5,12.6,18.2,31.2,14.6,48.2c-4,18.9-20.8,28.3-37.6,34.5c-19.5,7.1-39.3,13.5-58.9,20.2c-81.4,27.8-163,55-245.4,79.7
					C928,745.3,845,767.3,761,784.5c-83.7,17.1-168.5,29.3-253.8,34c-42.6,2.4-85.4,3-128,1.4c-32.2-1.2-66-2.3-95.5-16.7
					c-12.3-6-23.8-14.5-30.4-26.7c-6.9-12.6-7.6-28-2.4-41.3c11.3-28.8,44-45.8,70.7-57.4c35.8-15.5,72.6-29.2,109.1-43.1
					c35.2-13.4,70.5-26.3,106.1-38.6c70-24.1,140.9-45.6,212.8-63.4c75.6-18.7,152.1-33.3,229.2-44.1c20.7-2.9,41.4-5.5,62.2-7.9
					C1044.7,480.2,1044.7,474.2,1040.9,474.6L1040.9,474.6z"/>
			</g>
		</g>
		<g>
			<path class="st0" d="M1040.9,477.6c-272.3,31.2-472.8,97.1-713.3,194.3c-40.3,16.3-88.1,44.6-82.8,87.7c2.9,23.4,20,38.8,42,48.3
				"/>
			<g>
				<path d="M1040.9,474.6c-67.9,7.8-135.5,18.2-202.5,31.8c-62.8,12.8-125,28.3-186.5,46.4C591,570.8,530.9,591.1,471.4,613
					c-30.8,11.3-61.5,23.1-92.1,35.1c-28.3,11.1-57.7,21.1-84.3,36c-21.1,11.8-43.2,28.4-51.1,52.3c-8,24.6,2.9,49.5,23.2,64.1
					c5.6,4,11.7,7.3,18,10.1c3.5,1.5,6.6-3.6,3-5.2c-24.1-10.6-44.9-31.2-40.4-59.6c4-25.1,26.5-42.7,47.1-54.7
					c25.9-15.1,54.9-24.9,82.7-35.8c29.6-11.6,59.2-23,89-34.1c57.5-21.2,115.4-41.1,174.1-58.7c59.1-17.7,118.8-33.1,179.1-46
					c64.4-13.7,129.5-24.5,194.8-32.7c8.7-1.1,17.4-2.1,26.1-3.1C1044.7,480.2,1044.7,474.2,1040.9,474.6L1040.9,474.6z"/>
			</g>
		</g>
		<g>
			<path class="st1" d="M1326.9,619.9c-112.1,121.3-333.3,210.3-509.6,259.8c-181.1,50.9-380.5,33.5-533-73.1l2.4,1.3
				c19.3,8.4,42.5,12.4,63.2,13.6c327.6,19.3,647.8-88.7,958.1-195.3c7.3-2.5,14.7-5.1,21.5-8.6"/>
			<g>
				<path d="M1324.8,617.8c-45.8,49.4-102.6,87.9-161.1,120.7c-65.1,36.5-133.8,66.4-203.8,92.1c-33.8,12.4-68,23.9-102.5,34.4
					c-35.1,10.7-70.5,20.6-106.6,27.3c-75.4,14-153.3,16.3-229.1,4.5c-74.9-11.6-147.6-37-212.1-77.1c-8-5-15.9-10.2-23.6-15.6
					c-1,1.7-2,3.5-3,5.2c12.6,6.8,27.4,10.1,41.4,12.4c16.4,2.7,32.9,3.4,49.5,4.1c35.3,1.4,70.6,1.4,105.8,0.1
					c70.3-2.6,140.4-10.4,209.8-22c70.2-11.7,139.8-27.3,208.7-45.3c69.3-18.2,138-38.8,206.2-60.8c68.1-21.9,135.9-45,203.6-68.3
					c7.9-2.7,15.7-5.5,23.2-9.3c3.5-1.7,0.4-6.9-3-5.2c-15.8,7.9-33.4,12.6-50,18.3c-16.7,5.7-33.3,11.4-50,17.1
					c-33.5,11.4-67,22.6-100.5,33.5c-67.2,21.9-134.8,42.7-203,61.3c-67.8,18.5-136.3,34.7-205.4,47.3
					c-69.1,12.6-138.8,21.7-208.9,25.7c-34.9,2-69.8,2.8-104.7,2.3c-33.5-0.5-68.5-0.1-101-9.6c-6.3-1.8-12.8-3.9-18.6-7
					c-3.4-1.9-6.2,3-3,5.2c62.8,43.7,134.6,73.2,209.5,88.4c75.1,15.2,152.6,16.2,228.3,5.6c73.8-10.4,145.6-33.2,215.8-57.8
					c70.7-24.8,140.2-53.7,206.5-88.7c60.8-32.1,120.1-69.7,169.6-117.7c5.6-5.5,11.1-11.1,16.5-16.8
					C1331.7,619.2,1327.4,615,1324.8,617.8L1324.8,617.8z"/>
			</g>
		</g>
	</g>
</g>
</svg>
