<?xml version="1.0" encoding="utf-8"?>
<!-- Generator: Adobe Illustrator 21.1.0, SVG Export Plug-In . SVG Version: 6.00 Build 0)  -->
<svg version="1.1" id="Layer_1" xmlns="http://www.w3.org/2000/svg" xmlns:xlink="http://www.w3.org/1999/xlink" x="0px" y="0px"
	 viewBox="0 0 1600 1600" style="enable-background:new 0 0 1600 1600;" xml:space="preserve">
<style type="text/css">
	.st0{fill:#8CAB67;}
	.st1{fill:#FFFFFF;}
</style>
<g>
	<path class="st0" d="M205.2,858.7c-26.4-15.4-43.3-20.9-73.7-24c-30.4-3-63.1,4.9-84.8,26.4C21.5,886,14.8,925.3,22,959.9
		s26.5,65.5,47.5,94c33.2,45.1,71.7,86.3,114.4,122.5c29.5,25,62.3,48.2,100,56.9s81.6,0,106.2-29.9c11.9-14.5,18.5-32.7,22.1-51.2
		c12.5-63.7-9.5-131.2-49.7-182.2S265.4,883.1,205.2,858.7"/>
	<g>
		<path d="M206.7,856.1c-16-9.3-32.7-17.1-50.9-20.9c-19-3.9-38.7-5.6-57.9-2.4c-18.8,3.2-37,11.1-51.1,24
			C33,869.5,24,886.6,19.7,904.6c-9.8,40.4,3.3,81.1,23.9,116c22.5,38.2,51.9,73.2,82.4,105.2c30.2,31.6,63.2,62.8,100.5,86
			c33.5,20.8,72.6,33.5,112.1,24.9c17.3-3.7,33.9-11.6,46.8-23.8c14.9-14.1,23.6-33.4,28.3-53.2c9.6-40.2,5-82.9-9.3-121.4
			c-29.3-78.8-96.3-135-170.6-170.2c-9.1-4.3-18.4-8.4-27.8-12.2c-3.6-1.5-5.1,4.3-1.6,5.8c72.4,29.5,141.6,76.4,179.7,146.5
			c18.9,34.7,29.8,74.2,28.5,113.9c-1.3,39-13.7,80.9-50.7,100c-33.5,17.3-73.5,13.3-107-1.8c-37.7-16.9-69.8-45.3-99.5-73.5
			c-30.9-29.4-59.2-61.4-84.4-95.8c-23.8-32.5-46.4-69.4-48.6-110.7c-2-37.5,13.4-75.2,48.3-92.5c17.2-8.6,37-11.6,56.1-10.4
			c17.8,1.1,35.8,4.5,52.3,11.4c8.5,3.6,16.6,8,24.6,12.6C207,863.2,210.1,858.1,206.7,856.1L206.7,856.1z"/>
	</g>
</g>
<g>
	<path class="st0" d="M1581,881.4c0.1-31-13.6-63.6-40.5-78.8"/>
	<g>
		<path d="M1584,881.4c-0.1-31.8-13.6-65-42-81.4c-3.3-1.9-6.4,3.2-3,5.2c26.6,15.4,38.9,46.6,39,76.2
			C1578,885.2,1584,885.2,1584,881.4L1584,881.4z"/>
	</g>
</g>
<g>
	<path class="st0" d="M1540.5,802.6c-38.1-33.3-96.8-8.7-143.1,11.5c-46.4,20.2-82.6,57.9-114.9,96.9
		c-56.9,68.7-107.8,156.7-84.6,242.8c1.9,6.9,4.3,13.9,9.4,19c7,7,17.5,8.9,27.3,9.3c42,1.7,81.9-17.9,117.9-39.7
		c53.8-32.6,103.9-71.3,149-115.3c40.7-39.7,79.4-88.8,79.5-145.7"/>
	<g>
		<path d="M1542.6,800.4c-25.3-21.6-59.1-19.4-89.3-10.9c-16.6,4.7-32.6,11.2-48.5,18c-16.8,7.2-32.8,15.4-47.8,26.1
			c-30.2,21.6-55.5,49.2-78.9,77.8c-24.2,29.5-46.4,61.2-63,95.7c-15.8,32.9-26.6,68.9-26,105.7c0.3,17.1,2.3,36.1,9.3,51.9
			c7.7,17.4,25.8,20.6,43.1,20.4c38.5-0.6,74.6-17.7,107.1-37c34.2-20.2,66.9-43.2,97.8-68.2c30.1-24.4,59.5-50.6,84.8-80.1
			c23-26.8,43.2-57.9,50.1-93c1.7-8.4,2.5-16.9,2.6-25.5c0-3.9-6-3.9-6,0c-0.7,72.1-59.9,128.7-110.3,172.9
			c-28.4,24.9-58.5,47.9-90.1,68.7c-31,20.4-63.8,40.9-100,50.8c-17.1,4.7-37.1,8-54.6,3.8c-9.7-2.3-16.3-8.1-19.9-17.5
			c-3-8-4.7-16.7-6-25.1c-5.4-35.1,1.4-70.8,14.1-103.6c13.3-34.1,32.9-65.5,54.8-94.7c21.3-28.4,44.8-56,71.4-79.6
			c13.1-11.6,27.1-22.1,42.2-30.7c14.7-8.4,30.5-14.8,46.3-21c28.3-11.1,62.3-22.7,92.6-12.2c7.3,2.5,14,6.5,19.9,11.6
			C1541.3,807.2,1545.5,802.9,1542.6,800.4L1542.6,800.4z"/>
	</g>
</g>
<g>
	<path class="st1" d="M386.7,1207.1c84.8-128.9,215.9-233.5,352.4-305.4c51.9-27.3,115-49.6,167.7-23.8c21.8,10.7,39.2,28.6,55,47.1
		c52.1,60.8,92.7,131.8,152.6,185.1c59.8,53.2,37.8,47.9,98,66.7l0,0c-1.9-1.1-3.7-2.4-5.2-4c-5-5-7.5-12.1-9.4-19
		c-23.2-86.1,27.7-174.1,84.6-242.8c32.3-38.9,68.6-76.7,114.9-96.9c46.4-20.2,105-44.8,143.1-11.5l-2.8-2.3
		c-53.9-37.8-103.6-67.1-140.7-128.2c-37.1-61-66.8-127.5-115.1-180.1c-94-102.2-243.6-134.4-382.3-128.3
		c-344.2,15.1-654.1,216.1-853,497.4c21.7-21.5,54.4-29.5,84.8-26.4c30.4,3,47.3,8.6,73.7,24c60.2,24.4,117.1,60.2,157.3,111.2
		s62.2,118.5,49.7,182.2c-3.6,18.4-10.2,36.7-22.1,51.2"/>
	<g>
		<path d="M389.3,1208.6c82.7-125.2,203.3-223.3,334-295c33.8-18.5,69.1-36.1,107.6-42.2c18.8-3,38.3-2.9,56.7,2.3
			c19,5.3,35.4,16.1,49.7,29.4c28.3,26.4,51,59,73.9,89.9c22.2,29.9,44.3,60.1,69.5,87.7c14.5,15.9,30.5,30,46.3,44.7
			c9.7,9.1,18.8,18.7,28.4,27.8c15.7,14.9,36.1,20.1,56.3,26.4c-0.6-1.5-1.2-2.9-1.8-4.4c0,0,0,0,0,0c1.4-0.4,2.7-0.7,4.1-1.1
			c-9.2-5.9-12.1-16-14.5-26c-2.4-10.1-3.8-20.5-4.3-30.9c-0.8-19.3,1.7-38.7,6.6-57.4c9.9-38.1,29.1-73.3,51.3-105.5
			c22-31.9,47.2-62.5,75.3-89.1c14.2-13.5,29.5-25.8,46.3-36c15.8-9.5,32.9-16.7,50-23.5c35.1-13.9,81.1-28.6,113.6-1.1
			c1.4-1.4,2.8-2.8,4.2-4.2c-22-18.1-47.2-32.3-69.7-49.9c-24.7-19.2-47.2-41.2-64.9-67.1c-19-27.6-34.2-57.9-50.7-87.1
			c-16.2-28.6-33.2-56.9-53.3-82.9c-75.1-96.8-194.1-140.8-313.1-151c-118.3-10.1-240.3,9.5-352.7,46.2
			c-112.7,36.8-218.6,93-313.8,163.4C227.9,643.3,142.4,728.8,70,824.2c-8.9,11.7-17.5,23.5-26,35.4c-2,2.9,2.3,5.9,4.7,3.6
			c29.2-28.1,71.8-30.2,109.4-21.4c8.5,2,16.8,4.8,24.7,8.4c8.1,3.7,15.6,8.8,23.8,12.2c18.6,7.7,36.7,16.4,54.2,26.3
			c69,39.2,127.6,99.9,146.2,179c10.1,42.8,9.6,97.4-19.1,133.4c-2.4,3,1.8,7.3,4.2,4.2c25.5-32,29.8-77.8,24.6-117.1
			c-5.5-42.1-23.2-82.3-48.7-116c-25.1-33.1-57.3-60.2-92.7-81.8c-18.1-11.1-37-20.7-56.4-29.2c-17.9-7.8-34.5-18.3-53.3-23.6
			c-40.9-11.6-89.1-9.5-121.2,21.3c1.6,1.2,3.1,2.4,4.7,3.6c68.8-97.2,150.9-185.1,244.1-259.4c92.4-73.6,195.9-133.8,306.7-175
			c109.8-40.8,228.2-64.4,345.6-62.1c118,2.3,243.2,34.4,327.8,121.4c46.6,47.9,76,108.8,109.1,166.1c15.7,27.1,32.7,52.5,55.2,74.4
			c20.5,20.1,43.8,37,67.4,53.3c11,7.7,22.8,14.8,33.2,23.3c3,2.4,7.2-1.7,4.2-4.2c-28.5-24.1-66.5-18.6-99.4-7.8
			c-38.1,12.5-74.4,29.8-105.1,55.8c-31.7,26.9-59.1,59.7-83.4,93.3c-24.8,34.2-46.3,71.9-57.7,112.8c-6.1,21.9-9.1,44.7-7.5,67.4
			c1.3,19.1,3.7,46,21.4,57.3c1.3,0.8,3.5,0.4,4.1-1.1c0,0,0,0,0,0c0.8-1.8,0.2-3.8-1.8-4.4c-18.8-5.9-38.5-10.6-53.2-24.5
			c-8.4-7.9-16.3-16.3-24.7-24.3c-14.2-13.5-29-26.1-42.5-40.2c-26.9-28.1-50.2-59.5-73.3-90.7c-22.8-30.8-45.4-62.8-72.5-90
			c-26.2-26.3-58.3-41.7-95.9-40.7c-37.5,1.1-73.7,15.3-106.7,32.1c-66.9,33.9-130.3,75.8-188.5,123.2
			c-65.8,53.6-124.9,115.8-171.8,186.8C382,1208.8,387.2,1211.8,389.3,1208.6L389.3,1208.6z"/>
	</g>
</g>
</svg>
