<?xml version="1.0" encoding="utf-8"?>
<!-- Generator: Adobe Illustrator 21.1.0, SVG Export Plug-In . SVG Version: 6.00 Build 0)  -->
<svg version="1.1" id="Layer_1" xmlns="http://www.w3.org/2000/svg" xmlns:xlink="http://www.w3.org/1999/xlink" x="0px" y="0px"
	 viewBox="0 0 1600 1600" style="enable-background:new 0 0 1600 1600;" xml:space="preserve">
<style type="text/css">
	.st0{fill:#C0282D;}
	.st1{fill:#FFFFFF;}
</style>
<g>
	<g>
		<path class="st0" d="M724.3,230.3c-46.6,6.6-93.6,13.9-136.9,32.4c-23.5,10-45.6,23.2-69.6,31.9c-27.1,9.9-56,13.7-84.2,19.8
			c-62.3,13.4-122.3,37.7-176.4,71.5c-9.4,5.9-18.9,12.3-24.7,21.7c-16.3,26.3,3.2,60.3,26,81.2c24.7,22.6,54.3,40.1,86.7,48.6
			c52.2,13.8,107.3,3.7,161.2,0.3c70.5-4.5,141.6,2.4,209.9,20.5c40.2,10.7,79.6,25.2,120.6,31.8c66.2,10.7,134.4,0.3,198.6-19
			c55.6-16.7,109.3-40.1,159.4-69.5c33.3-19.5,68.9-49.6,64.7-87.9c-3.5-31.5-33.6-53.6-63.9-62.7c-30.3-9.1-62.8-9.3-93-18.7
			c-56.5-17.6-104.4-66.6-163.4-63.9c-23.7,1.1-46.5,10.7-70.2,10.7C815.3,279.2,778.3,228,724.3,230.3"/>
		<g>
			<path d="M723.5,227.5c-40.8,5.8-82,12.1-120.9,26.1c-18.6,6.7-36.1,15.6-53.8,24.3c-18.9,9.2-38,16.9-58.5,21.9
				c-20.2,4.9-40.8,8.1-61.1,12.6c-19.5,4.3-38.7,9.7-57.5,16.1c-37.1,12.6-72.9,29.1-106.6,49.2c-14.6,8.7-31.1,17.9-38.1,34.3
				c-6.2,14.4-3.3,30.4,3.1,44.2c7.3,15.7,19.1,28.9,32.1,40c14,12,29.4,22.4,45.9,30.6c36,17.8,75.3,22.1,115.1,20.5
				c42.2-1.7,84-7.8,126.3-7.8c42.9,0.1,85.7,4.4,127.8,12.9c41.6,8.4,81.6,22.6,122.6,33.1c40.2,10.3,81.2,14.1,122.6,10.9
				c41.2-3.2,81.7-12.2,121.1-24.4c38.8-12.1,76.7-27.5,113-45.8c31.4-15.9,65.7-33.1,88.4-60.8c9.3-11.4,16.3-24.8,17.8-39.7
				c1.5-15.3-3.4-30.3-12.7-42.5c-21.8-28.7-57.8-37.6-91.6-42.8c-20-3.1-40.2-5.6-59.4-12.2c-16.3-5.6-31.7-13.6-46.8-21.9
				c-29.1-16-58.6-34.7-92.2-39.6c-18-2.6-35.4,0.1-53,3.9c-18.8,4.1-37.4,7.8-56.5,3.6c-30.2-6.6-55.1-26.7-83.4-38.3
				c-13.7-5.6-28.1-8.9-42.9-8.4c-3.9,0.1-3.9,6.1,0,6c31-1.1,57.1,15.9,83.5,29.9c12.9,6.8,26.2,13.2,40.5,16.4
				c16.5,3.8,32.9,2.3,49.3-1.1c18.7-3.8,37.1-8.7,56.3-6.8c16.3,1.5,32,7,46.8,13.7c29.9,13.7,57.2,32.7,87.8,45
				c36,14.4,75.7,12.4,112,25.3c29,10.3,58.7,34.4,56.2,68.2c-2.4,33-33.5,56.9-59.5,72.7c-33.4,20.3-69,37.4-105.3,51.7
				c-74.3,29.2-155.7,49.4-235.9,41.2c-41.3-4.2-80.6-17.5-120.2-29c-38.9-11.3-78.5-19.4-118.8-23.6c-40.7-4.3-81.6-4.6-122.4-1.4
				c-40.5,3.2-81.3,9-121.9,4.1c-38.1-4.7-73.5-20.7-103-45c-22.8-18.8-54.3-55.2-34.2-86.2c5-7.7,12.7-13.3,20.4-18.2
				c7.9-5.1,16-9.9,24.2-14.5c16.8-9.5,34.1-18.1,51.9-25.8c35.6-15.4,72.9-26.9,111-34.5c19.8-4,39.8-7.3,59.3-12.8
				c18.5-5.2,35.9-13,53-21.5c17.8-8.8,35.6-17.5,54.4-23.9c18.9-6.5,38.4-11.2,58-15c19.1-3.7,38.3-6.5,57.5-9.2
				C728.9,232.7,727.3,226.9,723.5,227.5L723.5,227.5z"/>
		</g>
	</g>
	<g>
		<path class="st1" d="M1249.8,387.7c2.3,3.9,9.3,16.5,9.8,21.1c4.2,38.3-31.4,68.4-64.7,87.9c-50.1,29.4-103.8,52.8-159.4,69.5
			c-64.3,19.3-132.4,29.7-198.6,19c-41.1-6.6-80.4-21.2-120.6-31.8c-68.2-18.1-139.4-25.1-209.9-20.5c-53.9,3.5-109,13.5-161.2-0.3
			c-32.4-8.5-62-26.1-86.7-48.6c-17.5-16-23.1-9.8-31.2-48.8l-0.6-10.3c16.9,251.1-54,507.9-194.1,716.9
			c36.9,17,76.4,34.4,116.6,28.5c13.7-2,27.8-6.7,41.1-2.8c11.5,3.4,20.2,12.6,28.6,21.2c69,70.5,157.3,121.9,252.7,146.9
			c10.8,2.9,22,5.4,33.2,4.8c26.5-1.3,77-41.2,102.2-49.9c23.9-8.2,79.5,29.9,104.8,31.2c62.6,3,91.8-23.6,153.5-12.8
			c149.7,26.3,281.8,92.9,424.9,41.5c31.1-11.2,64.8-33.5,64.7-66.5c0-7.6-1.9-15.4,0.1-22.8c3.1-11.3,14.5-18.4,25.8-21.7
			c31.4-9.1,64.4,2.9,96.4,9.5c32,6.6,70.9,5.3,90.1-21.1c-43.9-17.2-75.5-40-95.8-82.6c-10.3-21.7-28.2-44.2-33.3-67.7
			c-11.9-54.5-42.6-102.8-65-153.8c-65.1-148.2-39.6-298.3-96.7-449.8C1272.9,464.8,1261.3,407.2,1249.8,387.7z"/>
		<g>
			<path d="M1247.2,389.2c3.1,5.3,6.6,10.9,8.5,16.8c2.4,7.3,1.3,15.9-0.7,23.2c-4.5,16.5-16,30.3-28.6,41.4
				c-13.7,12.2-29.3,21.6-45.2,30.5c-18,10.1-36.4,19.4-55.2,27.9c-75.6,34.3-159.8,59.4-243.5,57.3c-43.6-1.1-84.9-12.2-126.4-24.6
				c-39.7-11.9-79.5-21.9-120.6-27.4c-42.8-5.7-86.1-7.2-129.1-4.5c-42.3,2.7-84.8,9.6-127.3,5.6c-46.1-4.3-85.3-24.6-119.7-54.8
				c-6.8-6-15.8-10.5-20.5-18.5c-6.5-11.1-8.4-24.9-9.1-37.4c-2,0-4,0-6,0c6.5,98.2-0.2,197.1-19.3,293.6
				c-19.1,96.2-50.2,190-92.6,278.5c-23.8,49.6-51.2,97.5-81.8,143.3c-0.8,1.3-0.3,3.5,1.1,4.1c28.7,13.2,58.4,26.6,90.2,29.5
				c16.1,1.5,30.8-1.5,46.6-3.9c9.3-1.4,18.8-1.7,27.4,2.8c6.9,3.6,12.6,9.1,18,14.6c41.6,42,88.1,77.9,140.5,105.6
				c25.8,13.6,52.7,25.2,80.3,34.6c13.8,4.7,27.9,9,42.1,12.4c12.2,2.9,25.1,5.3,37.5,2.1c21.3-5.5,40.8-19.1,59.4-30.2
				c9-5.4,18-10.9,27.4-15.3c8.6-4,15.9-4.7,25.2-2.5c21.4,5,41.1,16.2,61.4,24.2c21.7,8.6,43.5,7.8,66.4,4.4
				c25.2-3.8,49.8-11.8,75.4-13c31.3-1.4,62.9,7.3,93.1,14.3c118.8,27.8,242,72.6,363.4,31.3c22.5-7.6,45.6-18.9,60.4-38.1
				c6.7-8.7,11.1-19,11.8-30c0.5-8.3-2.1-17,0.1-25.1c2.1-7.9,8.9-13.3,16-16.7c30.9-14.9,68.5-0.7,99.7,6c23.1,5,48.7,6.8,71-2.4
				c10.2-4.2,18.6-10.7,25.2-19.5c1.3-1.7-0.2-3.8-1.8-4.4c-24.9-9.8-48.9-22.7-67.5-42.2c-9.3-9.7-17-20.8-23.3-32.7
				c-7.2-13.7-14.8-27.1-22.4-40.6c-3.9-7-7.7-14.2-10.5-21.8c-2.9-7.8-4.3-16-6.5-23.9c-4.1-14.9-9.5-29.5-15.6-43.7
				c-12.8-29.9-28.5-58.4-42.1-87.9c-29.2-63.3-42.6-131.4-51.5-200.1c-8.5-66-14-132.5-30.2-197.2c-6.9-27.6-17.5-53.9-24.4-81.5
				c-5.5-22.2-10-46.9-21.5-66.9C1250.5,382.8,1245.3,385.9,1247.2,389.2c10.7,18.6,14.9,41.6,20.1,62.2
				c5.8,23.1,14.3,45.1,20.7,67.9c18.8,67.1,24.9,136.6,33.6,205.5c8.5,67.5,20.4,134.7,47.5,197.5c13.1,30.4,29.2,59.3,42.8,89.4
				c6.9,15.3,13.2,30.9,18,46.9c4.5,15.1,7.3,30,14.4,44.2c7.8,15.6,17.6,30.2,25.4,45.9c6.6,13.3,14.8,25.7,24.9,36.5
				c19.6,21.1,45.1,34.8,71.6,45.3c-0.6-1.5-1.2-2.9-1.8-4.4c-16.5,21.8-46.1,24.9-71.4,22.1c-30.6-3.3-59.6-16.1-90.7-15.3
				c-24.2,0.6-52.6,10.6-51.3,39.2c0.7,14.7,0.2,26.7-8.5,39.1c-7.5,10.6-18.2,18.6-29.3,25c-25.5,14.6-55.8,21.9-84.7,26.2
				c-29.8,4.4-60.2,4.5-90.2,1.7c-62-5.8-122.2-23.4-182.3-38.5c-30.7-7.7-61.6-15.4-92.8-20.4c-25.5-4-50.2-1.5-75.3,3.9
				c-25.4,5.5-53,12.7-79.1,8.9c-19.7-2.9-38.4-14.3-56.5-21.8c-15.5-6.4-33.8-14.3-50.3-7.4c-20.1,8.4-38.2,21.5-57.1,32.1
				c-9.5,5.3-19.3,10.7-29.7,13.9c-13.2,4.1-26.9,1.4-40-1.9c-29.1-7.4-57.5-17.4-84.9-29.6c-53.7-23.9-103.7-56.4-147.2-96.1
				c-10.8-9.9-20.7-20.8-31.5-30.6c-10-9.1-21.1-14.7-34.8-14.2c-15.9,0.6-31.1,5.8-47.1,5.4c-16.6-0.4-33-4.4-48.7-9.7
				c-16-5.4-31.5-12.4-46.8-19.5c0.4,1.4,0.7,2.7,1.1,4.1c54.8-81.9,99-170.8,131.5-263.8c32.4-92.6,53.2-189.3,61.5-287.1
				c4.7-55.7,5.2-111.7,1.5-167.5c-0.3-3.8-6.2-3.9-6,0c1.2,20.5,5.5,40.5,22.6,53.2c12.7,9.4,23.8,20.5,36.9,29.3
				c15.8,10.7,33.1,19.4,51.3,25.3c42.4,13.8,87.6,10.6,131.3,6.7c44.9-4,89.6-6.2,134.6-2.6c45.7,3.6,90.6,12.4,134.6,25.2
				c43,12.5,85.4,26.5,130.3,29.8c86.7,6.4,174.6-18.4,253.4-52.7c22.3-9.7,44.2-20.6,65.4-32.5c17.7-9.9,35.1-20.5,49.8-34.5
				c12.6-11.9,23.7-26.8,27.5-44c1.5-7.2,2.5-15.5,0.2-22.6c-2.1-6.6-5.9-12.9-9.3-18.9C1250.4,382.9,1245.2,385.9,1247.2,389.2z"/>
		</g>
	</g>
</g>
</svg>
