<?xml version="1.0" encoding="utf-8"?>
<!-- Generator: Adobe Illustrator 21.1.0, SVG Export Plug-In . SVG Version: 6.00 Build 0)  -->
<svg version="1.1" id="Layer_1" xmlns="http://www.w3.org/2000/svg" xmlns:xlink="http://www.w3.org/1999/xlink" x="0px" y="0px"
	 viewBox="0 0 1600 1600" style="enable-background:new 0 0 1600 1600;" xml:space="preserve">
<style type="text/css">
	.st0{fill:#A3ADD8;}
	.st1{fill:#FFFFFF;}
</style>
<g>
	<g>
		<path class="st0" d="M771.9,83c-50,15.9-79.2,52.2-118.4,87.1c-4.1,3.6-8.5,7.8-9.2,13.2c-1.5,11.8,13.6,17.8,25.3,19.6
			c40,6.3,80.1,12.5,120.6,12.1c26.3-0.3,53.1-3.3,78.5,3.4c13.9,3.7,27,10.3,41,13.8c33.7,8.6,69.9-1.3,99.7-19.2
			c29.8-17.9,54.3-43.2,78.4-68.1c4.7-4.9,9.7-10.2,10.8-16.9c1.7-9.8-5.7-19.2-14.7-23.4c-9-4.2-19.2-4.3-29.1-4.6
			c-53.4-1.3-106.7-7.3-159.1-17.8c-43.7-8.8-92.6-19.9-130,4.4"/>
		<g>
			<path d="M771.1,80.1c-30.3,9.8-55.4,28.3-78.7,49.6c-12.2,11.1-23.9,22.7-36.1,33.8c-8.7,7.9-21.7,19.1-11.4,31.3
				c9.3,11.1,27.3,11.6,40.3,13.6c19,2.9,38,5.6,57.1,7.4c19.7,1.9,39.4,2.6,59.1,2c19.1-0.6,38.4-1.8,57.3,1.6
				c18,3.2,34.1,12.1,51.8,16.2c16.3,3.8,33.2,3.5,49.6,0.3c34.1-6.8,63.8-26.3,89.4-49.1c13.2-11.7,25.6-24.4,37.9-37.2
				c5.3-5.5,11.2-11.1,13.5-18.5c2-6.5,0.4-13.5-3.5-19c-9.8-13.8-27.2-14.7-42.6-15.1c-19.5-0.5-39.1-1.6-58.6-3.3
				c-38.8-3.4-77-10-115.1-17.5C850,70.1,816,64.1,785,74.2c-7.3,2.4-14.3,5.7-20.8,9.8c-3.3,2.1-0.2,7.3,3,5.2
				c26.7-16.9,59.1-16,89.2-11.3c33.1,5.1,65.7,12.9,99,17.3c18.1,2.4,36.2,4.3,54.4,5.6c17.9,1.3,35.8,1.5,53.7,2.5
				c8.5,0.5,17.8,1.8,24.5,7.5c6,5.1,9.6,12.9,6.3,20.5c-3.2,7.3-10.1,13-15.6,18.5c-5.8,5.9-11.6,11.8-17.5,17.6
				c-23.5,23-49.5,44.6-80.7,56.2c-15.2,5.7-31.3,9-47.6,8.7c-16.8-0.3-31.9-5.6-47.4-11.4c-16.1-6-32.2-9.2-49.4-9.7
				c-17.7-0.5-35.3,1-53,0.8c-36.6-0.3-73-5.8-109.1-11.4c-9.4-1.5-34.1-6.6-25.4-21.3c3.7-6.1,10.8-10.8,16-15.6
				c5.6-5.2,11.1-10.4,16.7-15.7c21.2-20.1,42.8-40.2,69.1-53.3c7.1-3.5,14.5-6.5,22-8.9C776.4,84.7,774.8,78.9,771.1,80.1
				L771.1,80.1z"/>
		</g>
	</g>
	<g>
		<path class="st1" d="M1098.6,128.1c-1.1,6.7-6.1,12-10.8,16.9c-24.1,25-48.6,50.3-78.4,68.1c-29.8,17.9-66,27.7-99.7,19.2
			c-14-3.6-27-10.1-41-13.8c-25.4-6.8-52.2-3.7-78.5-3.4c-40.4,0.4-80.6-5.8-120.6-12.1c-11.8-1.8-26.9-7.8-25.3-19.6
			c15.7,158.4,22,319.8,0.7,477.5c-8.8,65.7-20.9,131.9-13.9,197.7c0.5,5.2,1.3,10.7,4.6,14.7c3.9,4.8,10.2,6.5,16.2,8
			c64.9,16,129.8,32,194.7,48.1c17.3,4.3,36.4,8.4,52.4,0.4c7.8-3.9,13.9-10.3,19.9-16.6c17-17.9,34-35.8,51-53.6
			c10.7-11.3,21.6-22.8,27.9-37c5.3-11.8,7.1-24.8,8.9-37.6C1037.7,559.4,1067.6,353.4,1098.6,128.1z"/>
		<g>
			<path d="M1095.7,127.3c-1.7,7.8-7.8,13.2-13.1,18.8c-5.5,5.7-11.1,11.4-16.7,17.1c-11.6,11.5-23.6,22.7-36.5,32.7
				c-25.3,19.5-55.3,34.6-87.7,36.4c-16.2,0.9-31.4-2.2-46.6-7.8c-15.4-5.6-30.1-10.9-46.6-12.5c-17.2-1.6-34.5-0.5-51.7,0
				c-17.5,0.4-35-0.3-52.5-1.9c-20.2-1.9-40.3-4.8-60.4-7.8c-10.4-1.6-38-2.9-36.7-18.8c-2,0-4,0-6,0c12,121.2,18.5,243.3,11.4,365
				c-1.8,30.5-4.4,60.9-8,91.3c-3.6,30.3-8.4,60.4-12.2,90.7c-3.8,30.2-6.7,60.6-6.4,91.1c0.1,14.4,0,30.1,3.1,44.3
				c2.8,12.5,12.7,16.2,23.9,19c59.7,14.8,119.5,29.5,179.3,44.3c24.2,6,52.9,15.7,75-0.9c10.6-8,19.3-18.7,28.4-28.3
				c10.7-11.3,21.5-22.6,32.2-33.9c9-9.5,18.4-18.9,25.7-29.9c7.4-11,11.5-23.3,13.8-36.3c5.3-29.9,8.5-60.3,12.7-90.4
				c8.3-59.4,16.6-118.8,25-178.1c16.8-119,33.7-237.9,50.1-357c2.1-15.1,4.2-30.1,6.2-45.2C1102,125.1,1096.2,123.4,1095.7,127.3
				c-16.1,117.1-32.6,234.1-49.2,351.1c-8.2,57.7-16.3,115.5-24.4,173.2c-4.2,29.7-8.3,59.4-12.4,89.2c-2,14.7-4.1,29.4-6.1,44.1
				c-1.8,13.3-3.8,27-9.9,39.2c-6.1,12.2-15.5,22.2-24.8,32c-10.2,10.8-20.5,21.5-30.7,32.3c-9.7,10.3-19.1,21.2-29.6,30.7
				c-10.4,9.5-22.3,13-36.2,12c-13.7-1-27.2-5.2-40.5-8.4c-14.8-3.6-29.6-7.3-44.3-10.9c-29.6-7.3-59.1-14.6-88.7-21.9
				c-14.5-3.6-28.9-7.1-43.4-10.7c-6-1.5-13.3-2.6-17.5-7.7c-4.5-5.5-4.2-14-4.8-20.7c-2.5-30-1.2-60.2,1.7-90.1
				c3-30.5,7.6-60.8,11.8-91.2c3.9-28.6,7.1-57.3,9.4-86.1c9.5-118.9,5.3-238.6-5-357.3c-1.2-14.3-2.6-28.5-4-42.7
				c-0.4-3.8-5.7-3.9-6,0c-1,12.4,11.7,18.7,21.9,21.4c8.1,2.1,16.7,2.9,25,4.2c9.3,1.4,18.6,2.8,28,4c18.7,2.5,37.6,4.4,56.5,5
				c18.8,0.6,37.5-0.7,56.2-0.7c18.9,0,36.7,2.7,54.5,9.3c15.8,5.9,31.1,11.3,48.1,11.9c33.4,1.2,65.8-12.3,92.7-31.3
				c15.4-10.8,29.4-23.4,42.8-36.6c6.9-6.8,13.7-13.8,20.5-20.8c5.9-6.1,12.2-12.2,14-20.8C1102.3,125.1,1096.5,123.5,1095.7,127.3z
				"/>
		</g>
	</g>
	<g>
		<g>
			<path d="M938.3,234.5c8.2,91.9-6.9,183.4-19.9,274c-6.4,44.9-12.2,89.9-14.8,135.2c-2.6,45.1-2.8,90.3-4.9,135.5
				c-2.3,50.9-7,101.9-19.8,151.4c-1,3.7,4.8,5.3,5.8,1.6c22.7-88,19.9-179.4,23.9-269.4c4.1-92,21.9-182.2,31.9-273.6
				c5.7-51.4,8.3-103.2,3.7-154.8C943.9,230.7,937.9,230.7,938.3,234.5L938.3,234.5z"/>
		</g>
	</g>
	<g>
		<path class="st1" d="M685.7,1077.4c13.6-15.9,27.1-31.8,40.7-47.6c6.1-7.1,12.8-14.6,22-16.5s8-3.2,3.5-8.9l1.2,0.5
			c-30-36.7-60.1-78.5-84.9-118.8l4,1.8c59.2,14.6,115.2,26.9,174.4,41.5c8.4,2.1,17.3,4.1,26,4.8l0,0.2
			c-17.3,13.3-36.9,40-52.5,55.3c-15.5,15.3-25.6,26.2-47.2,23l1.8,0.7c7.8,3.1,15.7,7.5,19.8,9.7c8,4.3,14.2,11.3,19.8,18.4
			c10,12.7,18.6,26.5,25.8,41c1.4,2.9,2.8,6,4,9.2l0,0c32.8-6.6,60.4-6,93.6-1.8l1.4,1.8c0.4,46.2,0.7,92.5,1.1,138.7
			c0.1,14,0.2,28.3-3.8,41.8c-5.4,18.3-17.9,33.6-30,48.4c-21.9,26.6-44,53.3-70.2,75.6c-51.5,43.8-116.3,68.2-179.6,91.8
			c-36,13.4-71.9,26.8-107.9,40.2c-5.5,2.1-11.2,4.2-17.1,4c-13.5-0.2-24.4-12.2-28-25.2c-3.6-13-1.5-26.7,0.6-40
			c15.5-97.8,23.3-196.7,38.8-294.5c1.4-9,9.2-18.6,15.7-26.2c15.5-18.4,24.3-41.9,41-59.2c16.7-17.3,48.2-18.8,83.3-9.6"/>
		<g>
			<path d="M687.8,1079.5c15-17.6,29.5-36.1,45.4-52.9c3.5-3.7,7.3-7.2,12-9.1c3.4-1.4,7.5-1.3,10.6-3.4c5.1-3.4,0.9-8.4-1.8-11.8
				c-1,1.7-1.9,3.3-2.9,5c0.4,0.2,0.8,0.3,1.2,0.5c3.1,1.2,4.6-3,2.9-5c-30.6-37.5-59-77-84.5-118.2c-1.4,1.4-2.7,2.7-4.1,4.1
				c5.9,2.7,11.9,3.9,18.2,5.4c8.9,2.2,17.8,4.3,26.7,6.4c17.9,4.2,35.8,8.4,53.7,12.6c17.9,4.2,35.9,8.4,53.8,12.7
				c17.7,4.2,35.5,9.9,53.6,11.4c-1-1-2-2-3-3c0.2-2.2-1.6,0-2.3,0.6c-0.9,0.8-1.8,1.5-2.6,2.3c-2,1.8-4,3.7-5.9,5.6
				c-4.1,4.1-8.1,8.4-12,12.8c-7.6,8.5-14.9,17.2-22.6,25.6c-7,7.6-14.4,15.5-22.8,21.6c-8.6,6.4-18,8.4-28.6,7
				c-3.6-0.5-3.7,4.8-0.8,5.9c7.2,2.8,14.1,6.3,20.9,10.1c7.6,4.2,13.3,10.6,18.7,17.3c11.7,14.8,22.9,31.7,29.5,49.4
				c1.8-0.8,3.7-1.5,5.5-2.3c0,0,0,0,0,0c-0.6,1.5-1.2,2.9-1.8,4.4c30.9-6.1,61.7-5.6,92.8-1.7c-0.9-0.5-1.7-1-2.6-1.5
				c2,2.7,1,6.9,1,10.2c0,5.9,0.1,11.9,0.1,17.8c0.1,10.6,0.2,21.1,0.3,31.7c0.2,21.8,0.3,43.6,0.5,65.4c0.2,20.8,1.9,42.8-6.3,62.4
				c-7.4,17.8-20.8,32.5-32.9,47.2c-25.3,30.6-51.6,60.5-84.2,83.7c-31.3,22.3-66.1,39-101.6,53.5c-37.6,15.4-76,29-114,43.2
				c-10.2,3.8-20.5,7.6-30.7,11.4c-9.7,3.6-19.6,8.3-29.7,10.5c-20.5,4.5-32.3-16.5-33.1-34.1c-0.4-10.6,1.5-21.1,3.1-31.5
				c1.7-10.7,3.2-21.4,4.8-32.1c3-21,5.7-42.1,8.3-63.2c5.3-43.3,10.2-86.6,15.8-129.9c2.8-21.6,5-43.7,9.4-65.1
				c1.9-9.4,8.8-17,14.8-24.2c5.6-6.7,10.4-14,15-21.5c8.8-14.4,17.2-32.4,31.4-42.4c13.1-9.2,30.2-10.5,45.7-9.3
				c9.9,0.7,19.6,2.6,29.2,5.1c3.7,1,5.3-4.8,1.6-5.8c-19.1-4.9-39.7-7.9-59.2-3.7c-18,3.9-29.5,15.2-39.6,30
				c-5.8,8.6-10.9,17.7-16.4,26.5c-5.6,8.9-12.3,16.7-18.6,25.1c-3,4-5.8,8.1-7.7,12.7c-2,4.8-2.5,10-3.3,15.2
				c-1.9,12.3-3.7,24.6-5.4,37c-6.7,48.7-12.1,97.5-18.1,146.3c-3.1,25.1-6.3,50.2-9.9,75.3c-1.8,12.1-3.8,24.2-5.5,36.3
				c-1.5,10.7-2.2,21.9,0.8,32.5c4.5,15.9,18.7,29.6,36.1,27c11.6-1.8,23.2-7.6,34.1-11.7c11.5-4.3,22.9-8.6,34.4-12.8
				c42.9-16,86.3-31.1,128.2-49.5c39.3-17.2,77.3-38.1,109.6-66.7c17-15,32.2-31.9,46.8-49.1c13.9-16.4,29.2-32.9,40.2-51.5
				c5.4-9.1,9.4-19,11.3-29.4c1.9-11.1,1.9-22.4,1.8-33.7c-0.2-25.1-0.4-50.2-0.6-75.3c-0.1-12.5-0.2-25.1-0.3-37.6
				c0-5.9-0.1-11.9-0.1-17.8c0-3.7,1-8.2-1.7-11.1c-2.7-2.9-8.6-2.4-12.3-2.8c-5.9-0.6-11.7-1.1-17.6-1.5c-11-0.7-22.1-0.7-33.2,0
				c-11.5,0.7-22.8,2.3-34.1,4.6c-2.1,0.4-2.5,2.8-1.8,4.4c0,0,0,0,0,0c1.4,3.1,6.7,0.9,5.5-2.3c-7-18.8-18.7-36.4-31-52.1
				c-5.6-7.1-11.9-13.8-19.9-18.2c-7.2-4-14.6-7.7-22.3-10.7c-0.3,2-0.5,3.9-0.8,5.9c10.5,1.4,20.6-0.4,29.5-6.3
				c9.3-6.2,17.5-14.8,25.1-23c8.7-9.3,16.7-19,25.2-28.5c4.2-4.7,8.5-9.2,13-13.6c2.1-2,4.2-3.9,6.4-5.7c1.6-1.4,3.3-2.1,3.5-4.4
				c0.1-1.7-1.5-2.9-3-3c-18.2-1.5-36.2-7.4-53.9-11.6c-17.3-4.1-34.6-8.2-51.9-12.2c-17.3-4-34.5-8-51.8-12.1
				c-8.9-2.1-17.8-4.2-26.6-6.4c-6.3-1.5-12.8-2.6-18.7-5.3c-2.5-1.2-5.8,1.3-4.1,4.1c25.8,41.6,54.5,81.5,85.4,119.4
				c1-1.7,1.9-3.3,2.9-5c-0.4-0.2-0.8-0.3-1.2-0.5c-3.1-1.2-4.5,3-2.9,5c0.5,0.7,2.5,2.5,2.5,3.4c0-1.5-1.7-0.2-3.1,0.2
				c-3.3,0.8-6.4,1.7-9.3,3.4c-7,4-12.2,10.4-17.4,16.5c-12.9,15.1-25.8,30.3-38.8,45.4C681.1,1078.2,685.3,1082.4,687.8,1079.5
				L687.8,1079.5z"/>
		</g>
	</g>
	<g>
		<g>
			<path d="M751,1006.9c2.9,3.5,6.5,6.9,11.4,6.7c5.3-0.2,10-4.4,14.2-7.2c9.4-6.4,18.7-13.2,27.5-20.5
				c17.8-14.8,33.6-32.1,44.1-52.9c1.7-3.4-3.4-6.5-5.2-3c-9,17.9-22.1,33.1-37,46.4c-7.6,6.7-15.5,12.9-23.7,18.8
				c-4,2.9-8,5.6-12.1,8.4c-2.1,1.4-4.6,3.6-7.1,4c-3.6,0.6-5.9-2.3-7.9-4.8C752.8,999.7,748.5,1004,751,1006.9L751,1006.9z"/>
		</g>
	</g>
	<g>
		<g>
			<path d="M841.1,1092.3c2.7,7.8,4.3,17.2-1.4,24.2c-3.4,4.2-8.5,6.7-13.2,9c-9.7,4.6-21,7.8-28.2,16.3c-2.5,2.9,1.7,7.2,4.2,4.2
				c8.4-9.9,22.7-12.2,33.4-18.7c13.6-8.3,15.8-22.1,10.9-36.6C845.7,1087.1,839.9,1088.6,841.1,1092.3L841.1,1092.3z"/>
		</g>
	</g>
	<g>
		<g>
			<path d="M683.6,1075.2c-5,5.8-9.9,11.6-14.9,17.4c-4.5,5.3-9.8,10.4-13.7,16.2c-7.5,11.3,5.1,18,13.8,22.3
				c23.1,11.2,48.8,15.5,74.2,17.5c13.6,1,27.4,1.7,41.1,1.8c11,0,21-2.9,26-13.5c10.7-22.5-1-50.3-11.9-70.3
				c-5.8-10.7-12.2-20.7-19.6-30.3c-6.8-8.9-14.2-17.6-20.1-27.2c-0.4,1.4-0.7,2.7-1.1,4.1c4.7-2.2,12,1.2,16.4,2.9
				c3.6,1.4,5.2-4.4,1.6-5.8c-6.4-2.5-14.3-5.5-21-2.3c-1.4,0.7-1.9,2.8-1.1,4.1c8.6,14.1,20.3,26.1,29.3,39.9
				c12.2,18.6,24.7,40.9,25.2,63.7c0.2,10.7-2,24.3-13.8,27.7c-5,1.4-10.6,1-15.7,0.8c-6-0.2-12.1-0.4-18.1-0.6
				c-23.1-1-46.5-3.1-68.7-10c-6.2-1.9-12.3-4.2-18.2-7c-4.9-2.3-16.9-6.4-14.1-13.4c1.3-3.2,5.2-6.5,7.4-9.1
				c2.1-2.4,4.1-4.8,6.2-7.3c5-5.8,9.9-11.6,14.9-17.4C690.3,1076.6,686.1,1072.3,683.6,1075.2L683.6,1075.2z"/>
		</g>
	</g>
	<g>
		<g>
			<path d="M539.9,1172.3c-1.6,14.8,12,20.8,24.1,23.9c15,3.9,30.8,4.1,46.2,5.1c34.3,2.3,68.6,4.5,102.9,6.8
				c34,2.2,68,4.5,101.9,6.7c14.4,1,29.4,2.5,42.3-5.5c11.6-7.2,20.3-18.9,28.7-29.4c21.6-27.2,40.2-57,54.2-88.8
				c1.5-3.5-3.6-6.6-5.2-3c-11.6,26.4-26.4,51.4-43.4,74.7c-8.3,11.4-17.1,22.9-27,32.9c-4.2,4.3-8.9,8.3-14.5,10.8
				c-7.5,3.4-15.8,3.5-23.9,3.1c-30.8-1.5-61.6-4-92.4-6.1c-31.7-2.1-63.3-4.2-95-6.3c-17.5-1.2-35.1-2-52.5-3.6
				c-12.8-1.1-42.5-3-40.5-21.4C546.3,1168.5,540.3,1168.5,539.9,1172.3L539.9,1172.3z"/>
		</g>
	</g>
	<g>
		<g>
			<path d="M843.7,1210.2c-1.9,13.1-8.3,25-10.1,38.2c-2.3,18-4.6,36.1-7,54.1c-4.6,35.7-9.2,71.5-13.8,107.2c-0.5,3.8,5.5,3.8,6,0
				c4.5-35.1,9-70.2,13.6-105.3c2.2-17.4,4.5-34.8,6.7-52.1c1.8-14,8.3-26.7,10.4-40.6C850.1,1208,844.3,1206.4,843.7,1210.2
				L843.7,1210.2z"/>
		</g>
	</g>
</g>
</svg>
