<svg id="Layer_1" data-name="Layer 1" xmlns="http://www.w3.org/2000/svg" viewBox="0 0 46.74 46.48"><defs><style>.cls-1{fill:none;stroke:#000;stroke-linecap:round;stroke-miterlimit:10;stroke-width:2px;}</style></defs><title>final-high-Artboard 79</title><path class="cls-1" d="M34.5,28.65a6,6,0,0,0,5.66-6.37,6,6,0,0,0-5.45-5.94,5.2,5.2,0,0,0-1.64.19A.88.88,0,0,1,32,15.61h0c0-5.3-4-9.6-8.84-9.6s-8.84,4.3-8.84,9.6h0a.88.88,0,0,1-1.07.92,5.2,5.2,0,0,0-1.64-.19,6,6,0,0,0-5.45,5.94,6,6,0,0,0,5.66,6.37Z"/><line class="cls-1" x1="23.16" y1="37.99" x2="23.16" y2="17.4"/><line class="cls-1" x1="28.16" y1="20.45" x2="23.16" y2="16.34"/><line class="cls-1" x1="18.16" y1="20.45" x2="23.16" y2="16.34"/></svg>