<?xml version="1.0" encoding="utf-8"?>
<!-- Generator: Adobe Illustrator 22.0.1, SVG Export Plug-In . SVG Version: 6.00 Build 0)  -->
<svg version="1.1" id="Layer_1" xmlns="http://www.w3.org/2000/svg" xmlns:xlink="http://www.w3.org/1999/xlink" x="0px" y="0px"
	 viewBox="0 0 1046.6 768" style="enable-background:new 0 0 1046.6 768;" xml:space="preserve">
<style type="text/css">
	.st0{fill:#0071BC;}
	.st1{fill:#005890;}
	.st2{fill:#FDC500;}
	.st3{fill:#F4E795;}
	.st4{fill:#C69C6D;}
	.st5{fill:#7F7869;}
	.st6{fill:#BCB19A;}
	.st7{fill:#FFFFFF;}
	.st8{fill:#7CB593;}
	.st9{fill:#006837;}
	.st10{fill:#28649E;}
	.st11{fill:#BACFED;}
	.st12{fill:#927FBA;}
	.st13{fill:#F08372;}
	.st14{fill:#B4252D;}
</style>
<g>
	<polygon class="st0" points="341.7,388.9 296.8,634.2 333.2,666.5 420.6,679.3 508.2,466.2 490.5,426.4 	"/>
	<g>
		<path class="st1" d="M341,388.7c-3.3,18.2-6.7,36.4-10,54.6c-6.6,36-13.2,72-19.8,108.1c-4.7,25.9-9.5,51.8-14.2,77.7
			c-0.2,1.3-1.2,3.6-0.9,4.9c0.5,2.7,6.1,6,8.1,7.8c6.7,6,13.5,11.9,20.2,17.9c2.5,2.3,5.6,6.2,8.8,7.5c3.8,1.5,9.3,1.4,13.2,1.9
			c8.4,1.2,16.9,2.5,25.3,3.7c15.3,2.2,30.6,4.5,45.9,6.7c0.9,0.1,1.8,0.3,2.7,0.4c0.4,0.1,0.8-0.1,0.9-0.5
			c8.9-21.7,17.8-43.4,26.7-65c15.1-36.8,30.3-73.6,45.4-110.5c4.6-11.1,9.1-22.2,13.7-33.3c0.6-1.4,1.8-3.2,1.7-4.7
			c-0.1-1.6-1.7-3.9-2.4-5.3c-1.9-4.3-3.8-8.6-5.7-12.9c-2-4.6-4-9.1-6.1-13.7c-0.9-2.1-1.8-6.1-3.4-7.8c-1.2-1.3-3.9-1.4-5.6-1.9
			c-14.6-3.7-29.2-7.4-43.8-11c-32.7-8.2-65.3-16.5-98-24.7c-0.7-0.2-1.4-0.3-2-0.5c-0.9-0.2-1.3,1.2-0.4,1.4
			c25.9,6.5,51.9,13.1,77.8,19.6c17.2,4.3,34.3,8.7,51.5,13c5.2,1.3,10.4,2.6,15.6,3.9c1.1,0.3,2.5,0.4,3.4,0.9
			c0.2,0.1,0.7,0.3,0.3,0c-0.4-0.4,0.4,1.2,0.5,1.4c2.9,7.7,6.7,15.2,10.1,22.8c1.6,3.7,3.3,7.4,4.9,11.1c0.5,1.1,1.1,2.2,1.5,3.4
			c0.2,0.7,0.3,1.2,0.3,0.4c-0.1,1.6-1.5,3.8-2.2,5.3c-1.8,4.3-3.5,8.5-5.3,12.8c-13.1,31.9-26.3,63.9-39.4,95.8
			c-12.2,29.6-24.3,59.2-36.5,88.8c-1.2,2.9-2.9,5.9-3.7,9c-0.1,0.4-0.3,1-0.5,1.3c0.8-1.1,1.2-0.3,0.2-0.6
			c-0.7-0.2-1.5-0.2-2.2-0.3c-16.1-2.4-32.1-4.7-48.2-7.1c-8.6-1.3-17.1-2.5-25.7-3.8c-2.6-0.4-5.2-0.8-7.8-1.1
			c-0.6-0.1-3.1-0.5-2.6-0.3c-1.7-0.8-3.3-2.9-4.7-4.2c-3.1-2.8-6.3-5.5-9.4-8.3c-6.6-5.8-13.1-11.6-19.7-17.4
			c-0.7-0.6-1.5-1.2-2.1-1.9c-0.7-0.7-0.3-0.1-0.3,0.2c-0.1-0.5,0.2-1.3,0.3-1.7c0.8-3.1,1.2-6.3,1.7-9.4c2.3-12.7,4.7-25.4,7-38.1
			c6.8-37.2,13.6-74.3,20.4-111.5c4.9-26.8,9.8-53.5,14.7-80.3c0.3-1.4,0.5-2.8,0.8-4.2C342.6,388.2,341.2,387.8,341,388.7z"/>
	</g>
</g>
<g>
	<path class="st2" d="M93.8,320.8c22.6-4.8,44.1-15.1,62-29.7c10.4-8.5,22.6-19.2,35.5-15.2c13.6,4.2,17.2,21.4,19.7,35.4
		c8.8,48.3,33.7,93.5,69.8,126.8c8.5,7.8,18.2,16,20,27.4c3.1,19.5-17.8,33.5-35.6,42.1c-27.1,13.1-54.3,26.2-81.4,39.3
		c-18.1,8.7-41.6,16.9-56.7,3.6c-5.9-5.2-9.1-12.8-12-20.1c-25.5-64.5-45.6-131.1-59.8-199c10.9-4.3,30.9-6.9,41.8-11.3"/>
	<g>
		<path class="st3" d="M94,321.5c12.8-2.8,25.1-7.1,36.7-13.1c11.1-5.7,20.8-13,30.6-20.8c10.4-8.3,26.1-18.3,37.8-6.1
			c7.5,7.8,9.3,19.7,11.3,29.9c9.2,49.2,34.3,94.3,71.1,128.1c9,8.3,19.8,17.7,18.9,31.2c-0.8,12.2-10.9,21.3-20.4,27.7
			c-11.3,7.5-24.1,12.8-36.3,18.7c-13.6,6.5-27.1,13.1-40.7,19.6c-12.6,6.1-25.1,13-38.4,17c-12.1,3.7-26.6,5.1-36.8-3.9
			c-5.1-4.5-8-10.7-10.6-16.9c-2.8-6.9-5.4-13.8-8.1-20.7c-5.4-14.3-10.5-28.7-15.4-43.1c-10.5-31.4-19.8-63.1-27.7-95.2
			c-2-8-3.9-16.1-5.7-24.1c-1-4.3-1.9-8.7-2.9-13c-0.2-1.1-1.5-4-0.6-5.1c0.5-0.6,2.9-1,3.6-1.2c12.2-3.8,25.2-5.1,37.2-9.7
			c0.9-0.3,0.5-1.8-0.4-1.4c-13.5,5.2-28.3,6.1-41.8,11.3c-0.4,0.2-0.6,0.5-0.5,0.9c12.5,59.1,29.2,117.3,50.2,174
			c4.6,12.5,8.6,26.6,15.7,38c5.4,8.8,14.1,14,24.4,14.6c10.6,0.6,21.3-2.8,31-6.9c13.6-5.7,26.8-12.7,40.1-19.1
			c14.2-6.8,28.3-13.7,42.5-20.5c10.2-4.9,20.5-9.8,29.2-17.2c7.1-6,13.5-14,14.1-23.7c0.7-11-6.3-19.8-13.7-27
			c-8.8-8.5-17.8-16.7-25.8-26.1c-8.7-10.2-16.4-21.2-23.2-32.8c-13-22.3-22.2-46.8-27.1-72.2c-2-10.6-3.7-22.9-11.1-31.3
			c-7.2-8.1-18-8.5-27.3-3.9c-6.3,3.1-11.7,7.7-17.2,12.1c-6.1,4.9-12.4,9.5-19.1,13.4c-13.6,8-28.4,13.7-43.8,17.1
			C92.7,320.3,93.1,321.7,94,321.5L94,321.5z"/>
	</g>
</g>
<g>
	<polygon class="st4" points="101.5,201.3 151.8,179.3 180.2,411.5 272.4,563 234.3,588.1 138.9,434.7 	"/>
	<g>
		<path class="st5" d="M101.9,201.9c16.8-7.3,33.5-14.6,50.3-21.9c-0.4-0.2-0.8-0.4-1.1-0.6c2.9,23.4,5.7,46.7,8.6,70.1
			c4.9,40.2,9.8,80.4,14.7,120.6c1.5,12.2,3,24.3,4.5,36.5c0.6,4.9,1.6,6.8,4.3,11.2c18.7,30.7,37.4,61.5,56.1,92.2
			c8.7,14.3,17.4,28.7,26.2,43c1.8,3,3.5,7.3,5.9,9.8c0.1,0.1,0.3,0.5,0.4,0.7c-0.5-1.3,0.9-0.8-0.5-0.4c-2.7,0.7-6,4-8.3,5.5
			c-8.1,5.4-16.2,10.7-24.3,16.1c-1,0.7-2.5,1.3-3.4,2.2c-1.3,1.2-1.2,0-0.2,1.1c-0.5-0.5-0.8-1.3-1.2-1.9
			c-6.5-10.5-13.1-21-19.6-31.5c-20.7-33.2-41.3-66.5-62-99.7c-3.1-5-6.3-10.1-9.4-15.1c-0.9-1.4-2.8-4.1-3.2-5.1
			c-0.7-1.9-0.7-4.4-1-6.5c-0.8-5.2-1.7-10.4-2.5-15.6c-6-37.4-12-74.9-18-112.3c-5-31.3-10-62.7-15.1-94c-0.3-1.7-0.5-3.4-0.8-5
			c-0.2-1-1.6-0.5-1.4,0.4c3.4,21.4,6.9,42.8,10.3,64.2c6.2,38.6,12.4,77.2,18.6,115.9c2.2,13.8,4.4,27.6,6.6,41.5
			c0.7,4.1,0.6,9.2,2.5,12.9c4.6,9.1,11,17.7,16.4,26.4c9.9,15.9,19.8,31.9,29.7,47.8c10.1,16.3,20.2,32.6,30.4,48.8
			c5.8,9.4,11.3,19.1,17.6,28.2c0.3,0.4,0.6,0.9,0.8,1.3c0.2,0.3,0.7,0.5,1,0.3c12.7-8.4,25.4-16.8,38-25.1c0.3-0.2,0.5-0.7,0.3-1
			c-13.1-21.6-26.3-43.2-39.4-64.7c-16.8-27.6-33.6-55.2-50.4-82.8c-2.5-4.2-2.5-4.8-3.1-10.1c-1.4-11.8-2.9-23.6-4.3-35.3
			c-4.6-37.7-9.2-75.5-13.8-113.2c-2-16.6-4.1-33.2-6.1-49.8c-1.1-8.6-1.5-17.5-3.2-26c-0.1-0.4-0.1-0.8-0.2-1.2
			c-0.1-0.6-0.6-0.9-1.1-0.6c-16.8,7.3-33.5,14.6-50.3,21.9C100.2,201,101,202.3,101.9,201.9z"/>
	</g>
</g>
<g>
	<path class="st6" d="M870.6,7.5c8.9,101.3,3,141.6-11.9,208.6l155,44.7L670.9,481.3l-56.6-327.8C687.8,154.9,848.2,62,870.6,7.5"/>
	<g>
		<path class="st7" d="M869.8,7.5c4.9,55.9,6.5,111.5-3.4,167c-2.5,13.9-5.4,27.7-8.5,41.4c-0.1,0.4,0.1,0.8,0.5,0.9
			c45.3,13.1,90.6,26.1,135.9,39.2c6.3,1.8,12.7,3.7,19,5.5c-0.1-0.5-0.1-0.9-0.2-1.4c-14.4,9.3-28.8,18.6-43.3,27.8
			c-33.2,21.4-66.4,42.8-99.7,64.1c-37.1,23.9-74.2,47.8-111.3,71.6c-25.6,16.5-51.3,33-76.9,49.5c-2.9,1.8-5.7,3.7-8.6,5.5
			c-0.6,0.4-1.9,0.9-2.2,1.4c-1.3,2,0.5-2,0.4,0.9c0.1-1.5-0.6-3.3-0.8-4.7c-0.7-4.2-1.4-8.3-2.2-12.5c-6-34.5-11.9-68.9-17.9-103.4
			c-7.4-43.1-14.9-86.2-22.3-129.3c-4.4-25.4-8.5-50.8-13.1-76.1c-0.1-0.3-0.5-1.5-0.3-1.8c-0.6,1.1,1.6,0.9,2.5,0.9
			c2.5,0,5.1-0.2,7.6-0.4c10.8-0.9,21.4-3.2,31.8-6c25.9-7,50.9-17.6,74.9-29.6c25.8-12.8,50.7-27.5,74.2-44.2
			c19-13.5,38-28.4,52.8-46.6c4.9-6,9.4-12.5,12.5-19.7c0.4-0.9-1.1-1.3-1.4-0.4c-5.8,13.9-17,25.5-27.8,35.7
			c-15,14.2-31.7,26.6-48.9,38.1c-37.2,24.8-77.7,46.1-120.2,60.3c-18.8,6.3-38.7,11.7-58.7,11.4c-0.5,0-0.8,0.5-0.7,0.9
			c6.4,36.9,12.7,73.8,19.1,110.7c10.2,58.8,20.3,117.7,30.5,176.5c2.3,13.5,4.7,27.1,7,40.6c0.1,0.5,0.7,0.7,1.1,0.4
			c11.4-7.3,22.7-14.6,34.1-21.9c27.3-17.6,54.6-35.1,81.9-52.7c33-21.2,66-42.5,99-63.7c28.5-18.4,57.1-36.7,85.6-55.1
			c9.4-6,18.7-12.1,28.1-18.1c2.9-1.9,5.9-3.8,8.8-5.7c1.4-0.9,3.5-1.7,4.6-2.9c0.1-0.2,0.4-0.3,0.6-0.4c0.5-0.3,0.5-1.2-0.2-1.4
			c-36.4-10.5-72.9-21-109.3-31.5c-9.7-2.8-19.5-5.6-29.2-8.4c-3.4-1-6.8-1.9-10.1-2.9c-1.5-0.4-4.3-0.7-5.6-1.6
			c-0.1-0.1-0.7-0.1-0.8-0.2c0.3,0.6,1.9-5.3,1.9-5.5c0.5-2.1,0.9-4.2,1.4-6.3c1.7-7.8,3.3-15.6,4.7-23.5
			c2.7-14.4,4.9-28.9,6.4-43.5c4.3-42.9,1.8-86.2-2-129.1C871.2,6.5,869.7,6.5,869.8,7.5L869.8,7.5z"/>
	</g>
</g>
<g>
	<polygon class="st8" points="706.6,236.2 1036.7,357.4 931.6,515.6 599.5,384 	"/>
	<g>
		<path class="st9" d="M706.4,237c23.8,8.7,47.6,17.5,71.4,26.2c47.4,17.4,94.8,34.8,142.3,52.2c35.7,13.1,71.4,26.2,107.2,39.3
			c2.2,0.8,6.3,3.3,8.6,3.2c1.2-0.1,0.2-0.7,0-0.6c-1,0.8-1.8,2.7-2.5,3.7c-10.1,15.1-20.1,30.3-30.2,45.4
			c-23.6,35.5-47.2,70.9-70.7,106.4c-0.4,0.6-1,2-1.6,2.4c1.2-0.8,0.6-0.2-0.4-0.8c-2.9-1.8-6.8-2.7-9.9-3.9
			c-14.5-5.7-29-11.5-43.5-17.2c-45.8-18.1-91.5-36.3-137.3-54.4c-39.7-15.7-79.5-31.5-119.2-47.2c-7-2.8-13.9-5.7-20.9-8.3
			c2.1,0.8-0.3,1.4,0.7,0.7c0.4-0.3,0.8-1.1,1.1-1.5c1.4-2,2.9-3.9,4.3-5.9c5.1-7,10.2-14,15.3-21c26.8-37,53.7-74,80.5-111.1
			c1.9-2.6,3.8-5.3,5.8-7.9c0.6-0.8-0.7-1.5-1.3-0.8c-12.1,16.7-24.2,33.3-36.3,50c-19.2,26.4-38.3,52.9-57.5,79.3
			c-4.5,6.1-8.9,12.3-13.4,18.4c-0.3,0.4,0,0.9,0.4,1.1c11,4.4,22,8.7,32.9,13.1c26.4,10.5,52.8,20.9,79.1,31.4
			c32.1,12.7,64.2,25.4,96.3,38.2c27.6,10.9,55.2,21.9,82.8,32.8c9.1,3.6,18.1,7.2,27.2,10.8c2.9,1.1,5.8,2.3,8.6,3.4
			c1.3,0.5,3.1,1.7,4.4,1.8c0.2,0,0.4,0.2,0.6,0.2c0.3,0.1,0.7-0.1,0.8-0.3c11.8-17.8,23.6-35.5,35.4-53.3
			c18.9-28.5,37.9-56.9,56.8-85.4c4.3-6.5,8.6-13,13-19.5c0.3-0.4,0-0.9-0.4-1.1c-10.9-4-21.9-8-32.8-12
			c-26.3-9.6-52.5-19.3-78.8-28.9c-31.8-11.7-63.5-23.3-95.3-35c-27.5-10.1-55-20.2-82.5-30.3c-9.1-3.3-18.1-6.7-27.2-10
			c-2.9-1-5.7-2.1-8.6-3.1c-1.3-0.5-3.1-1.6-4.4-1.6c-0.2,0-0.4-0.2-0.6-0.2C705.9,235.2,705.5,236.6,706.4,237z"/>
	</g>
</g>
<g>
	<g>
		<path class="st10" d="M12.6,355.5c13.6,11.2,29.4,19.6,46.4,24.3c19.3,5.3,39.5,5.6,59.3,4.8c15.3-0.6,30.6-1.4,44.9-7.5
			c14.8-6.2,27.5-16.5,38.5-28c23.9-25.2,38.7-57.2,60.9-83.7c11.6-13.8,25.2-25.5,41.5-33.3c16.2-7.7,34.1-11.5,51.9-12.6
			c78.1-4.9,153.1,39.6,231.1,22.6c34.5-7.5,65-26.3,94.9-44.2c15.6-9.3,31.3-18.6,47.7-26.2c18.4-8.6,37.8-15,57.7-19.1
			c36.7-7.6,81.2-9.4,110.6,18.2c12.3,11.6,21.1,27.8,20.8,45c-0.3,19.9-11.8,37.8-21.9,54.2c-18.3,29.9-39.7,59.5-48,94.1
			c-8.7,36.4,2.8,71.4,21.1,102.8c19.5,33.4,46.2,63,60.5,99.3c12.7,32.2,15.2,74.1-10.5,100.9c-20.8,21.7-56.2,29-83.5,15.9
			C820,674.8,808,659.9,794,648c-12.5-10.6-26.6-19.5-42-25.4c-14.2-5.4-29.9-8.1-45-5.2c-7.6,1.5-14.9,4.4-21.4,8.6
			c-7.3,4.7-13.9,11.2-22.4,13.8c-18.7,5.9-36.1-9-45.8-23.5c-9.3-13.8-13.9-30.3-21.9-44.8c-7-12.7-16.8-23.7-30.8-28.7
			c-12.8-4.6-27.3-4-39.8,1.2c-13.8,5.7-23.6,17-28.7,30.9c-2.9,7.9-4.1,16.2-4.9,24.6c-0.8,8.3-1.5,16.7-0.8,25
			c0.7,8.5,4,16.1,7.3,23.9c3.6,8.7,7.4,17.4,11.4,26c0.8,1.7,3.4,0.2,2.6-1.5c-8.2-17.7-18.7-36.4-18.5-56.3
			c0.1-17.5,1.7-37.1,11.5-52.1c8.8-13.6,24.2-21.2,40.2-21.7c17-0.5,31.9,7.2,42,20.8c18.8,25.6,22,64.6,55,77.9
			c6.6,2.6,13.8,3.4,20.7,1.6c7.8-2.1,14.2-7.2,20.6-11.9c14.6-10.4,31.4-14,49.1-11.1c16.9,2.8,32.9,10.5,46.9,20.1
			c15.3,10.5,27.2,24.6,41.8,35.9c23.1,17.9,53.6,20.7,79.9,8.2c29-13.7,43.1-43.5,42.3-74.7c-0.9-37.2-20.1-69.6-40.5-99.5
			c-21.6-31.7-46.1-64.1-52.4-103c-6.1-37.6,10.3-72.2,29.2-103.5c9.4-15.7,19.6-30.9,28.6-46.8c8.5-15.1,15.8-31.9,13.3-49.6
			c-4.6-33.1-35.2-54.9-66.2-60.7c-36.8-6.8-77.2,2.2-111.5,15.6c-34.1,13.3-64.1,34.4-95.9,52c-15.8,8.7-32.2,16.6-49.5,21.7
			c-19.5,5.8-39.7,7.5-59.9,6.4c-41.4-2.3-81.1-15.4-121.8-22.1c-33.6-5.6-69.4-7.4-102,4.1c-32.7,11.6-54.6,36.9-73.4,65
			c-19.4,29-37.5,61.1-68.5,79.5c-14,8.2-29,11.3-44.9,12.1c-20.9,1.2-42.2,1.8-62.7-2.9c-18.5-4.2-35.8-12.8-50.4-24.8
			C13.3,352.1,11.1,354.2,12.6,355.5L12.6,355.5z"/>
	</g>
</g>
<g>
	<g>
		<polygon class="st11" points="300.3,72.4 321.9,114.2 536.3,199.9 514.6,158 		"/>
		<g>
			<path class="st12" d="M299.6,72.8c4.4,8.6,8.9,17.2,13.3,25.8c2.5,4.8,4.9,9.5,7.4,14.3c0.6,1.1,0.8,1.7,1.7,2.3
				c3.1,2.2,8,3.2,11.5,4.6c8.1,3.2,16.2,6.5,24.3,9.7c46.9,18.7,93.8,37.5,140.7,56.2c12.5,5,25.1,10,37.6,15
				c0.7,0.3,1.1-0.6,0.8-1.1c-4.4-8.6-8.9-17.2-13.3-25.8c-2.5-4.8-4.9-9.5-7.4-14.3c-0.6-1.1-0.8-1.7-1.7-2.3
				c-3.1-2.2-8-3.2-11.5-4.6c-8.1-3.2-16.2-6.5-24.3-9.7c-46.9-18.7-93.8-37.5-140.7-56.2c-12.5-5-25.1-10-37.6-15
				c-0.9-0.4-1.3,1.1-0.4,1.4c32.5,13,65,26,97.5,38.9c38.2,15.2,76.4,30.5,114.5,45.7c0.7,0.3,2.6,1.4,2,0.7
				c2.7,2.9,4.3,8.3,6.1,11.8c5.2,10,10.3,20,15.5,29.9c0.3-0.4,0.6-0.7,0.8-1.1c-32.5-13-65-26-97.5-38.9
				c-38.2-15.2-76.4-30.5-114.5-45.7c-0.7-0.3-2.6-1.4-2-0.7c-2.7-2.9-4.3-8.3-6.1-11.8c-5.2-10-10.3-20-15.5-29.9
				C300.5,71.1,299.2,71.9,299.6,72.8z"/>
		</g>
	</g>
	<g>
		<polygon class="st11" points="559.1,142.5 514.6,158 300.3,72.4 355,61 		"/>
		<g>
			<path class="st12" d="M558.9,141.8c-9.1,3.2-18.3,6.3-27.4,9.5c-4.9,1.7-9.8,3.4-14.7,5.1c-0.4,0.1-2.8,0.8-2,0.8
				c-0.2,0-0.5-0.2-0.7-0.3c-4.1-1-8.3-3.3-12.2-4.9c-8.3-3.3-16.6-6.6-24.9-10c-46.5-18.6-93.1-37.2-139.6-55.7
				c-12.3-4.9-24.6-9.8-36.9-14.7c0,0.5,0,1,0,1.4c8.6-1.8,17.3-3.6,25.9-5.4c6.3-1.3,12.5-2.6,18.8-3.9c3-0.6,6.8-2.2,9.9-2
				c-0.5,0,0.9,0.4,1.6,0.7c1.9,0.8,3.8,1.5,5.7,2.3c7.1,2.8,14.2,5.7,21.3,8.5c45.8,18.3,91.5,36.6,137.3,54.8
				c12.7,5.1,25.3,10.1,38,15.2c0.9,0.4,1.3-1.1,0.4-1.4c-33.2-13.3-66.5-26.6-99.7-39.8c-23.2-9.3-46.4-18.5-69.7-27.8
				c-8-3.2-16-6.4-23.9-9.6c-3.2-1.3-7.2-3.8-10.7-4.3c-1.6-0.2-3.6,0.6-5.2,0.9c-6.3,1.3-12.6,2.6-18.9,3.9
				c-10.4,2.2-20.9,4.3-31.3,6.5c-0.8,0.2-0.6,1.2,0,1.4c32.8,13.1,65.6,26.2,98.4,39.3c38,15.2,76.1,30.4,114.1,45.6
				c0.8,0.3,1.5,0.7,2.4,0.7c1.2,0,2.7-1,3.8-1.3c2.9-1,5.8-2,8.7-3c10.6-3.7,21.2-7.4,31.8-11.1C560.2,143,559.9,141.5,558.9,141.8
				z"/>
		</g>
	</g>
	<g>
		<polygon class="st11" points="535.9,200.7 490.1,215.6 267.1,126.5 323.6,115.9 		"/>
		<g>
			<path class="st12" d="M535.7,200c-9.5,3.1-19,6.2-28.5,9.3c-5.1,1.7-10.3,3.2-15.4,5c-2,0.7-1,0.6-2.4,0.3
				c-4.4-1.1-8.9-3.5-13.1-5.2c-8.6-3.4-17.1-6.8-25.7-10.3c-48.4-19.3-96.8-38.6-145.1-58c-12.7-5.1-25.5-10.2-38.2-15.3
				c0,0.5,0,1,0,1.4c8.9-1.7,17.9-3.4,26.8-5.1c6.4-1.2,12.8-2.4,19.2-3.6c3.1-0.6,7.1-2.1,10.3-1.9c-0.5,0,1.1,0.5,1.7,0.7
				c2,0.8,4.1,1.6,6.1,2.4c7.5,3,15.1,6,22.6,9c47.5,19,95.1,38,142.6,57c13,5.2,26.1,10.4,39.1,15.6c0.9,0.4,1.3-1.1,0.4-1.4
				c-34.6-13.8-69.2-27.6-103.8-41.5c-24.1-9.6-48.2-19.3-72.3-28.9c-8.3-3.3-16.6-6.6-24.9-9.9c-3.4-1.4-7.5-3.9-11.1-4.4
				c-1.7-0.3-3.9,0.5-5.6,0.9c-6.3,1.2-12.6,2.4-18.9,3.6c-10.9,2-21.7,4.1-32.6,6.1c-0.8,0.2-0.6,1.2,0,1.4
				c33.9,13.6,67.9,27.1,101.8,40.7c39.7,15.8,79.4,31.7,119,47.5c4.8,1.9,10.3-1.7,15-3.2c11.1-3.6,22.3-7.2,33.4-10.9
				C537,201.1,536.6,199.7,535.7,200z"/>
		</g>
	</g>
	<g>
		<polygon class="st11" points="512.8,258.8 489.9,216.5 267,127.4 289.9,169.8 		"/>
		<g>
			<path class="st12" d="M513.5,258.5c-4.8-8.9-9.7-17.9-14.5-26.8c-2.5-4.6-5-9.2-7.5-13.8c-0.6-1.2-0.9-1.6-1.9-2.3
				c-3.4-2.2-8.3-3.3-12.1-4.8c-8.5-3.4-17.1-6.8-25.6-10.2c-48.6-19.4-97.2-38.8-145.8-58.3c-13-5.2-25.9-10.4-38.9-15.5
				c-0.6-0.3-1.1,0.6-0.8,1.1c4.8,8.9,9.7,17.9,14.5,26.8c2.5,4.6,5,9.2,7.5,13.8c0.6,1.2,0.9,1.6,1.9,2.3c3.4,2.2,8.3,3.3,12.1,4.8
				c8.5,3.4,17.1,6.8,25.6,10.2c48.6,19.4,97.2,38.8,145.8,58.3c13,5.2,25.9,10.4,38.9,15.5c0.9,0.4,1.3-1.1,0.4-1.4
				c-33.6-13.4-67.2-26.9-100.8-40.3c-39.8-15.9-79.7-31.8-119.5-47.7c-0.7-0.3-2.9-1.5-2.2-0.8c-2.7-2.8-4.4-8.1-6.2-11.4
				c-5.6-10.3-11.1-20.6-16.7-30.9c-0.3,0.4-0.6,0.7-0.8,1.1c33.6,13.4,67.2,26.9,100.8,40.3c39.8,15.9,79.7,31.8,119.5,47.7
				c0.7,0.3,2.9,1.5,2.2,0.8c2.7,2.8,4.4,8.1,6.2,11.4c5.6,10.3,11.1,20.6,16.7,30.9C512.7,260.1,514,259.3,513.5,258.5z"/>
		</g>
	</g>
	<g>
		<polygon class="st11" points="244.1,184.7 289.9,169.8 512.9,258.9 456.4,269.5 		"/>
		<g>
			<path class="st12" d="M244.3,185.4c9.5-3.1,19-6.2,28.5-9.3c5.1-1.7,10.3-3.2,15.4-5c2-0.7,1-0.6,2.4-0.3
				c4.4,1.1,8.9,3.5,13.1,5.2c8.6,3.4,17.1,6.8,25.7,10.3c48.4,19.3,96.7,38.6,145.1,58c12.7,5.1,25.5,10.2,38.2,15.3
				c0-0.5,0-1,0-1.4c-8.9,1.7-17.9,3.4-26.8,5.1c-6.4,1.2-12.8,2.4-19.2,3.6c-3.1,0.6-7.1,2.1-10.3,1.9c0.5,0-1.1-0.5-1.7-0.7
				c-2-0.8-4.1-1.6-6.1-2.4c-7.5-3-15.1-6-22.6-9c-47.5-19-95.1-38-142.6-57c-13-5.2-26.1-10.4-39.1-15.6c-0.9-0.4-1.3,1.1-0.4,1.4
				c34.6,13.8,69.2,27.6,103.8,41.5c24.1,9.6,48.2,19.2,72.3,28.9c8.3,3.3,16.6,6.6,24.9,9.9c3.4,1.4,7.5,3.9,11.1,4.4
				c1.7,0.3,3.9-0.5,5.6-0.9c6.3-1.2,12.6-2.4,18.9-3.6c10.9-2.1,21.7-4.1,32.6-6.2c0.8-0.2,0.6-1.2,0-1.4
				c-33.9-13.5-67.8-27.1-101.8-40.6c-39.7-15.8-79.3-31.7-119-47.5c-4.8-1.9-10.3,1.7-15,3.2c-11.1,3.6-22.3,7.2-33.4,10.9
				C243,184.3,243.4,185.7,244.3,185.4z"/>
		</g>
	</g>
	<g>
		<polygon class="st11" points="478.7,312.6 457.3,270.8 243.9,185.6 265.4,227.4 		"/>
		<g>
			<path class="st12" d="M479.4,312.2c-4.4-8.6-8.8-17.1-13.2-25.7c-2.4-4.7-4.8-9.4-7.2-14c-0.6-1.2-0.9-1.8-1.8-2.5
				c-3.1-2.1-7.9-3.2-11.4-4.5c-8.1-3.2-16.2-6.5-24.3-9.7c-46.7-18.6-93.3-37.3-140-55.9c-12.5-5-24.9-10-37.4-14.9
				c-0.7-0.3-1.1,0.6-0.8,1.1c4.4,8.6,8.8,17.1,13.2,25.7c2.4,4.7,4.8,9.4,7.2,14c0.6,1.2,0.9,1.8,1.8,2.5c3.1,2.1,7.9,3.2,11.4,4.5
				c8.1,3.2,16.2,6.5,24.3,9.7c46.7,18.6,93.3,37.3,140,55.9c12.5,5,24.9,10,37.4,14.9c0.9,0.4,1.3-1.1,0.4-1.4
				c-32.3-12.9-64.6-25.8-97-38.7c-38-15.2-76.1-30.4-114.1-45.6c-0.6-0.2-1.2-0.4-1.7-0.7c-0.8-0.5-0.1,0-0.2,0
				c-2.6-2.9-4.2-8.3-6-11.7c-5.1-10-10.2-19.9-15.3-29.9c-0.3,0.4-0.6,0.7-0.8,1.1c32.3,12.9,64.6,25.8,97,38.7
				c38,15.2,76.1,30.4,114.1,45.6c0.6,0.2,1.2,0.4,1.7,0.7c0.8,0.5,0.1,0,0.2,0c2.6,2.9,4.2,8.3,6,11.7c5.1,10,10.2,19.9,15.3,29.9
				C478.5,313.8,479.8,313.1,479.4,312.2z"/>
		</g>
	</g>
	<g>
		<polygon class="st11" points="221,242.9 265.4,227.4 478.7,312.6 424.2,324.1 		"/>
		<g>
			<path class="st12" d="M221.2,243.6c9.1-3.2,18.2-6.4,27.3-9.5c4.9-1.7,9.8-3.4,14.7-5.1c0.5-0.2,2.7-0.8,2-0.8
				c0.2,0,0.4,0.2,0.6,0.3c4.1,0.8,8.5,3.4,12.4,5c8.1,3.2,16.2,6.5,24.3,9.7c46.4,18.5,92.8,37.1,139.2,55.6
				c12.2,4.9,24.5,9.8,36.7,14.7c0-0.5,0-1,0-1.4c-8.6,1.8-17.2,3.6-25.8,5.4c-6.1,1.3-12.2,2.6-18.3,3.8c-3,0.6-7.1,2.3-10.2,2.1
				c0.5,0-1-0.4-1.6-0.7c-1.9-0.8-3.8-1.5-5.7-2.3c-7.1-2.8-14.2-5.7-21.3-8.5c-45.5-18.2-91.1-36.4-136.6-54.6
				c-12.6-5-25.1-10-37.7-15c-0.9-0.4-1.3,1.1-0.4,1.4c33.1,13.2,66.2,26.4,99.3,39.6c23.2,9.3,46.3,18.5,69.5,27.8
				c7.9,3.2,15.9,6.3,23.8,9.5c3.1,1.2,7.1,3.7,10.4,4.2c1.7,0.2,3.8-0.6,5.4-1c6.2-1.3,12.3-2.6,18.5-3.9
				c10.4-2.2,20.8-4.4,31.2-6.5c0.8-0.2,0.6-1.2,0-1.4c-32.6-13-65.3-26.1-97.9-39.1c-37.9-15.1-75.7-30.3-113.6-45.4
				c-0.8-0.3-1.5-0.7-2.4-0.7c-1.2,0-3,1-4.1,1.4c-2.8,1-5.6,2-8.4,2.9c-10.6,3.7-21.1,7.4-31.7,11.1
				C219.9,242.5,220.3,244,221.2,243.6z"/>
		</g>
	</g>
</g>
<g>
	<path class="st13" d="M428.7,621.4l6.9,56.6l-7.1,11.7l-0.1,0l-22.4,47.5l0.6-0.1l-13.5,21.8l-15.6-2l-16.7-140.7l50.8-52.1
		c-0.9-5.7,218.7,24.7,386.8-73.8l58.4,38.8l28,149.4l-16.6,2.7l-16.2-17l1.1-0.2l-32.4-41.5l-0.6,0.1l-10.7-10.3L799,561.5
		l57.8-32.3c-204.4,134.6-496.6,83.8-496,87.1"/>
	<g>
		<path class="st14" d="M427.9,621.4c2.2,17.8,4.3,35.6,6.5,53.4c0.4,3.4,0.4,3-1.3,5.9c-1.3,2.2-2.7,4.5-4,6.7
			c-0.8,1.3-1.1,1.6-1.3,2c-3.8,7.1-6.9,14.6-10.4,21.9c-4,8.5-8,17-12.1,25.5c-0.3,0.6,0.2,1.2,0.8,1.1c0.2,0,0.4-0.1,0.6-0.1
			c-0.3-0.4-0.6-0.7-0.8-1.1c-3.6,5.9-7.3,11.7-10.9,17.6c-0.7,1.1-1.3,2.4-2.1,3.4c-0.9,1.1,0.6,0.4-0.8,0.3c-4-0.3-7.9-1-11.9-1.5
			c-1.7-0.2-2.7-1-2.1,0.4c-0.1-0.2-0.1-0.5-0.1-0.6c0-1.2-0.3-2.5-0.4-3.7c-0.6-5.1-1.2-10.2-1.8-15.2c-4-33.3-7.9-66.7-11.9-100
			c-0.6-5.4-1.3-10.7-1.9-16.1c-0.2-1.3-0.4-2.6-0.5-4c-0.1-1.3-0.2-0.5-0.1-0.7c0.8-1.3,2.5-2.6,3.6-3.7c2.2-2.2,4.4-4.5,6.6-6.7
			c6.2-6.3,12.3-12.6,18.5-18.9c5.6-5.7,11.1-11.4,16.7-17.1c1.5-1.5,3-3,4.4-4.5c0.4-0.4,1.5-1.3,0.9-1.1c1.3-0.6,3.8-0.4,5.4-0.4
			c4.2,0,8.5,0.1,12.7,0.2c34.6,1,69.3,1.1,103.9-1.1c51.6-3.2,103.1-11,152.8-25.3c27.4-7.9,54.2-17.8,79.9-30.1
			c6.7-3.2,13.4-6.6,20-10.2c3-1.7,6.2-3.2,9.1-5.1c1.2-0.8,1.5-1.5,2.6-1.3c1.5,0.3,3.7,2.4,4.9,3.3c2.9,1.9,5.8,3.9,8.7,5.8
			c13.5,8.9,27,17.9,40.4,26.8c1,0.7,2.9,1.5,3.7,2.5c-0.5-0.6-0.1,0.1,0,0.8c0.6,3.6,1.4,7.3,2,10.9c6.1,32.4,12.1,64.8,18.2,97.1
			c2.3,12.1,4.5,24.1,6.8,36.2c0.2,1.1,0.4,2.3,0.6,3.4c0,0.2,0.1,0.5,0.1,0.6c0.2-1.3,0-0.8-1.7-0.5c-4,0.7-8.1,1.3-12.1,2
			c-1,0.2-2.5,0-1.6,0.5c-0.9-0.5-1.8-1.9-2.4-2.6c-4.6-4.8-9.1-9.5-13.7-14.3c-0.1,0.4-0.2,0.8-0.3,1.3c0.4-0.1,0.7-0.1,1.1-0.2
			c0.6-0.1,0.6-0.9,0.3-1.3c-10.8-13.8-21.6-27.7-32.4-41.5c-0.2-0.2-0.5-0.2-0.7-0.2c-0.3,0.1,0.2,0.2-0.7-0.5
			c-1-0.8-1.9-1.8-2.8-2.7c-2-2-4.4-3.8-6.2-6c-1-1.2-1.3-3.6-1.8-6c-2.3-11.6-4.7-23.1-7-34.7c-0.7-3.2-2.1-7-2.1-10.4
			c0,0.2-0.9,0.6,0.4,0.1c1.3-0.5,2.4-1.4,3.6-2c9.9-5.5,19.7-11.1,29.6-16.6c7.9-4.4,15.8-8.8,23.7-13.3c-0.3-0.4-0.5-0.9-0.8-1.3
			c-77.8,51-169.4,76.8-261.1,87.6c-66.3,7.8-133.5,7.9-200,2.3c-2.3-0.2-35.3-4.2-35.3-2.1c0,1,1.5,1,1.5,0c0,1-0.8,0.4,0.3,0.6
			c0.6,0.1,1.3,0.1,2,0.1c2.2,0.1,4.4,0.4,6.5,0.6c7.9,0.8,15.8,1.5,23.8,2.2c27.3,2.3,54.6,3.7,82,3.9
			c80.9,0.8,162.7-7.4,240.5-30.3c49.5-14.5,97.4-35.3,140.6-63.6c0.8-0.5,0.1-1.8-0.8-1.3c-19.3,10.8-38.5,21.6-57.8,32.3
			c-0.3,0.2-0.4,0.5-0.3,0.8c1.6,7.8,3.2,15.7,4.7,23.5c1.1,5.6,2.3,11.2,3.4,16.7c0.6,3.2,0.8,7.2,2.1,10.2c1,2.5,4,4.5,6,6.3
			c1.5,1.4,2.9,3.3,4.6,4.5c0.5,0.3,1.7,0.9,1,0.3c1.9,1.7,3.4,4.4,5,6.4c3.4,4.4,6.8,8.7,10.2,13.1c5.7,7.3,11.4,14.6,17.1,21.9
			c0.1-0.4,0.2-0.8,0.3-1.3c-0.4,0.1-0.7,0.1-1.1,0.2c-0.6,0.1-0.7,0.9-0.3,1.3c2.4,2.5,4.7,5,7.1,7.4c1.7,1.8,3.5,3.6,5.2,5.5
			c1,1.1,2.3,3,3.6,3.8c1.7,0.9,3.7,0.1,5.6-0.2c4-0.7,8-1.3,12-2c0.4-0.1,0.6-0.6,0.5-0.9c-5.7-30.6-11.5-61.1-17.2-91.7
			c-3.1-16.7-6.3-33.5-9.4-50.2c-0.4-2.1-0.3-6-1.6-7.8c-0.6-0.9-2.4-1.6-3.3-2.2c-3.2-2.1-6.4-4.2-9.6-6.4
			c-15.2-10.1-30.5-20.2-45.7-30.3c-0.2-0.1-0.5-0.1-0.8,0c-60.2,35.1-128.1,54.9-196.7,65.1c-50.9,7.5-102.4,9.6-153.7,8.5
			c-11.1-0.2-22.6-1.5-33.6-0.6c-0.9,0.1-1.7,0.1-2.5,0.5c-0.3,0.1-0.3,0.5-0.6,0.6c-0.2,0.2,0.4-0.5-0.3,0.3
			c-4.7,5-9.7,9.9-14.5,14.9c-7.6,7.8-15.2,15.6-22.8,23.4c-2.9,3-5.8,5.9-8.6,8.9c-1.2,1.2-3.6,2.9-4.3,4.4
			c-0.9,1.9,0.2,5.2,0.5,7.3c0.9,7.3,1.7,14.5,2.6,21.8c4.3,36.6,8.7,73.2,13,109.7c0.1,0.8,0.2,1.7,0.3,2.5
			c0.1,0.4,0.3,0.7,0.8,0.8c5.2,0.7,10.4,1.3,15.6,2c0.3,0,0.5-0.2,0.6-0.4c4.5-7.3,9-14.6,13.5-21.8c0.4-0.6-0.2-1.2-0.8-1.1
			c-0.2,0-0.4,0.1-0.6,0.1c0.3,0.4,0.6,0.7,0.8,1.1c7.4-15.6,14.3-31.6,22.2-47c0.5-0.9-0.2,0.4,0.4-0.7c1.2-2,2.4-4.1,3.7-6.1
			c1.4-2.3,3.2-4.3,3.3-6.9c0.1-3.4-0.9-7.1-1.3-10.5c-0.7-5.9-1.4-11.8-2.1-17.7c-1.1-9.1-2.2-18.2-3.3-27.3
			C429.3,620.4,427.8,620.4,427.9,621.4L427.9,621.4z"/>
	</g>
</g>
</svg>
