<svg id="Layer_1" data-name="Layer 1" xmlns="http://www.w3.org/2000/svg" viewBox="0 0 400 400"><defs><style>.cls-1{fill:#e5cc61;}.cls-2{fill:none;stroke:#fff;stroke-linecap:round;stroke-miterlimit:10;stroke-width:13px;}</style></defs><title>logo-placeholder</title><circle class="cls-1" cx="200.09" cy="200.74" r="198.74"/><path class="cls-2" d="M290.79,202.1q0,37.16-26.31,63.43T201,291.81q-37.21,0-63.52-26.27T111.12,202.1q0-37.16,26.31-63.43T201,112.4q37.21,0,63.52,26.27T290.79,202.1Zm-93.08-53.9V193.9a12.8,12.8,0,0,0,12.81,12.79h37.39"/><path class="cls-2" d="M266,105a56.37,56.37,0,0,1,29.84,35.88"/><path class="cls-2" d="M134.17,105a56.37,56.37,0,0,0-29.84,35.88"/><line class="cls-2" x1="242.39" y1="284.06" x2="254.37" y2="296.51"/><line class="cls-2" x1="164.54" y1="284.06" x2="152.56" y2="296.51"/></svg>