<svg id="Layer_1" data-name="Layer 1" xmlns="http://www.w3.org/2000/svg" viewBox="0 0 52.67 52.38"><defs><style>.cls-1{fill:none;stroke:#000;stroke-linecap:round;stroke-miterlimit:10;stroke-width:2px;}</style></defs><title>final-high-Artboard 12</title><path class="cls-1" d="M8.66,42.67l3.15-9.45a.43.43,0,0,1,.1-.17l20-20h0L33.95,11A3.48,3.48,0,0,1,36.5,10a10,10,0,0,1,4.39,1.83,9.46,9.46,0,0,1,1.72,4.28,3.47,3.47,0,0,1-1.05,2.55L39.5,20.69h0l-20,20a.43.43,0,0,1-.17.1L9.91,43.92A1,1,0,0,1,8.66,42.67Z"/><line class="cls-1" x1="33.53" y1="16.97" x2="37.71" y2="21.15"/></svg>