<svg id="Layer_1" data-name="Layer 1" xmlns="http://www.w3.org/2000/svg" viewBox="0 0 51.02 50.74"><defs><style>.cls-1{fill:none;stroke:#000;stroke-linecap:round;stroke-miterlimit:10;stroke-width:2px;}</style></defs><title>final-high-Artboard 62</title><path class="cls-1" d="M15.51,29.32V21.81a10.29,10.29,0,0,1,10-10.49h0a10.29,10.29,0,0,1,10,10.49v7.51"/><path class="cls-1" d="M13.81,36.05h0a4.31,4.31,0,0,1-4.3-4.32V28.37a4.31,4.31,0,0,1,4.3-4.32h0a1.7,1.7,0,0,1,1.7,1.7v8.6A1.7,1.7,0,0,1,13.81,36.05Z"/><path class="cls-1" d="M37.21,36.05h0a4.31,4.31,0,0,0,4.3-4.32V28.37a4.31,4.31,0,0,0-4.3-4.32h0a1.7,1.7,0,0,0-1.7,1.7v8.6A1.7,1.7,0,0,0,37.21,36.05Z"/></svg>