<svg id="Layer_1" data-name="Layer 1" xmlns="http://www.w3.org/2000/svg" viewBox="0 0 637 637"><defs><style>.cls-1{fill:#bcb19a;}.cls-2{fill:#fff;}</style></defs><title>home-shape-Artboard 19 copy 11</title><path class="cls-1" d="M420.58,6.93c11.78,133.47,3.93,186.46-15.7,274.78L609,340.59,157.58,631.07,83,199.28c96.82,1.86,308.1-120.6,337.58-192.35"/><path class="cls-2" d="M419.83,6.93c3.68,41.9,6.4,84,5.3,126.08a625.54,625.54,0,0,1-9.85,94.29c-3.26,18.16-7.12,36.2-11.12,54.21a.76.76,0,0,0,.52.92l69,19.91,109.94,31.71,25.17,7.26-.18-1.37-56.9,36.62L420.56,461,274.49,555,172.67,620.47l-11.4,7.33a15.58,15.58,0,0,0-3.08,2c-1.61,1.87.11-1.06.11,1.08a37.85,37.85,0,0,0-1-6l-2.8-16.22L131,472.9,101.59,302.52,84.19,201.77c-.09-.49-.63-2-.43-2.5-.28.67,1.19.78,2.45.77,3.07,0,6.15-.16,9.22-.4,14.24-1.07,28.33-4,42.11-7.65,34.2-9.12,67.15-23,98.81-38.7a731.06,731.06,0,0,0,98-58.16c25.28-17.89,50.39-37.63,70.2-61.64,6.63-8,12.71-16.7,16.74-26.36.37-.89-1.08-1.28-1.45-.4-7.66,18.37-22.39,33.68-36.65,47.13-19.62,18.51-41.38,34.75-63.78,49.73-49.32,33-103.14,61.31-159.52,80.09-24.61,8.2-50.77,15.26-76.91,14.85a.76.76,0,0,0-.72.95l7.42,43,17.82,103.18L129,470l18.71,108.32,6.11,35.39,1.91,11c.29,1.7.25,4.23,1,5.8a3.18,3.18,0,0,1,.13.76.75.75,0,0,0,1.1.44l45-28.94,108-69.48,130.15-83.75,112.56-72.43,37.35-24,11.5-7.4c1.92-1.24,4.5-2.38,6.16-4a4.65,4.65,0,0,1,.74-.47.76.76,0,0,0-.18-1.37l-49.26-14.21-94-27.11-39.24-11.32-13.25-3.82c-2.14-.62-5.44-.93-7.34-2.12-1-.65-.52,0-.66-.49-.25-.89,1.65-5.86,2-7.27q.9-4.09,1.78-8.19c2.19-10.19,4.29-20.41,6.22-30.66,3.61-19.19,6.56-38.5,8.48-57.94,4.81-48.55,3-97.47-.64-146q-.9-11.89-2-23.77c-.08-.95-1.58-1-1.5,0Z"/></svg>