<svg id="Layer_1" data-name="Layer 1" xmlns="http://www.w3.org/2000/svg" viewBox="0 0 1024 768"><defs><style>.cls-1{fill:#feefd8;}.cls-2{fill:#ec7724;}.cls-3{fill:#0071bc;}.cls-4{fill:#0c3d8c;}</style></defs><title>home-shape-Artboard 1 copy 6</title><rect class="cls-1" x="32" y="104" width="960" height="560"/><path class="cls-2" d="M63.44,133.56l31.5,31.5a1.5,1.5,0,0,0,2.12-2.12l-31.5-31.5a1.5,1.5,0,0,0-2.12,2.12Z"/><path class="cls-2" d="M94.94,131.44l-31.5,31.5a1.5,1.5,0,0,0,2.12,2.12l31.5-31.5a1.5,1.5,0,0,0-2.12-2.12Z"/><polygon class="cls-3" points="465.58 408.21 474.82 548.54 499.19 561.15 548.77 556.11 567.26 427.54 552.13 408.21 465.58 408.21"/><path class="cls-4" d="M464.83,408.21l6.23,94.64,2.87,43.53c.25,3.81,2.57,3.88,6.07,5.69l13.25,6.85c1.76.91,4,2.68,6,3,2.58.38,6.05-.61,8.63-.87l16.59-1.69,24.29-2.47a.76.76,0,0,0,.72-.55l15.36-106.79,2.82-19.62c.67-4.68-3.73-7.81-6.53-11.38l-5.26-6.73c-.86-1.09-1.91-3.2-3.09-3.94-.92-.58-1.95-.39-3.08-.39H465.58a.75.75,0,0,0,0,1.5h84.13a8.78,8.78,0,0,1,2,0c.47.14-.32-.41.59.75,2.91,3.65,5.76,7.35,8.64,11l4.12,5.27c.49.63,1.64,2.78,1.42,1.38.5,3.24-1.15,8-1.61,11.19l-8.34,58-7.64,53.1c-.25,1.78-.71,3.65-.78,5.45a2.65,2.65,0,0,1-.11.79c.55-1.1.31-.37-1.25-.34-9,.17-18.28,1.86-27.26,2.77L505,559.81c-1.41.14-2.83.27-4.24.43-.39,0-1.9.07-1.29.21-3.13-.71-6.66-3.44-9.49-4.91-4.31-2.23-8.57-4.69-13-6.71-.78-.36-2-1.47-1.44-.32a3.47,3.47,0,0,1-.07-1.07c-.06-1.81-.24-3.62-.36-5.43l-1.44-21.87-7.21-109.49-.16-2.44C466.27,407.25,464.76,407.25,464.83,408.21Z"/></svg>