<svg id="Layer_1" data-name="Layer 1" xmlns="http://www.w3.org/2000/svg" viewBox="0 0 637 637"><defs><style>.cls-1{fill:#0071bc;}.cls-2{fill:#005890;}</style></defs><title>home-shape-Artboard 19 copy 9</title><polygon class="cls-1" points="203.47 10.13 109.79 521.2 185.7 588.37 367.86 615.1 550.25 171.24 513.52 88.33 203.47 10.13"/><path class="cls-2" d="M202.74,9.94,196.87,42,182,123.23,162,232.14,140.84,347.68l-18.27,99.64L111.08,510c-.54,2.94-2.47,7.8-2,10.8.24,1.45,1.62,2.2,2.77,3.21l14.48,12.82,41.73,36.93,14.49,12.82c1.28,1.13,2.16,2.1,3.7,2.6,3,1,6.68,1,9.78,1.44l18.47,2.71,53.2,7.81L362.09,615l5.57.81a.79.79,0,0,0,.93-.52l15.91-38.73,39.14-95.25,48.83-118.84,45.46-110.64,28.91-70.36c1.09-2.65,4.19-7.28,4.16-10.25,0-.91-.9-2.17-1.25-3L546.1,160l-11.76-26.56L521.9,105.41,517.16,94.7c-.82-1.85-1.46-4.27-2.63-5.93-2-2.89-8.78-3.17-12.09-4L410.13,61.48,286.65,30.34l-79-19.93-4-1a.75.75,0,0,0-.4,1.45l51.38,13L366,51.91,473.63,79.05l31.86,8a67,67,0,0,1,7,1.77c.67.25.9.43.41-.09.77.82,1.18,2.66,1.62,3.67l21.1,47.63L546,163.51c1,2.18,1.84,4.45,2.92,6.59.41.82.47,1.83.56,1-.41,3.47-3.17,7.71-4.48,10.9L533.94,209l-36.5,88.83L451.5,409.6,407.17,517.47l-31.52,76.71-7.46,18.17a13.54,13.54,0,0,1-1.05,2.55c.8-1.16.94-.31-.73-.76a38.53,38.53,0,0,0-4.68-.69l-101-14.82-52.94-7.76-16.37-2.41c-1.46-.21-2.95-.36-4.4-.64-.45-.09-1.47-.33-.92-.06-3.48-1.72-6.88-6.08-9.76-8.63l-20-17.68L116,525.65a39.29,39.29,0,0,0-4.7-4.16c-.85-.53-.86-1.18-.71-.2-.15-.93.44-2.41.6-3.32l3.56-19.4,14.48-79,20.55-112.09,22.18-121L191,82.24l11.6-63.3,1.58-8.61C204.36,9.39,202.92,9,202.74,9.94Z"/></svg>