<svg id="Layer_1" data-name="Layer 1" xmlns="http://www.w3.org/2000/svg" viewBox="0 0 637 637"><defs><style>.cls-1{fill:#c69c6d;}.cls-2{fill:#7f7869;}</style></defs><title>home-shape-Artboard 19 copy 7</title><polygon class="cls-1" points="189.48 42.53 265.26 9.5 308.01 359.26 446.95 587.58 389.63 625.48 245.83 394.24 189.48 42.53"/><path class="cls-2" d="M189.86,43.18l75.78-33-1.12-.65,12.91,105.7,22.15,181.21,6.77,55.38c.3,2.44.18,5.52,1,7.85,1.11,3.12,3.78,6.23,5.49,9L397.6,507.92l39.49,64.91,5.52,9.07c.89,1.46,1.84,4,3.12,5.13a3.1,3.1,0,0,1,.55.89c-.42-1.21.6-.92-1.2,0-4.49,2.29-8.68,5.74-12.88,8.52l-36.88,24.38a44.17,44.17,0,0,0-4.58,3c-1.46,1.26-1.42.26-.51,1.19a18.2,18.2,0,0,1-1.89-3l-29.7-47.77L265,423.7l-14-22.55c-1.27-2-3.9-5.57-4.48-7.24-1-3-1.09-6.78-1.59-9.89l-3.76-23.46L214.05,191.17,191.43,50l-1.22-7.67c-.16-.95-1.6-.54-1.45.4l15.55,97.08L232.2,313.87l10,62.25,2.51,15.63a10.22,10.22,0,0,0,1.32,4.17c7.73,13.57,16.55,26.62,24.79,39.88l45,72.32,71.91,115.62,1.31,2.11a.75.75,0,0,0,1,.27l57.33-37.89a.76.76,0,0,0,.27-1L387.72,488.8,312.17,364.65c-1-1.61-2-3.19-2.94-4.83-.47-.85-.49-.78-.49-.79-.91-3.06-.84-6.8-1.22-9.95L301,295.62,280.13,125c-4.63-37.89-8.78-75.87-13.9-113.7-.08-.58-.14-1.17-.21-1.76a.77.77,0,0,0-1.13-.65l-75.79,33C188.22,42.27,189,43.56,189.86,43.18Z"/></svg>