<svg id="Layer_1" data-name="Layer 1" xmlns="http://www.w3.org/2000/svg" viewBox="0 0 637 637"><defs><style>.cls-1{fill:#f08372;}.cls-2{fill:#b4252d;}</style></defs><title>home-shape-Artboard 19 copy 3</title><path class="cls-1" d="M90.07,336l8.1,66.9-8.36,13.86h-.09L63.19,472.82l.73-.12L48,498.51l-18.43-2.34L9.79,329.86l60-61.56c-1.1-6.73,258.53,29.13,457.19-87.2l69.07,45.82,33.11,176.61-19.65,3.21-19.21-20.06,1.27-.21-38.35-49.05-.68.11L540,325.32,527.8,265.14l68.27-38.22C354.48,386,9.16,326,9.79,329.86"/><path class="cls-2" d="M89.32,336l7.62,63c.47,3.9.57,3.54-1.44,6.88l-4.74,7.86c-.76,1.27-1.59,2.49-1.71,2.71-4.62,8.43-8.29,17.53-12.4,26.21L62.54,472.44a.76.76,0,0,0,.85,1.1l.73-.11-.85-1.11L50.42,493.11c-.85,1.38-1.64,2.85-2.58,4.17s.61.46-.9.35c-4.72-.36-9.45-1.2-14.14-1.8a14.78,14.78,0,0,0-2.46-.31c-1,.06-.63-.6-.06.63a2.66,2.66,0,0,1-.09-.75c-.12-1.39-.33-2.79-.5-4.18l-2.15-18.13-14-118-2.25-18.95c-.19-1.67-.34-3.35-.59-5-.18-1.19-.08-1.11-.16-1,.8-1.5,2.87-2.94,4-4.14l7.73-7.93,21.86-22.42,19.62-20.12c1.83-1.88,3.8-3.7,5.53-5.68.34-.39,1.66-1.57,1.13-1.31,1.4-.68,4.52-.44,6.3-.46,5,0,9.92.14,14.87.28,40.67,1.12,81.29,1.34,121.92-1.17,61-3.78,121.9-12.84,180.72-29.66A609.41,609.41,0,0,0,489,202q11.58-5.52,22.87-11.6,5.67-3.06,11.27-6.27c1.59-.91,2.63-2.31,4.06-2,1.73.36,4.09,2.71,5.53,3.67L543,192.58l48,31.84c1.3.86,3.52,1.79,4.53,3-.25-.3-.06-.05.11,1,.66,4.13,1.54,8.24,2.31,12.35L619.38,355.3l8.11,43.31a22.66,22.66,0,0,0,.8,4.27,2.09,2.09,0,0,1,.15.79s.81-.93.29-.82c-.7.15-1.42.23-2.13.35L612,405.58a14.55,14.55,0,0,1-2,.32c-1,0-.41.07-.1.23-1-.49-1.94-2-2.67-2.79l-16.46-17.19-.33,1.25,1.27-.2c.62-.1.64-.87.33-1.26l-38.35-49.05a.75.75,0,0,0-.73-.19c-.34.05-.07.1-1.09-.8s-2.07-2-3.1-3c-2.46-2.38-5.13-4.66-7.43-7.19-1.26-1.4-1.57-4.64-2.13-7.41L531,277.21c-.75-3.73-2.4-8.12-2.41-11.95,0,0-.89.53.49,0a32.17,32.17,0,0,0,4.32-2.42l35-19.57,28.09-15.73-.76-1.29c-46.93,30.8-98.47,54-152,70.81-50.78,16-103.23,26.41-156.06,32.63a1115,1115,0,0,1-137,7.34q-49.9-.29-99.68-4.54c-9.69-.81-19.38-1.75-29.07-2.69-2.76-.26-5.53-.55-8.3-.75-.85-.06-3.06-.57-3.87-.07-.37.24-.78.29-.77.86a.75.75,0,0,0,1.5,0c0,.95-.81.44.43.57.72.07,1.47.06,2.19.1,2.64.17,5.27.45,7.9.7,9.24.89,18.48,1.8,27.73,2.59q48.17,4.13,96.56,4.69a1126.59,1126.59,0,0,0,133.71-6.33C329.89,326.64,380.4,317.31,429.5,303c52-15.19,102.53-36.09,149-64.09q9.09-5.48,18-11.31a.75.75,0,0,0-.76-1.29l-68.27,38.22a.77.77,0,0,0-.34.85l5.39,26.7,4.11,20.4c.79,3.88,1.11,8.36,2.45,12.1,1,2.91,4.12,4.92,6.34,7.07,1.88,1.82,3.74,4.29,5.91,5.73.34.22,2.34,1.39,1.48.68,2.38,2,4.27,5.45,6.17,7.89l11.73,15L591.06,387l.33-1.25-1.27.21a.76.76,0,0,0-.33,1.25l8.24,8.6,6.29,6.57c1.25,1.31,2.65,3.41,4.19,4.38,2,1.25,4.39.19,6.76-.2l14.11-2.31a.76.76,0,0,0,.52-.92L609.61,295.06l-11.12-59.3c-.46-2.43-.39-7.3-1.89-9.38-.79-1.08-3-2-4-2.69l-11-7.32-54.15-35.92a.74.74,0,0,0-.76,0c-70.95,41.39-151,64.8-231.9,76.84-60.12,8.95-121,11.48-181.69,10.16-13.26-.29-26.92-1.7-40.17-.73a9.83,9.83,0,0,0-3.09.53c-.37.16-.41.52-.67.71s.37-.44-.34.33c-5.62,6.21-11.73,12-17.58,18L24.51,313.68,14.3,324.16c-1.33,1.35-4.17,3.3-5,5.07-1,2.26.38,6.49.67,8.89l3.12,26.34,15.3,128.87.34,2.84a.78.78,0,0,0,.75.75L48,499.26a.76.76,0,0,0,.65-.37l16-25.81a.76.76,0,0,0-.85-1.1l-.73.12.85,1.1c8.72-18.44,16.85-37.31,26.21-55.43.59-1.13-.16.26.56-.93l4.28-7.09c1.57-2.6,3.86-5,3.88-8.06,0-4.17-1-8.65-1.54-12.79l-2.48-20.47L90.82,336c-.12-.94-1.62-.95-1.5,0Z"/></svg>