<svg id="Layer_1" data-name="Layer 1" xmlns="http://www.w3.org/2000/svg" viewBox="0 0 637 637"><defs><style>.cls-1{fill:#7cb593;}.cls-2{fill:#006837;}</style></defs><title>home-shape-Artboard 19 copy 13</title><polygon class="cls-1" points="163.88 145.14 622.59 313.58 476.43 533.36 15 350.49 163.88 145.14"/><path class="cls-2" d="M163.68,145.87l27.89,10.24,71.27,26.17,96.05,35.26,102.22,37.54,89.43,32.84,58.94,21.64,7.72,2.83c1.13.42,3.12,1.63,4.33,1.59,1.4,0,.44-.58.14-.37-1.34.94-2.52,3.79-3.41,5.13l-42,63.22-59.3,89.17-39,58.6c-.57.85-1.3,2.65-2.16,3.25,1.16-.82.26-.49-1-1.07-4.48-2.1-9.28-3.68-13.88-5.51l-60.42-23.94-89.86-35.61L209.36,426.71l-94.88-37.6-70.65-28c-9.53-3.78-19-7.8-28.61-11.34,1.85.68-.45,1.24.83.54.55-.3,1.15-1.58,1.51-2.08l5.93-8.18,21.26-29.33,61.34-84.61,50.6-69.78,7.84-10.82c.56-.78-.74-1.53-1.3-.76l-50.5,69.66L32.87,324.57,14.35,350.12c-.31.43.05.94.45,1.1l45.93,18.2L171,413.12,303.94,465.8l115.69,45.85,37.83,15,11.85,4.7c1.85.73,4.14,2.14,6.13,2.43a3.33,3.33,0,0,1,.79.31.76.76,0,0,0,.85-.34l49.65-74.66,78.45-118L623.24,314a.76.76,0,0,0-.45-1.1l-45.56-16.73L467.79,255.94,335.34,207.3,220.75,165.23l-38-14L171.05,147c-1.88-.69-4.15-2-6.15-2.26a4.73,4.73,0,0,1-.82-.3C163.17,144.09,162.78,145.53,163.68,145.87Z"/></svg>