<svg id="Layer_3" data-name="Layer 3" xmlns="http://www.w3.org/2000/svg" viewBox="0 0 400 400"><defs><style>.cls-1{fill:none;stroke:#000;stroke-miterlimit:10;stroke-width:0.75px;}</style></defs><title>repository-icon-parallel</title><path class="cls-1" d="M320.75,66.49c0,4.2-.67,28.62-20.79,47.51-19.55,18.36-43.12,18-47.5,17.81v0c-4.39-.16-28-.55-47.51,17.81-20.12,18.89-20.75,43.31-20.79,47.51v0c0,4.2-.67,28.62-20.78,47.51-19.56,18.36-43.13,18-47.51,17.81v0c-4.39-.16-28-.55-47.51,17.81-20.11,18.89-20.75,43.31-20.79,47.51"/><path class="cls-1" d="M351.93,97.67c0,4.2-.68,28.62-20.79,47.51-19.55,18.36-43.12,18-47.51,17.81v0c-4.38-.16-27.95-.55-47.51,17.81-20.11,18.89-20.74,43.31-20.78,47.51v0c0,4.2-.67,28.62-20.79,47.5-19.55,18.37-43.12,18-47.51,17.82v0c-4.38-.16-27.95-.55-47.5,17.81C79.42,330.38,78.79,354.8,78.75,359"/></svg>