<svg id="Layer_3" data-name="Layer 3" xmlns="http://www.w3.org/2000/svg" viewBox="0 0 400 400"><defs><style>.cls-1{fill:none;stroke:#000;stroke-miterlimit:10;stroke-width:0.75px;}</style></defs><title>repository-icon-curl</title><path class="cls-1" d="M43,142a24,24,0,0,0,7.2,9.6c7.63,6,16.54,5.08,19.2,4.8,8-.83,13.49-4.77,16.8-7.2,6.08-4.46,5.54-6.58,12-12a46.89,46.89,0,0,1,16.79-9.6,38.22,38.22,0,0,1,24,0,35.28,35.28,0,0,1,24,31.2c.42,4.1,1.71,15.33-4.8,24A47,47,0,0,1,151,190c-4.79,3.87-6.64,3.83-9.6,7.2a19,19,0,0,0-4.8,9.6,18.43,18.43,0,0,0,2.4,12c4,6.68,11,8.66,14.4,9.6,4,1.11,7.19,1.16,19.2,0,13.92-1.36,16.08-2,21.6-2.4,7.4-.48,16.39-.9,26.4,2.4A53,53,0,0,1,247,247.58c7.86,11,9,22,9.59,28.8,1,10.59,2.24,24.81-7.19,36-12.8,15.18-35,12.48-38.4,12-2-.28-22.68-3.51-33.6-21.6-12.27-20.33-2.72-43.72,0-50.4,15.27-37.4,58.38-51,79.19-57.59a154.13,154.13,0,0,1,45.6-7.2,103.85,103.85,0,0,1,26.4,2.4c10.65,2.51,14.77,5.5,16.8,7.2a31.42,31.42,0,0,1,9.6,14.4c1,3,3.41,10.62,0,19.2-.83,2.08-4.7,11-14.4,14.39-11.81,4.14-22.14-3.43-24-4.8a32,32,0,0,1-9.6-12c-1.1-2.15-3.6-7.49-4.8-24a200.06,200.06,0,0,1,0-28.8c.38-5.3,1.05-10.73,2.4-21.6,1.53-12.33,1.86-13.08,2.4-19.2,1.11-12.58,1.67-18.88,0-24-3.54-10.85-12.85-16.71-16.8-19.2-12.47-7.84-25.41-7.45-33.6-7.19a75.62,75.62,0,0,0-16.79,2.4"/></svg>