<svg id="Layer_1" data-name="Layer 1" xmlns="http://www.w3.org/2000/svg" viewBox="0 0 49.67 48.98"><defs><style>.cls-1{fill:none;stroke:#fff;stroke-linecap:round;stroke-miterlimit:10;stroke-width:2px;}</style></defs><title>clock-alarm</title><path class="cls-1" d="M40.67,25.67a14.43,14.43,0,0,1-4.4,10.6,14.47,14.47,0,0,1-10.61,4.39,14.47,14.47,0,0,1-10.61-4.39,14.43,14.43,0,0,1-4.4-10.6,14.43,14.43,0,0,1,4.4-10.6,14.47,14.47,0,0,1,10.61-4.39,14.47,14.47,0,0,1,10.61,4.39A14.43,14.43,0,0,1,40.67,25.67Zm-15.55-9V24.3a2.14,2.14,0,0,0,2.14,2.14h6.25"/><path class="cls-1" d="M36.54,9.44a9.42,9.42,0,0,1,5,6"/><path class="cls-1" d="M14.51,9.44a9.42,9.42,0,0,0-5,6"/><line class="cls-1" x1="32.59" y1="39.36" x2="34.59" y2="41.44"/><line class="cls-1" x1="19.58" y1="39.36" x2="17.58" y2="41.44"/></svg>