<svg id="Layer_1" data-name="Layer 1" xmlns="http://www.w3.org/2000/svg" viewBox="0 0 49.95 50.73"><defs><style>.cls-1{fill:none;stroke:#fff;stroke-linecap:round;stroke-miterlimit:10;stroke-width:2px;}</style></defs><title>clock</title><path class="cls-1" d="M41.75,26a16.38,16.38,0,0,1-5,12,16.38,16.38,0,0,1-12,5,16.38,16.38,0,0,1-12-5,16.38,16.38,0,0,1-5-12,16.38,16.38,0,0,1,5-12,16.38,16.38,0,0,1,12-5,16.38,16.38,0,0,1,12,5A16.38,16.38,0,0,1,41.75,26ZM24.14,15.75v8.66a2.42,2.42,0,0,0,2.42,2.42h7.08"/></svg>