<svg id="Layer_1" data-name="Layer 1" xmlns="http://www.w3.org/2000/svg" viewBox="0 0 50.33 50.06"><defs><style>.cls-1{fill:none;stroke:#fff;stroke-linecap:round;stroke-miterlimit:10;stroke-width:2px;}</style></defs><title>cloud</title><path class="cls-1" d="M36.13,34.24a6,6,0,0,0,.21-12,5.35,5.35,0,0,0-1.64.19.87.87,0,0,1-1.07-.9h0a9.09,9.09,0,0,0-8.84-9.33A9.09,9.09,0,0,0,16,21.57h0a.87.87,0,0,1-1.07.9,5.35,5.35,0,0,0-1.64-.19,6,6,0,0,0,.21,12Z"/><path class="cls-1" d="M35.45,22.29a6.94,6.94,0,0,0-4.35,3"/></svg>