<svg id="Layer_1" data-name="Layer 1" xmlns="http://www.w3.org/2000/svg" viewBox="0 0 45.13 44.88"><defs><style>.cls-1{fill:none;stroke:#fff;stroke-linecap:round;stroke-miterlimit:10;stroke-width:2px;}</style></defs><title>cloud-down</title><path class="cls-1" d="M34,31a6,6,0,0,0,5.66-6.37,6,6,0,0,0-5.45-5.94,5.2,5.2,0,0,0-1.64.19A.88.88,0,0,1,31.5,18h0c0-5.3-4-9.6-8.84-9.6s-8.84,4.3-8.84,9.6h0a.88.88,0,0,1-1.07.92,5.2,5.2,0,0,0-1.64-.19,6,6,0,0,0-5.45,5.94A6,6,0,0,0,11.33,31Z"/><line class="cls-1" x1="22.66" y1="18.74" x2="22.66" y2="39.33"/><line class="cls-1" x1="17.66" y1="36.28" x2="22.66" y2="40.39"/><line class="cls-1" x1="27.66" y1="36.28" x2="22.66" y2="40.39"/></svg>