<svg id="Layer_1" data-name="Layer 1" xmlns="http://www.w3.org/2000/svg" viewBox="0 0 46.03 45.78"><defs><style>.cls-1{fill:none;stroke:#fff;stroke-linecap:round;stroke-miterlimit:10;stroke-width:2px;}</style></defs><title>coffee</title><rect class="cls-1" x="13.81" y="12.34" width="18.41" height="21.09" rx="2.08" ry="2.08"/><path class="cls-1" d="M32.22,24.08a4.1,4.1,0,0,0,1.67.35,3.91,3.91,0,1,0,0-7.82,4.1,4.1,0,0,0-1.62.33"/><path class="cls-1" d="M17.91,3.66a2.36,2.36,0,0,1,.36,2.52c-.66,1.42-.32,2.21.29,2.47"/><path class="cls-1" d="M22.77,1.43a5.16,5.16,0,0,1,.79,5.51c-1.45,3.1-.7,4.84.64,5.4"/><path class="cls-1" d="M27.83,3.9a2.36,2.36,0,0,1,.36,2.52c-.66,1.42-.32,2.21.29,2.47"/><line class="cls-1" x1="32.22" y1="16.61" x2="19.61" y2="16.61"/></svg>