<svg id="Layer_1" data-name="Layer 1" xmlns="http://www.w3.org/2000/svg" viewBox="0 0 53.7 53.4"><defs><style>.cls-1{fill:none;stroke:#fff;stroke-linecap:round;stroke-miterlimit:10;stroke-width:2px;}</style></defs><title>leaf</title><path class="cls-1" d="M20.24,30.57c1-1.91,3.6-6.21,7.94-7.79a.47.47,0,0,1,.55.7,27.91,27.91,0,0,0-4,9.06.27.27,0,0,0,.3.32c3.46-.44,7.94-1.66,11.1-4.83,4.47-4.49,5-11.6,5-14.72a1.59,1.59,0,0,0-1.6-1.6c-3.12,0-10.23.59-14.7,5.08-4,4-4.87,10.2-5,13.67A.22.22,0,0,0,20.24,30.57Z"/><path class="cls-1" d="M21.31,33.93s-2.12,2.48-1.73,7.78"/></svg>