<svg id="Layer_1" data-name="Layer 1" xmlns="http://www.w3.org/2000/svg" viewBox="0 0 46.5 49.56"><defs><style>.cls-1{fill:none;stroke:#fff;stroke-linecap:round;stroke-miterlimit:10;stroke-width:2px;}</style></defs><title>mail</title><path class="cls-1" d="M39.37,15.08A2.25,2.25,0,0,1,40,16.67v1.5a3.44,3.44,0,0,1-2.05,3.18L24.38,27.1a3.52,3.52,0,0,1-2.75,0L7.05,20.93A1.76,1.76,0,0,1,6,19.3V16.67a2.24,2.24,0,0,1,.63-1.59,2,2,0,0,1,1.49-.67H37.87A2,2,0,0,1,39.37,15.08ZM40,18.94V36.14a2.25,2.25,0,0,1-.63,1.59,2,2,0,0,1-1.49.67H8.12a2,2,0,0,1-1.49-.67A2.24,2.24,0,0,1,6,36.14V18.94M37.5,37.78l-7-8m-15,0-7,8"/></svg>