<svg id="Layer_1" data-name="Layer 1" xmlns="http://www.w3.org/2000/svg" viewBox="0 0 55.37 55.07"><defs><style>.cls-1{fill:none;stroke:#fff;stroke-linecap:round;stroke-miterlimit:10;stroke-width:2px;}</style></defs><title>sound</title><path class="cls-1" d="M30.8,11.91a1.53,1.53,0,0,1,1.38,1.29V40.62a1.53,1.53,0,0,1-1.38,1.29h-.12a2,2,0,0,1-1.08-.35c-2.69-2.19-10.32-6.8-10.44-6.91H13.42a1.87,1.87,0,0,1-1.35-.56,1.78,1.78,0,0,1-.57-1.32V21.28A1.78,1.78,0,0,1,12.07,20a1.88,1.88,0,0,1,1.35-.56h5.73a70.14,70.14,0,0,0,10.44-7.15,2,2,0,0,1,1.08-.35h.12Z"/><path class="cls-1" d="M36.79,18.19a8.48,8.48,0,1,1,0,17"/><path class="cls-1" d="M36.79,22.1a4.57,4.57,0,1,1,0,9.13"/></svg>