<svg id="Layer_1" data-name="Layer 1" xmlns="http://www.w3.org/2000/svg" viewBox="0 0 52.29 52"><defs><style>.cls-1{fill:none;stroke:#fff;stroke-linecap:round;stroke-miterlimit:10;stroke-width:2px;}</style></defs><title>sound-low</title><path class="cls-1" d="M33.07,9.37a1.53,1.53,0,0,1,1.38,1.29V38.09a1.53,1.53,0,0,1-1.38,1.29h-.12A2,2,0,0,1,31.87,39c-2.69-2.19-10.32-6.8-10.44-6.91H15.69a1.87,1.87,0,0,1-1.35-.56,1.78,1.78,0,0,1-.57-1.32V18.75a1.78,1.78,0,0,1,.57-1.32,1.88,1.88,0,0,1,1.35-.56h5.73A70.14,70.14,0,0,0,31.87,9.73a2,2,0,0,1,1.08-.35h.12Z"/></svg>