<svg id="Layer_1" data-name="Layer 1" xmlns="http://www.w3.org/2000/svg" viewBox="0 0 56.42 56.11"><defs><style>.cls-1{fill:none;stroke:#fff;stroke-linecap:round;stroke-miterlimit:10;stroke-width:2px;}</style></defs><title>sound-off</title><path class="cls-1" d="M29,13.76A1.53,1.53,0,0,1,30.39,15V42.47A1.53,1.53,0,0,1,29,43.76h-.12a2,2,0,0,1-1.08-.35c-2.69-2.19-10.32-6.8-10.44-6.91H11.63a1.87,1.87,0,0,1-1.35-.56,1.78,1.78,0,0,1-.57-1.32V23.14a1.78,1.78,0,0,1,.57-1.32,1.88,1.88,0,0,1,1.35-.56h5.73A70.14,70.14,0,0,0,27.8,14.11a2,2,0,0,1,1.08-.35H29Z"/><line class="cls-1" x1="36.08" y1="25.26" x2="44.08" y2="33.26"/><line class="cls-1" x1="44.08" y1="25.26" x2="36.08" y2="33.26"/></svg>