<svg id="Layer_1" data-name="Layer 1" xmlns="http://www.w3.org/2000/svg" viewBox="0 0 55.33 55.02"><defs><style>.cls-1{fill:none;stroke:#000;stroke-linecap:round;stroke-miterlimit:10;stroke-width:2px;}</style></defs><title>final-high-Artboard 45</title><path class="cls-1" d="M14.65,26.87l10.47-11a1,1,0,0,1,1.74.74v4.72a1,1,0,0,0,.91,1.05c3.79.42,18.18,2.88,20.56,15.87a1,1,0,0,1-1.72,1c-3.42-3.59-10.73-9.9-18.91-8.68a1,1,0,0,0-.85,1V37a1,1,0,0,1-1.68.8L14.72,28.42A1.09,1.09,0,0,1,14.65,26.87Z"/></svg>