<svg id="Layer_1" data-name="Layer 1" xmlns="http://www.w3.org/2000/svg" viewBox="0 0 52.9 52.61"><defs><style>.cls-1{fill:none;stroke:#000;stroke-linecap:round;stroke-miterlimit:10;stroke-width:2px;}.cls-2{font-size:12px;font-family:MyriadPro-Regular, Myriad Pro;}.cls-3{letter-spacing:-0.01em;}.cls-4{letter-spacing:-0.01em;}.cls-5{letter-spacing:-0.01em;}.cls-6{letter-spacing:0em;}.cls-7{letter-spacing:0em;}.cls-8{letter-spacing:-0.01em;}.cls-9{letter-spacing:-0.01em;}.cls-10{letter-spacing:0em;}</style></defs><title>final-high-Artboard 75</title><path class="cls-1" d="M19.43,18.84l20.46-6.71a1,1,0,0,1,1.28.95V32.93a1,1,0,0,1-1.28.95L19.43,28"/><line class="cls-1" x1="36.52" y1="14.21" x2="36.52" y2="24.36"/><rect class="cls-1" x="11.17" y="18.33" width="7.75" height="10.36" rx="1.25" ry="1.25"/><rect class="cls-1" x="13.04" y="28.69" width="4" height="8" rx="0.42" ry="0.42"/><text class="cls-2" transform="translate(-54.55 55.66)">s<tspan class="cls-3" x="4.75" y="0">c</tspan><tspan x="10.06" y="0">o</tspan><tspan class="cls-4" x="16.64" y="0">r</tspan><tspan x="20.45" y="0">er(thi</tspan><tspan class="cls-5" x="47.23" y="0">s</tspan><tspan class="cls-6" x="51.85" y="0">.st</tspan><tspan class="cls-7" x="63.06" y="0">a</tspan><tspan class="cls-8" x="68.79" y="0">t</tspan><tspan class="cls-9" x="72.7" y="0">e</tspan><tspan x="78.56" y="0">.</tspan><tspan class="cls-10" x="81.05" y="0">v</tspan><tspan x="86.77" y="0">alue)</tspan></text></svg>