<svg id="Layer_1" data-name="Layer 1" xmlns="http://www.w3.org/2000/svg" viewBox="0 0 46.03 45.78"><defs><style>.cls-1{fill:none;stroke:#000;stroke-linecap:round;stroke-miterlimit:10;stroke-width:2px;}.cls-2{font-size:12px;font-family:MyriadPro-Regular, Myriad Pro;}.cls-3{letter-spacing:-0.01em;}.cls-4{letter-spacing:-0.01em;}.cls-5{letter-spacing:-0.01em;}.cls-6{letter-spacing:0em;}.cls-7{letter-spacing:0em;}.cls-8{letter-spacing:-0.01em;}.cls-9{letter-spacing:-0.01em;}.cls-10{letter-spacing:0em;}</style></defs><title>final-high-Artboard 74</title><rect class="cls-1" x="13.81" y="12.34" width="18.41" height="21.09" rx="2.08" ry="2.08"/><path class="cls-1" d="M32.22,24.08a4.1,4.1,0,0,0,1.67.35,3.91,3.91,0,1,0,0-7.82,4.1,4.1,0,0,0-1.62.33"/><path class="cls-1" d="M17.91,3.66a2.36,2.36,0,0,1,.36,2.52c-.66,1.42-.32,2.21.29,2.47"/><path class="cls-1" d="M22.77,1.43a5.16,5.16,0,0,1,.79,5.51c-1.45,3.1-.7,4.84.64,5.4"/><path class="cls-1" d="M27.83,3.9a2.36,2.36,0,0,1,.36,2.52c-.66,1.42-.32,2.21.29,2.47"/><line class="cls-1" x1="32.22" y1="16.61" x2="19.61" y2="16.61"/><text class="cls-2" transform="translate(16.36 51.21)">s<tspan class="cls-3" x="4.75" y="0">c</tspan><tspan x="10.06" y="0">o</tspan><tspan class="cls-4" x="16.64" y="0">r</tspan><tspan x="20.45" y="0">er(thi</tspan><tspan class="cls-5" x="47.23" y="0">s</tspan><tspan class="cls-6" x="51.85" y="0">.st</tspan><tspan class="cls-7" x="63.06" y="0">a</tspan><tspan class="cls-8" x="68.79" y="0">t</tspan><tspan class="cls-9" x="72.7" y="0">e</tspan><tspan x="78.56" y="0">.</tspan><tspan class="cls-10" x="81.05" y="0">v</tspan><tspan x="86.77" y="0">alue)</tspan></text></svg>