<svg id="Layer_1" data-name="Layer 1" xmlns="http://www.w3.org/2000/svg" viewBox="0 0 46.35 46.09"><defs><style>.cls-1{fill:none;stroke:#000;stroke-linecap:round;stroke-miterlimit:10;stroke-width:2px;}</style></defs><title>final-high-Artboard 13</title><path class="cls-1" d="M41.07,10a1.91,1.91,0,0,1,.6,1.41v22a1.91,1.91,0,0,1-.6,1.41,2,2,0,0,1-1.43.59H9.71a2,2,0,0,1-1.43-.59,1.9,1.9,0,0,1-.6-1.41V15.16a1.16,1.16,0,0,1,.18-.65,2.16,2.16,0,0,1,1.86-1.07H25.38a2.11,2.11,0,0,0,2-2,3,3,0,0,1,3-2h9.23A2,2,0,0,1,41.07,10Z"/><line class="cls-1" x1="41.32" y1="14.32" x2="32.11" y2="14.32"/></svg>