<svg id="Layer_1" data-name="Layer 1" xmlns="http://www.w3.org/2000/svg" viewBox="0 0 54.33 54.03"><defs><style>.cls-1{fill:none;stroke:#000;stroke-linecap:round;stroke-miterlimit:10;stroke-width:2px;}</style></defs><title>final-high-Artboard 55</title><path class="cls-1" d="M33.94,28.89s-14.64-.06-21.62-.07c-1.57,0-2.15-.62-2.15-2.3,0-.56,0-1.13,0-1.69a1.77,1.77,0,0,1,1.89-2H33.92s-3.78-4.16-5.54-6a1.91,1.91,0,0,1,0-3c.44-.47.88-.95,1.33-1.41a1.61,1.61,0,0,1,2.52,0q5.7,6,11.39,12.07a1.79,1.79,0,0,1,0,2.62q-5.68,6-11.38,12.08a1.6,1.6,0,0,1-2.52,0c-.46-.48-.92-1-1.37-1.45a1.88,1.88,0,0,1,0-2.85C30,33.09,33.94,28.89,33.94,28.89Z"/></svg>