<svg id="Layer_1" data-name="Layer 1" xmlns="http://www.w3.org/2000/svg" viewBox="0 0 51.83 54.48"><defs><style>.cls-1{fill:none;stroke:#000;stroke-miterlimit:10;stroke-width:2px;}</style></defs><title>final-high-Artboard 7</title><path class="cls-1" d="M40.16,27.27a2.27,2.27,0,0,1,1.51,2.08q0,.14,0,.27t0,.27A2.27,2.27,0,0,1,40.16,32l-2.23.8a2.19,2.19,0,0,0-1.34,1.29q-.16.45-.35.88a2.22,2.22,0,0,0,.06,1.85l1,2.1a2.26,2.26,0,0,1-.4,2.54l-.43.43a2.26,2.26,0,0,1-2.54.4l-2.1-1A2.22,2.22,0,0,0,30,41.19q-.43.19-.88.35a2.19,2.19,0,0,0-1.29,1.34L27,45.11a2.27,2.27,0,0,1-2.08,1.51H24.4a2.27,2.27,0,0,1-2.08-1.51l-.8-2.23a2.19,2.19,0,0,0-1.29-1.34q-.45-.16-.88-.35a2.22,2.22,0,0,0-1.85.06l-2.1,1a2.26,2.26,0,0,1-2.54-.4l-.43-.43a2.26,2.26,0,0,1-.4-2.54l1-2.1a2.22,2.22,0,0,0,.06-1.85q-.19-.43-.35-.88a2.19,2.19,0,0,0-1.34-1.29L9.18,32a2.27,2.27,0,0,1-1.51-2.08q0-.14,0-.27t0-.27a2.27,2.27,0,0,1,1.51-2.08l2.23-.8a2.19,2.19,0,0,0,1.34-1.29q.16-.45.35-.88A2.22,2.22,0,0,0,13,22.45l-1-2.1a2.26,2.26,0,0,1,.4-2.54l.43-.43A2.26,2.26,0,0,1,15.4,17l2.1,1a2.22,2.22,0,0,0,1.85.06q.43-.19.88-.35a2.19,2.19,0,0,0,1.29-1.34l.8-2.23a2.27,2.27,0,0,1,2.08-1.51h.54A2.27,2.27,0,0,1,27,14.13l.8,2.23a2.19,2.19,0,0,0,1.29,1.34q.45.16.88.35A2.22,2.22,0,0,0,31.83,18l2.1-1a2.26,2.26,0,0,1,2.54.4l.43.43a2.26,2.26,0,0,1,.4,2.54l-1,2.1a2.22,2.22,0,0,0-.06,1.85q.19.43.35.88a2.19,2.19,0,0,0,1.34,1.29ZM24.67,24.62a5,5,0,0,1,3.52,8.52,5,5,0,1,1-7-7A4.81,4.81,0,0,1,24.67,24.62Z"/></svg>