<svg id="Layer_1" data-name="Layer 1" xmlns="http://www.w3.org/2000/svg" viewBox="0 0 54 57.16"><defs><style>.cls-1{fill:none;stroke:#000;stroke-miterlimit:10;stroke-width:2px;}</style></defs><title>final-high-Artboard 4</title><path class="cls-1" d="M26,19.07A1.22,1.22,0,0,0,28,19a12.44,12.44,0,0,1,3.25-3.35,7.29,7.29,0,0,1,4.07-.76,9.62,9.62,0,0,1,4.47,1.49,9.31,9.31,0,0,1,4.06,6.52,14.32,14.32,0,0,1-1,7.65,23.84,23.84,0,0,1-1.9,3.84,48.22,48.22,0,0,1-6.58,8.38c-1.56,1.64-4.5,4.16-6.22,5.61a1.93,1.93,0,0,1-2.61-.08c-1.42-1.33-3.68-3.47-5-4.8a52,52,0,0,1-6.91-8.24,22.25,22.25,0,0,1-3.22-7A12.61,12.61,0,0,1,10,24.49,11.25,11.25,0,0,1,12.39,18a7.92,7.92,0,0,1,4.67-2.86,8.78,8.78,0,0,1,4.81.26C23.23,15.84,24.92,17.74,26,19.07Z"/></svg>