<svg id="Layer_1" data-name="Layer 1" xmlns="http://www.w3.org/2000/svg" viewBox="0 0 50.76 50.48"><defs><style>.cls-1{fill:none;stroke:#000;stroke-linecap:round;stroke-miterlimit:10;stroke-width:2px;}</style></defs><title>final-high-Artboard 15</title><path class="cls-1" d="M40.31,5.7l-.4,3a1,1,0,0,1-.33.64c-1.48,1.34-7.41,5.61-7.47,7,0,0-.25,2-.48,3a.92.92,0,0,1-.61.66l-2.2.73a.94.94,0,0,0-.56.52L27,24.06a.81.81,0,0,1-.6.82l-1,.36a2.34,2.34,0,0,0-1.46,2.51,8.89,8.89,0,0,1,.1,1.33,8.4,8.4,0,0,1-2.56,6.16,8.41,8.41,0,0,1-6.16,2.56,8.4,8.4,0,0,1-6.16-2.56,8.69,8.69,0,0,1,0-12.33,8.4,8.4,0,0,1,6.16-2.56,7.67,7.67,0,0,1,1.23.13A2.22,2.22,0,0,0,18.35,20S32.63,6.88,35.65,4.26A1.37,1.37,0,0,1,36.87,4l2.69.64A1,1,0,0,1,40.31,5.7ZM12,28.63a2.62,2.62,0,0,0,1.85,4.47,2.61,2.61,0,0,0,2.62-2.62,2.21,2.21,0,0,0-.27-1.09,2.42,2.42,0,0,0-2.35-1.53A2.52,2.52,0,0,0,12,28.63Z"/></svg>