<svg id="Layer_1" data-name="Layer 1" xmlns="http://www.w3.org/2000/svg" viewBox="0 0 51.62 51.34"><defs><style>.cls-1{fill:none;stroke:#000;stroke-linecap:round;stroke-miterlimit:10;stroke-width:2px;}</style></defs><title>final-high-Artboard 43</title><path class="cls-1" d="M17.06,35.7H11.5A2.7,2.7,0,0,1,8.81,33V18.33a2.7,2.7,0,0,1,2.69-2.7H40.12a2.7,2.7,0,0,1,2.69,2.7V33a2.7,2.7,0,0,1-2.69,2.7H34.81"/><path class="cls-1" d="M17.06,15.55V11.38A1.41,1.41,0,0,1,18.46,10H33.41a1.41,1.41,0,0,1,1.4,1.42v4.17"/><rect class="cls-1" x="17.06" y="30.43" width="17.75" height="11.53"/><line class="cls-1" x1="14" y1="30.43" x2="38" y2="30.43"/><line class="cls-1" x1="34.98" y1="20.07" x2="37.98" y2="20.07"/></svg>