<svg id="Layer_1" data-name="Layer 1" xmlns="http://www.w3.org/2000/svg" viewBox="0 0 54.33 56.72"><defs><style>.cls-1,.cls-2{fill:none;stroke:#000;stroke-width:2px;}.cls-1{stroke-miterlimit:10;}.cls-2{stroke-linecap:round;stroke-linejoin:round;}</style></defs><title>final-high-Artboard 5</title><path class="cls-1" d="M43.93,27q-.65-5.5-6.07-8.85a19,19,0,0,0-12.42-2.57,18.74,18.74,0,0,0-11.5,5.23q-4.49,4.45-3.84,10a11.62,11.62,0,0,0,5.58,8.55,1.48,1.48,0,0,1,.58,1.71,19.24,19.24,0,0,1-.95,2.31A1.49,1.49,0,0,0,17,45.44a19.39,19.39,0,0,0,7.2-2.85,1.58,1.58,0,0,1,1-.28,20.39,20.39,0,0,0,3.39-.09A18.73,18.73,0,0,0,40.09,37Q44.58,32.54,43.93,27Z"/><line class="cls-2" x1="18.67" y1="25.7" x2="34.67" y2="25.7"/><line class="cls-2" x1="23.67" y1="30.7" x2="34.67" y2="30.7"/></svg>