<svg id="Layer_1" data-name="Layer 1" xmlns="http://www.w3.org/2000/svg" viewBox="0 0 54 57.16"><defs><style>.cls-1{fill:none;stroke:#000;stroke-miterlimit:10;stroke-width:2px;}</style></defs><title>final-high-Artboard 1</title><path class="cls-1" d="M42,25.44,34.7,32.9a1,1,0,0,0-.26.85l1.68,10.64a.93.93,0,0,1-1.34,1l-9-5a.88.88,0,0,0-.85,0l-9.11,5a.93.93,0,0,1-1.33-1l1.74-10.63a1,1,0,0,0-.27-.85L8.56,25.44a1,1,0,0,1,.5-1.64l10.14-1.58a.92.92,0,0,0,.69-.52L24.48,12a.9.9,0,0,1,1.65,0l4.52,9.65a.92.92,0,0,0,.69.53L41.5,23.8A1,1,0,0,1,42,25.44Z"/></svg>